<?xml version="1.0" standalone="no"?>
<!DOCTYPE svg PUBLIC "-//W3C//DTD SVG 1.1//EN" "http://www.w3.org/Graphics/SVG/1.1/DTD/svg11.dtd" >
<svg>
<metadata>
Created by FontForge 20090914 at Thu Oct 22 22:39:47 2020
 By www-data
</metadata>
<defs>
<font id="HandelGothicEx" horiz-adv-x="580" >
  <font-face 
    font-family="Handel Gothic Ex"
    font-weight="400"
    font-stretch="normal"
    units-per-em="1000"
    panose-1="0 0 6 0 0 0 0 2 0 0"
    ascent="800"
    descent="-200"
    x-height="527"
    cap-height="718"
    bbox="-103 -235 1999 809.576"
    underline-thickness="50"
    underline-position="-55"
    unicode-range="U+0020-U+F002"
  />
<missing-glyph 
 />
    <glyph glyph-name=".notdef" 
 />
    <glyph glyph-name="space" unicode=" " 
 />
    <glyph glyph-name="space" unicode="&#xa0;" 
 />
    <glyph glyph-name="exclam" unicode="!" horiz-adv-x="469" 
d="M121 129h227v-129h-227v129v0v0zM120 718h226v-534h-226v534v0v0z" />
    <glyph glyph-name="quotedbl" unicode="&#x22;" horiz-adv-x="496" 
d="M58 702h141v-273h-141v273v0v0zM297 702h141v-273h-141v273v0v0z" />
    <glyph glyph-name="numbersign" unicode="#" horiz-adv-x="1153" 
d="M519 715h162l-107 -203h177l108 203h162l-108 -203h207l-54 -98h-205l-62 -118h213l-52 -98h-213l-108 -202h-162l108 202h-179l-109 -202h-161l108 202h-211l55 98h207l63 118h-219l54 98h218l108 203v0v0zM519 414l-65 -119h185l63 119h-183v0v0z" />
    <glyph glyph-name="dollar" unicode="$" horiz-adv-x="1126" 
d="M598 290l0.00195312 -163.001c1.33301 -0.666992 2.83301 -1 4.5 -1h4.5h4.5h4.5h4h4h8h8h4h4h8h8c21.333 0 41.666 1.5 60.999 4.5s38 6.83301 56 11.5c18 5.33301 31.5 13.833 40.5 25.5s13.5 26.834 13.5 45.501c0 17.333 -4.33301 31.333 -13 42
s-21.334 18 -38.001 22s-34.5 7.16699 -53.5 9.5s-38.167 3.5 -57.5 3.5h-8.5h-9.5h-8.5h-9.5c-1.33301 0 -2.5 -0.166992 -3.5 -0.5s-2.16699 -0.5 -3.5 -0.5h-7.5h-6.5h-8.5h-9.5v1v0zM105.002 126.999l407.999 -0.00195312v163c-2 0 -4 -0.166992 -6 -0.5
s-3.66699 -0.5 -5 -0.5h-6h-6h-3.5h-3.5h-7.5h-6.5h-11.5h-10.5c-4 -0.666992 -7.83301 -1 -11.5 -1h-11.5h-11h-10c-4 0 -7.66699 0.166992 -11 0.5s-7 0.5 -11 0.5c-20.667 0 -41.334 1 -62.001 3s-40.667 4.33301 -60 7c-20 3.33301 -38.833 8.16602 -56.5 14.499
s-34.167 13.833 -49.5 22.5c-13.333 8 -25.166 16.833 -35.499 26.5s-19.166 19.834 -26.499 30.501c-7.33301 11.333 -13.333 22.833 -18 34.5s-7.66699 23.5 -9 35.5c0 1.33301 -0.166992 2.5 -0.5 3.5s-0.5 1.83301 -0.5 2.5c-0.666992 2 -1.16699 4.16699 -1.5 6.5
s-0.5 4.5 -0.5 6.5v4.5v5.5v4.5v4.5v3.5v3.5v3v3c0 1.33301 0.166992 2.5 0.5 3.5s0.5 2.16699 0.5 3.5c0 0.666992 0.166992 1.66699 0.5 3s0.5 2.33301 0.5 3c2 15.333 6 30.166 12 44.499s13.333 28.5 22 42.5c9.33301 14 21.333 26.5 36 37.5s31.667 20.833 51 29.5
c16.667 7.33301 34.334 13.333 53.001 18s37.667 8.33398 57 11.001c19.333 2 39 3.66699 59 5s40.333 2.33301 61 3h16h17h16h17h4h4h4h4h4h5h4h4v66h85v-65h402v-129h-402v-173c1.33301 0 2.66602 -0.166992 3.99902 -0.5s3 -0.5 5 -0.5h4h4h9.5h8.5
c57.333 0 111.333 -2.16699 162 -6.5s97.667 -10.5 141 -18.5c43.333 -8.66699 75.666 -27.667 96.999 -57s31.333 -69.333 30 -120v-4v-4c-0.666992 -1.33301 -1 -2.66602 -1 -3.99902v-4c0 -1.33301 -0.166992 -2.66602 -0.5 -3.99902s-0.5 -2.33301 -0.5 -3
c0 -1.33301 -0.166992 -2.5 -0.5 -3.5s-0.5 -2.16699 -0.5 -3.5c-2.66699 -14.667 -6.66699 -29 -12 -43s-12.666 -27.667 -21.999 -41c-8.66699 -13.333 -20.167 -25.5 -34.5 -36.5s-30.833 -20.5 -49.5 -28.5c-18 -7.33301 -36.5 -13.5 -55.5 -18.5
s-38.5 -8.5 -58.5 -10.5c-10 -0.666992 -20.167 -1.5 -30.5 -2.5s-20.5 -1.5 -30.5 -1.5c-10 -0.666992 -20.167 -1.16699 -30.5 -1.5s-20.5 -0.5 -30.5 -0.5h-11.5h-10.5h-5.5h-5.5h-16.5h-14.5h-12.5h-10.5h-3.5h-3.5h-7.5h-6.5v-70h-85v70h-408v127v0v0zM513.001 416.997
v173.001c-2 0 -4 -0.166992 -6 -0.5s-3.66699 -0.5 -5 -0.5h-6h-6h-8h-8h-4h-4c-22.667 -0.666992 -44 -2.5 -64 -5.5s-39 -7.16699 -57 -12.5s-31.833 -14 -41.5 -26s-14.5 -27.333 -14.5 -46c-0.666992 -18 3.16602 -32.667 11.499 -44s21.5 -19.333 39.5 -24
c17.333 -4.66699 35.833 -8.33398 55.5 -11.001s39.834 -4 60.501 -4h9.5h9.5h4.5h5.5h5.5h4.5h4.5h4.5h4.5h4.5v1v0z" />
    <glyph glyph-name="percent" unicode="%" horiz-adv-x="1381" 
d="M412 437c6 4 11.333 8.99902 16 14.999s8.33398 13 11.001 21c3.33301 8 5.66602 16.333 6.99902 25s2 17.334 2 26.001s-0.666992 17.167 -2 25.5s-3.66602 16.5 -6.99902 24.5c-2.66699 8 -6.33398 15 -11.001 21s-10 11.333 -16 16c-6 4 -12.333 7.66699 -19 11
s-14.334 6 -23.001 8s-17.5 3.5 -26.5 4.5s-18.167 1.5 -27.5 1.5c-6 0 -11.833 -0.166992 -17.5 -0.5s-11.167 -1.16602 -16.5 -2.49902c-2.66699 0 -5.5 -0.333008 -8.5 -1s-5.83301 -1.33398 -8.5 -2.00098c-8.66699 -2 -16.5 -4.66699 -23.5 -8s-13.167 -7 -18.5 -11
c-6 -4.66699 -11.167 -10.167 -15.5 -16.5s-8.16602 -13.5 -11.499 -21.5c-2.66699 -8 -4.83398 -16 -6.50098 -24s-2.5 -16.333 -2.5 -25s0.833008 -17.167 2.5 -25.5s3.83398 -16.5 6.50098 -24.5c3.33301 -8 7.16602 -15.167 11.499 -21.5s9.5 -11.833 15.5 -16.5
c5.33301 -4.66699 11.5 -8.66699 18.5 -12s14.833 -6 23.5 -8s17.5 -3.5 26.5 -4.5s17.833 -1.5 26.5 -1.5c4.66699 0 9.16699 0.166992 13.5 0.5s8.5 0.833008 12.5 1.5c4 0 8.16699 0.5 12.5 1.5s8.83301 1.83301 13.5 2.5c8.66699 2 16.334 4.66699 23.001 8
s13 7.33301 19 12v1v0zM214 334.999c-20.667 3.33301 -40.0029 7.99902 -58.0029 13.999s-34 13.333 -48 22c-14.667 9.33301 -27.167 19.666 -37.5 30.999s-18.5 24 -24.5 38c-2.66699 6.66699 -5.16699 13.5 -7.5 20.5s-4.16602 14.167 -5.49902 21.5
s-2.16602 14.666 -2.49902 21.999s-0.5 14.666 -0.5 21.999v10c0 3.33301 0.333008 7 1 11c0 3.33301 0.333008 6.66602 1 9.99902l2 10c1.33301 6.66699 3 13.167 5 19.5s4.33301 12.833 7 19.5c6 14 14.167 26.833 24.5 38.5s22.833 21.834 37.5 30.501
c14 9.33301 30 17 48 23s37.333 10.667 58 14c2.66699 0.666992 5.5 1 8.5 1s5.83301 0.333008 8.5 1l16.5 2l17.5 2c8.66699 0.666992 17.5 1.16699 26.5 1.5s17.833 0.5 26.5 0.5c8 0 16.333 -0.166992 25 -0.5s17.334 -0.833008 26.001 -1.5l17.5 -2l16.5 -2
c2.66699 -0.666992 5.5 -1 8.5 -1s5.83301 -0.333008 8.5 -1c21.333 -3.33301 40.5 -8 57.5 -14s32.833 -13.667 47.5 -23c14 -8.66699 26.167 -18.834 36.5 -30.501s18.5 -24.5 24.5 -38.5c3.33301 -6.66699 6.16602 -13.167 8.49902 -19.5s4.16602 -12.833 5.49902 -19.5
l2 -10c0.666992 -3.33301 1 -6.66602 1 -9.99902c0.666992 -4 1 -7.66699 1 -11v-10c0 -7.33301 -0.333008 -14.666 -1 -21.999s-1.66699 -14.666 -3 -21.999s-3.16602 -14.5 -5.49902 -21.5s-5.16602 -13.833 -8.49902 -20.5c-6 -14 -14.167 -26.667 -24.5 -38
s-22.5 -21.666 -36.5 -30.999c-14.667 -8.66699 -30.5 -16.167 -47.5 -22.5s-36.167 -11.166 -57.5 -14.499c-4 -0.666992 -7.83301 -1.16699 -11.5 -1.5s-7.5 -0.833008 -11.5 -1.5s-8 -1.16699 -12 -1.5s-8 -0.5 -12 -0.5c-2.66699 0 -5.33398 -0.166992 -8.00098 -0.5
s-5.33398 -0.833008 -8.00098 -1.5c-5.33301 0 -10.666 -0.166992 -15.999 -0.5s-10.666 -0.5 -15.999 -0.5h-9.5h-9.5c-6.66699 0 -13.167 0.166992 -19.5 0.5s-12.5 0.833008 -18.5 1.5c-9.33301 0.666992 -18.5 1.5 -27.5 2.5s-17.833 2.16699 -26.5 3.5v1v0z
M416.997 -0.00195312l418 717h117l-418 -717h-117v0v0zM962.997 -0.00195312c-20.667 3.33301 -39.998 8.00098 -57.998 14.001s-33.667 13.333 -47 22c-14.667 8.66699 -27.167 18.667 -37.5 30s-18.5 24 -24.5 38c-2.66699 6.66699 -5.16699 13.5 -7.5 20.5
s-4.16602 13.833 -5.49902 20.5c-1.33301 7.33301 -2.5 14.5 -3.5 21.5s-1.5 14.167 -1.5 21.5s0.5 14.5 1.5 21.5s2.16699 13.833 3.5 20.5c1.33301 7.33301 3.16602 14.333 5.49902 21s4.83301 13.334 7.5 20.001c9.33301 22 23.333 40.5 42 55.5s41.667 26.833 69 35.5
s55.666 15 84.999 19s59.666 5.33301 90.999 4c4 0 7.66699 -0.166992 11 -0.5s7 -0.5 11 -0.5c3.33301 -0.666992 6.66602 -1.16699 9.99902 -1.5s7 -0.5 11 -0.5c2.66699 0 5 -0.166992 7 -0.5s4.33301 -0.833008 7 -1.5h3h4
c3.33301 -0.666992 6.66602 -1.16699 9.99902 -1.5s7 -0.833008 11 -1.5c21.333 -3.33301 40.666 -8 57.999 -14s33 -13.667 47 -23c14.667 -8.66699 27.167 -18.834 37.5 -30.501s18.833 -24.5 25.5 -38.5c3.33301 -6.66699 5.83301 -13.334 7.5 -20.001
s3.16699 -13.667 4.5 -21c1.33301 -6.66699 2.5 -13.5 3.5 -20.5s1.5 -14.167 1.5 -21.5s-0.5 -14.5 -1.5 -21.5s-2.16699 -14.167 -3.5 -21.5c-1.33301 -6.66699 -2.83301 -13.5 -4.5 -20.5s-4.16699 -13.833 -7.5 -20.5c-6.66699 -14 -15.167 -26.5 -25.5 -37.5
s-22.833 -21.167 -37.5 -30.5c-14 -8.66699 -29.667 -16 -47 -22s-36.666 -10.667 -57.999 -14l-26.5 -2l-27.5 -2c-3.33301 0 -6.5 -0.166992 -9.5 -0.5s-6.16699 -0.5 -9.5 -0.5c-6.66699 0 -13.167 -0.166992 -19.5 -0.5s-12.5 -0.5 -18.5 -0.5h-8h-8
c-5.33301 0.666992 -10.666 1 -15.999 1s-10.666 0.333008 -15.999 1c-4 0.666992 -8 1.16699 -12 1.5s-7.66699 0.5 -11 0.5c-4 0.666992 -7.83301 1.16699 -11.5 1.5s-7.5 0.5 -11.5 0.5v0v0zM1162 101.999c6 4 11.167 8.99902 15.5 14.999s7.83301 13 10.5 21
c3.33301 8 5.66602 16.333 6.99902 25s2 17.334 2 26.001s-0.666992 17.167 -2 25.5s-3.66602 16.5 -6.99902 24.5c-2.66699 8 -6.16699 15 -10.5 21s-9.5 11.333 -15.5 16c-6 4 -12.333 7.5 -19 10.5s-14.334 5.5 -23.001 7.5c-6 1.33301 -11.833 2.5 -17.5 3.5
s-11.167 1.83301 -16.5 2.5c-2.66699 0.666992 -5.5 1 -8.5 1h-8.5c-9.33301 0 -18.5 -0.5 -27.5 -1.5s-17.833 -2.5 -26.5 -4.5s-16.5 -4.66699 -23.5 -8s-13.167 -7 -18.5 -11c-6 -4.66699 -11.167 -10.167 -15.5 -16.5s-8.16602 -13.5 -11.499 -21.5
c-2.66699 -8 -4.83398 -16 -6.50098 -24s-2.5 -16.333 -2.5 -25s0.833008 -17.167 2.5 -25.5s3.83398 -16.5 6.50098 -24.5c3.33301 -8 7.16602 -15.167 11.499 -21.5s9.5 -11.833 15.5 -16.5c5.33301 -4.66699 11.5 -8.66699 18.5 -12s14.833 -6 23.5 -8
s17.5 -3.5 26.5 -4.5s17.833 -1.5 26.5 -1.5c4.66699 0 9.16699 0.166992 13.5 0.5s8.5 0.833008 12.5 1.5c4 0 8.16699 0.5 12.5 1.5s8.83301 1.83301 13.5 2.5c8.66699 2 16.334 4.66699 23.001 8s13 7.33301 19 12v1v0z" />
    <glyph glyph-name="ampersand" unicode="&#x26;" horiz-adv-x="1207" 
d="M1029 295c-8.66699 -24 -19.4932 -47.3311 -32.4932 -69.998s-27.167 -45 -42.5 -67c-16 -22 -35.5 -42 -58.5 -60s-49.5 -34.667 -79.5 -50c-20.667 -10 -42.5 -18.5 -65.5 -25.5s-47.167 -13.167 -72.5 -18.5c-16.667 -2.66699 -33.834 -5 -51.501 -7l-52.5 -6l-26 -2
c-8.66699 -0.666992 -17.334 -1 -26.001 -1h-51c-16.667 0 -33.334 0.666992 -50.001 2c-16.667 0.666992 -33 2 -49 4l-47 6c-28.667 3.33301 -55.834 9.33301 -81.501 18s-49.834 19.334 -72.501 32.001c-22.667 13.333 -41 28.333 -55 45s-23.667 35.334 -29 56.001
c-6 23.333 -6.83301 44.666 -2.5 63.999s13.166 36.666 26.499 51.999s29.833 29.833 49.5 43.5s42.5 26.834 68.5 39.501c-12.667 6 -24.667 12.333 -36 19l-33 20c-10.667 7.33301 -20.334 15.166 -29.001 23.499s-16 17.5 -22 27.5
c-4.66699 6.66699 -8.66699 13.5 -12 20.5s-6.33301 14.167 -9 21.5c-2 7.33301 -3.5 14.666 -4.5 21.999s-1.5 15 -1.5 23c-0.666992 2.66699 -1 5.5 -1 8.5s0.333008 5.83301 1 8.5c0 2 0.166992 4 0.5 6s0.833008 4 1.5 6c0 1.33301 0.166992 2.5 0.5 3.5
s0.5 1.83301 0.5 2.5c7.33301 28 20.333 51.833 39 71.5s43.334 35.5 74.001 47.5s63.667 21 99 27s72.333 9 111 9l363 1v-133h-306c-23.333 -0.666992 -45.166 -3.16699 -65.499 -7.5s-39.166 -10.5 -56.499 -18.5c-18 -8.66699 -30 -19.5 -36 -32.5s-6 -28.167 0 -45.5
c4.66699 -14 12 -25.5 22 -34.5s22.667 -15.167 38 -18.5c15.333 -4 31.5 -6.83301 48.5 -8.5s34.5 -2.5 52.5 -2.5h7h8h7h8h2h2h1h2h4.5h4.5v-122l-0.5 -0.5l-0.5 -0.5h-1.5h-0.5h-0.5h-0.5h-1.5h-0.5h-0.5h-1.5h-1.5h-0.5h-3.5h-2.5
c-20.667 0 -40.334 -0.666992 -59.001 -2s-36.667 -3.33301 -54 -6c-18 -2.66699 -32.5 -8.83398 -43.5 -18.501s-18.833 -23.167 -23.5 -40.5c-4 -12 -4.5 -23.667 -1.5 -35s9.83301 -22 20.5 -32c10 -10.667 21.833 -19.334 35.5 -26.001s28.834 -11.667 45.501 -15
c7.33301 -1.33301 14.666 -2.5 21.999 -3.5s14.666 -1.5 21.999 -1.5c4 0 7.83301 -0.166992 11.5 -0.5s7.5 -0.5 11.5 -0.5h11.5h11.5c8 0 16.167 0.5 24.5 1.5s16.5 1.83301 24.5 2.5c8 1.33301 16.167 2.83301 24.5 4.5s16.5 3.5 24.5 5.5
c15.333 4 30.166 8.83301 44.499 14.5s27.5 12.5 39.5 20.5c13.333 8 25 16.833 35 26.5s18.667 19.834 26 30.501s14 21.5 20 32.5s11.333 21.833 16 32.5c0 0.666992 0.166992 1.16699 0.5 1.5s0.5 0.833008 0.5 1.5l0.5 0.5c0.333008 0.333008 0.5 0.833008 0.5 1.5v1.5
c0 0.333008 0.333008 0.833008 1 1.5l0.5 0.5l1.5 1.5l-152 1v123h522v-123h-133v0v0z" />
    <glyph glyph-name="quotesingle" unicode="'" horiz-adv-x="297" 
d="M142 499v94h-84v125h180v-10.5v-9.5v-8.5v-9.5c0 -14 -0.166992 -27.167 -0.5 -39.5s-1.16602 -23.833 -2.49902 -34.5s-4.5 -21.167 -9.5 -31.5s-12.167 -20.5 -21.5 -30.5l-6 -6c-2 -2 -4.33301 -3.66699 -7 -5c-2 -2 -4.16699 -4 -6.5 -6s-4.5 -4 -6.5 -6l-8 -6
c-2.66699 -2 -5.33398 -3.66699 -8.00098 -5l-10 -6l-10 -6v1v0z" />
    <glyph glyph-name="parenleft" unicode="(" horiz-adv-x="520" 
d="M463 718l-21.002 -25.501l-19 -24.5l-18 -24c-6 -8 -11.667 -16 -17 -24c-18 -26 -33.667 -52 -47 -78s-24.666 -52 -33.999 -78c-8.66699 -26.667 -15.334 -54.167 -20.001 -82.5s-7 -57.5 -7 -87.5c0 -30.667 2.33301 -60.5 7 -89.5s12 -57.167 22 -84.5
c9.33301 -26.667 21 -53.334 35 -80.001s30.333 -52.334 49 -77.001l16 -22c5.33301 -7.33301 11 -14.666 17 -21.999l18 -22.5c6 -7.66699 12.333 -15.167 19 -22.5l-142 -1c-28 26.667 -53.5 52.834 -76.5 78.501s-43.5 50.834 -61.5 75.501l-17.5 25.5
c-5.66699 8.33301 -10.834 16.833 -15.501 25.5c-19.333 33.333 -34.166 66.833 -44.499 100.5s-16.166 67.5 -17.499 101.5c-1.33301 36 2.33398 72 11.001 108s22.667 72.333 42 109c19.333 36 44 72.5 74 109.5s65.333 73.833 106 110.5l142 1v0v0z" />
    <glyph glyph-name="parenright" unicode=")" horiz-adv-x="520" 
d="M58 718h140.997c40.667 -37.333 75.834 -74.5 105.501 -111.5s54.167 -73.5 73.5 -109.5c19.333 -36.667 33.5 -73 42.5 -109s12.833 -72 11.5 -108c-1.33301 -34 -7.16602 -67.833 -17.499 -101.5s-25.166 -67.167 -44.499 -100.5
c-4.66699 -8.66699 -9.83398 -17.167 -15.501 -25.5l-17.5 -25.5c-18 -24.667 -38.5 -49.834 -61.5 -75.501s-48.5 -51.5 -76.5 -77.5l-141 -1l18 23.5l18 22.5l17.5 22c5.66699 7.33301 10.834 14.666 15.501 21.999c18 24.667 34.167 50.334 48.5 77.001
s26.166 53.334 35.499 80.001c9.33301 27.333 16.5 55.5 21.5 84.5s7.5 58.833 7.5 89.5c0 30 -2.5 59.167 -7.5 87.5s-12.167 55.833 -21.5 82.5c-8.66699 26 -19.667 52 -33 78s-28.333 52 -45 78l-18 24l-18 24c-2.66699 4 -5.66699 8 -9 12
s-6.66602 8.33301 -9.99902 13l-10 12l-10 12v1v0z" />
    <glyph glyph-name="asterisk" unicode="*" horiz-adv-x="750" 
d="M111 484l139 54l-139 53l61 72l140 -53v108h126v-108l139 53l62 -72l-140 -53l140 -54l-62 -71l-139 53v-108h-126v108l-140 -53l-61 71v0v0z" />
    <glyph glyph-name="plus" unicode="+" horiz-adv-x="1249" 
d="M550 596h149v-249h364v-97h-364v-250h-149v250h-364v97h364v249v0v0z" />
    <glyph glyph-name="comma" unicode="," horiz-adv-x="297" 
d="M142 -93v92.999h-84v125h180v-11v-10v-8.5v-8.5v-37.5c0 -11.667 -0.333008 -22.5 -1 -32.5c-1.33301 -10 -4.33301 -19.667 -9 -29s-10.667 -18.666 -18 -27.999l-6 -6l-7 -7c-2 -2 -4.16699 -4 -6.5 -6s-4.83301 -4 -7.5 -6l-19.5 -13l-21.5 -14v-1v0z" />
    <glyph glyph-name="hyphen" unicode="-" 
d="M37 333h504v-125h-504v125v0v0z" />
    <glyph glyph-name="period" unicode="." horiz-adv-x="297" 
d="M58 125h180v-125h-180v125v0v0z" />
    <glyph glyph-name="slash" unicode="/" horiz-adv-x="628" 
d="M-4 -91l526 818h114l-533 -818h-107v0v0z" />
    <glyph glyph-name="zero" unicode="0" horiz-adv-x="1159" 
d="M798 163c13.333 9.33301 24.998 20.834 34.998 34.501s18.667 29.5 26 47.5s12.666 36.333 15.999 55s5 37.667 5 57s-1.66699 38.166 -5 56.499s-8.66602 36.5 -15.999 54.5s-16 34 -26 48s-21.667 26 -35 36c-12.667 9.33301 -27.334 17.5 -44.001 24.5
s-34.667 12.833 -54 17.5s-39.333 8 -60 10s-41.667 3 -63 3c-20.667 0 -41.167 -1.16699 -61.5 -3.5s-40.166 -5.83301 -59.499 -10.5s-37.166 -10.334 -53.499 -17.001s-30.5 -14.667 -42.5 -24c-13.333 -10 -25.166 -22 -35.499 -36s-19.166 -30 -26.499 -48
c-6.66699 -18 -11.5 -36.167 -14.5 -54.5s-4.5 -37.166 -4.5 -56.499s1.5 -38.333 4.5 -57s7.83301 -37 14.5 -55c7.33301 -18 16.166 -33.833 26.499 -47.5s22.166 -25.5 35.499 -35.5c12.667 -9.33301 27.167 -17.5 43.5 -24.5s34.166 -12.833 53.499 -17.5
s39.333 -8 60 -10s41.334 -3 62.001 -3c21.333 0 42 1.16699 62 3.5s39.667 5.83301 59 10.5s37.333 10.5 54 17.5s31.334 14.833 44.001 23.5v1v0zM386.998 4.00098c-41.333 6.66699 -78.834 15.5 -112.501 26.5s-63.167 24.5 -88.5 40.5
c-25.333 15.333 -47.666 33.833 -66.999 55.5s-35 46.167 -47 73.5c-5.33301 12 -9.83301 24.333 -13.5 37s-7.16699 25.667 -10.5 39c-2.66699 13.333 -4.66699 26.833 -6 40.5s-2 27.5 -2 41.5c0 13.333 0.666992 26.833 2 40.5s3.33301 27.167 6 40.5
c3.33301 13.333 6.83301 26.333 10.5 39s8.16699 25 13.5 37c12 26.667 27.667 50.667 47 72s41.666 40 66.999 56s54.833 29.833 88.5 41.5s71.167 20.834 112.5 27.501c15.333 2.66699 31.333 5 48 7s33.667 3.33301 51 4c16.667 1.33301 33.5 2.33301 50.5 3
s34.5 1 52.5 1c10 0 20.167 -0.166992 30.5 -0.5s20.833 -0.833008 31.5 -1.5c5.33301 -0.666992 10.5 -1 15.5 -1s10.167 -0.333008 15.5 -1c7.33301 -0.666992 14.833 -1.5 22.5 -2.5s15.5 -1.83301 23.5 -2.5c8 -1.33301 15.833 -2.33301 23.5 -3
s15.167 -1.66699 22.5 -3c40.667 -6.66699 77.5 -15.834 110.5 -27.501s62.5 -25.5 88.5 -41.5c25.333 -16 47.666 -34.667 66.999 -56s35 -45.333 47 -72c5.33301 -12 10 -24.333 14 -37s7.33301 -25.667 10 -39s4.66699 -26.833 6 -40.5s2 -27.167 2 -40.5
c0 -14 -0.666992 -27.833 -2 -41.5s-3.33301 -27.167 -6 -40.5s-6 -26.333 -10 -39s-8.66699 -25 -14 -37c-12 -26.667 -27.667 -50.834 -47 -72.501s-41.666 -40.5 -66.999 -56.5c-26 -16 -55.5 -29.667 -88.5 -41s-69.833 -20.333 -110.5 -27
c-10 -1.33301 -20.167 -2.33301 -30.5 -3s-20.833 -1.66699 -31.5 -3c-5.33301 0 -10.5 -0.333008 -15.5 -1s-10.167 -1 -15.5 -1c-16 -1.33301 -31.667 -2.33301 -47 -3l-46 -2c-18 0 -35.667 0.333008 -53 1s-34.333 1.66699 -51 3
c-16.667 0.666992 -33.167 1.83398 -49.5 3.50098s-32.166 3.5 -47.499 5.5v1v0z" />
    <glyph glyph-name="one" unicode="1" horiz-adv-x="396" 
d="M79 718h237v-718h-237v718v0v0z" />
    <glyph glyph-name="two" unicode="2" horiz-adv-x="1021" 
d="M42 216c0 19.333 1.83301 37.4961 5.5 54.4961s9.16699 32.833 16.5 47.5c7.33301 15.333 20 29.333 38 42s41 24.334 69 35.001c18 6.66699 36.833 12 56.5 16s39.834 7 60.501 9c21.333 2 42.5 3.5 63.5 4.5s42.167 1.5 63.5 1.5h9h9h8.5h8.5h18h18
c5.33301 0 10.666 -0.166992 15.999 -0.5s10.666 -0.5 15.999 -0.5h16h16h31.5c10.333 0 20.833 0.333008 31.5 1c21.333 0.666992 40 3.33398 56 8.00098s29.333 11.334 40 20.001c10.667 9.33301 18 19.666 22 30.999s4.66699 24.333 2 39
c-2.66699 16.667 -9.16699 30 -19.5 40s-24.166 16.333 -41.499 19c-18 3.33301 -36.5 5.83301 -55.5 7.5s-38.5 2.5 -58.5 2.5l-516 1v124h564c2 -0.666992 4.33301 -1 7 -1h8h9.5h8.5h7h8h7h8c8 0 15.833 -0.166992 23.5 -0.5s15.5 -0.5 23.5 -0.5
c8 -0.666992 15.833 -1.16699 23.5 -1.5s15.5 -0.833008 23.5 -1.5c16 -1.33301 31.5 -3.66602 46.5 -6.99902s29.5 -7.66602 43.5 -12.999c22.667 -8.66699 42.167 -18.834 58.5 -30.501s29.833 -25.167 40.5 -40.5c10.667 -14.667 19 -30 25 -46s9.66699 -32 11 -48v-2v-2
v-1.5v-0.5c2.66699 -36.667 -2.5 -68.834 -15.5 -96.501s-33.167 -51.167 -60.5 -70.5c-28 -19.333 -62.5 -33.833 -103.5 -43.5s-89.167 -14.5 -144.5 -14.5l-204 1c-44.667 -0.666992 -80 -4.5 -106 -11.5s-42.667 -17.167 -50 -30.5s-12.5 -29.166 -15.5 -47.499
s-4.16699 -39.166 -3.5 -62.499v-6v-6v-6v-6l699 1v-123h-942v216v0v0z" />
    <glyph glyph-name="three" unicode="3" horiz-adv-x="948" 
d="M19 123h444.008c22.667 -0.666992 44.167 0.333008 64.5 3s39.5 6.66699 57.5 12s31.5 14 40.5 26s13.5 27.333 13.5 46c0 17.333 -4.5 31.833 -13.5 43.5s-22.5 20.5 -40.5 26.5s-37.167 10.5 -57.5 13.5s-41.833 4.5 -64.5 4.5l-358 1v123h352
c22.667 -0.666992 44.167 0.333008 64.5 3s39.5 6.66699 57.5 12s31.5 13.833 40.5 25.5s13.5 26.5 13.5 44.5s-4.5 33 -13.5 45s-22.5 20.667 -40.5 26s-37.167 9.33301 -57.5 12s-41.833 4 -64.5 4l-438 1v123h518c38 -0.666992 74.667 -3 110 -7
s68.666 -9.66699 99.999 -17s58.166 -19.833 80.499 -37.5s39.5 -40.167 51.5 -67.5c11.333 -26 16.666 -49.833 15.999 -71.5s-7.66699 -41.5 -21 -59.5s-30.5 -35.167 -51.5 -51.5s-46.167 -32.166 -75.5 -47.499c15.333 -6.66699 30.166 -13.5 44.499 -20.5
s27.5 -14.5 39.5 -22.5s22.167 -17.167 30.5 -27.5s15.166 -21.833 20.499 -34.5c2 -5.33301 3.83301 -10.833 5.5 -16.5s3.16699 -11.167 4.5 -16.5s2 -10.833 2 -16.5v-16.5c0 -3.33301 -0.166992 -6.5 -0.5 -9.5s-0.833008 -6.16699 -1.5 -9.5
c0 -1.33301 -0.166992 -2.83301 -0.5 -4.5s-0.5 -3.16699 -0.5 -4.5c-0.666992 -2.66699 -1.33398 -5.16699 -2.00098 -7.5s-1.33398 -4.5 -2.00098 -6.5c-0.666992 -2.66699 -1.33398 -5 -2.00098 -7l-2 -6c-9.33301 -24.667 -24.333 -45.834 -45 -63.501
s-46.667 -31.167 -78 -40.5c-31.333 -10 -63.833 -17.333 -97.5 -22s-68.167 -7 -103.5 -7h-540v123v0v0z" />
    <glyph glyph-name="four" unicode="4" horiz-adv-x="1159" 
d="M739 131h-693v139l633 449h287v-465h147v-123h-147v-131h-227v131v0v0zM739 565l-435 -311h435v311v0v0z" />
    <glyph glyph-name="five" unicode="5" horiz-adv-x="1027" 
d="M48 123h522.002c23.333 -0.666992 44.666 0.5 63.999 3.5s37 7.5 53 13.5c15.333 6 26.833 15 34.5 27s11.5 27 11.5 45s-3.83301 33 -11.5 45s-19.167 21 -34.5 27c-14.667 6 -31.834 10.5 -51.501 13.5s-41.5 4.5 -65.5 4.5l-522 1v415h895v-123h-657v-169h386
c50 -0.666992 95 -5.66699 135 -15s74.333 -23 103 -41c29.333 -18 51.5 -40.167 66.5 -66.5s22.5 -56.833 22.5 -91.5c-0.666992 -40 -10 -73.833 -28 -101.5s-44.667 -49.167 -80 -64.5c-36 -15.333 -76.5 -26.833 -121.5 -34.5s-94.5 -11.5 -148.5 -11.5h-573v123v0v0z
" />
    <glyph glyph-name="six" unicode="6" horiz-adv-x="1090" 
d="M690 415c54.667 -0.666992 104.832 -4.66406 150.499 -11.9971s86.834 -18.666 123.501 -33.999c36 -14.667 62.333 -36.334 79 -65.001s23.334 -64 20.001 -106c-2.66699 -36.667 -15.334 -67.834 -38.001 -93.501s-55 -46.167 -97 -61.5
c-42 -14.667 -85.667 -26.167 -131 -34.5s-92.666 -13.5 -141.999 -15.5c-12.667 -0.666992 -25.334 -1.16699 -38.001 -1.5s-25.334 -0.166016 -38.001 0.500977h-19c-6 0 -12.333 0.333008 -19 1c-19.333 0.666992 -37.666 1.66699 -54.999 3l-51 4
c-82 7.33301 -150 22.5 -204 45.5s-94.667 53.5 -122 91.5c-26.667 38 -45.334 79.167 -56.001 123.5s-13 91.5 -7 141.5c7.33301 59.333 25.166 109.5 53.499 150.5s67.5 72.833 117.5 95.5c50.667 23.333 109.334 40.666 176.001 51.999s142 17 226 17l384 1v-123h-390
c-51.333 -0.666992 -95.833 -4.16699 -133.5 -10.5s-68.5 -15.833 -92.5 -28.5s-42.667 -30.834 -56 -54.501s-21.666 -52.834 -24.999 -87.501l384 1v0v0zM675.998 292.003l-369.999 -0.000976562v-6v-5v-2.5c0 -1 0.333008 -1.83301 1 -2.5v-3v-2
c1.33301 -13.333 4.33301 -26.5 9 -39.5s10.334 -25.5 17.001 -37.5c6.66699 -12.667 16.667 -23.667 30 -33s29.666 -17.666 48.999 -24.999c11.333 -4 23.5 -7.66699 36.5 -11s26.833 -6 41.5 -8s29.5 -3.66699 44.5 -5s29.833 -2 44.5 -2h18.5h19.5
c6.66699 0 13.167 0.166992 19.5 0.5s12.5 0.833008 18.5 1.5l35.5 4c11.667 1.33301 22.834 3.33301 33.501 6c13.333 2.66699 25.333 6.66699 36 12s19.667 12 27 20s13.166 16.333 17.499 25s6.5 17.334 6.5 26.001c1.33301 10.667 -0.666992 21 -6 31
s-13.333 19.333 -24 28c-10.667 9.33301 -24.834 16.166 -42.501 20.499s-38.5 6.5 -62.5 6.5v1v0z" />
    <glyph glyph-name="seven" unicode="7" horiz-adv-x="952" 
d="M690 595h-690v123h954v-123l-647 -595h-288l671 595v0v0z" />
    <glyph glyph-name="eight" unicode="8" horiz-adv-x="1105" 
d="M471 595c-22.667 -0.666992 -44.167 -2.33301 -64.5 -5s-39.5 -6.66699 -57.5 -12s-31.5 -14 -40.5 -26s-13.5 -27 -13.5 -45s4.5 -32.833 13.5 -44.5s22.5 -20.167 40.5 -25.5s37.167 -9.33301 57.5 -12s41.833 -4 64.5 -4l163 1
c22.667 -0.666992 44.167 0.333008 64.5 3s39.5 6.66699 57.5 12s31.5 13.833 40.5 25.5s13.5 26.5 13.5 44.5s-4.5 33 -13.5 45s-22.5 20.667 -40.5 26s-37.167 9.33301 -57.5 12s-41.833 4 -64.5 4l-163 1v0v0zM469 299.001c-22.667 -0.666992 -44.334 -2.5 -65.001 -5.5
s-40 -7.5 -58 -13.5s-31.333 -14.833 -40 -26.5s-12.667 -26.167 -12 -43.5c-0.666992 -18.667 3.33301 -34 12 -46s22 -20.667 40 -26s37.333 -9.33301 58 -12s42.334 -4 65.001 -4l165 1c22.667 -0.666992 44.167 0.333008 64.5 3s39.5 6.66699 57.5 12s31.5 14 40.5 26
s13.5 27.333 13.5 46c0 17.333 -4.5 31.833 -13.5 43.5s-22.5 20.5 -40.5 26.5s-37.167 10.5 -57.5 13.5s-41.833 4.5 -64.5 4.5l-165 1v0v0zM195 360.001c-29.333 14.667 -54.4971 30.1641 -75.4971 46.4971s-37.833 33.833 -50.5 52.5c-12.667 18 -19.5 38 -20.5 60
s3.83301 45.333 14.5 70c11.333 27.333 27.833 49.833 49.5 67.5s48.5 30.167 80.5 37.5c32.667 7.33301 66.5 12.833 101.5 16.5s71.833 5.83398 110.5 6.50098l291 1c37.333 -0.666992 73.666 -3 108.999 -7s69.333 -9.66699 102 -17c33.333 -7.33301 61 -19.833 83 -37.5
s38.333 -40.167 49 -67.5c0.666992 -2 1.33398 -4.16699 2.00098 -6.5s1.33398 -4.5 2.00098 -6.5c0.666992 -2.66699 1.33398 -5 2.00098 -7l2 -6c0 -1.33301 0.166992 -2.66602 0.5 -3.99902s0.5 -2.66602 0.5 -3.99902c0 -0.666992 0.166992 -1.33398 0.5 -2.00098
s0.5 -1.33398 0.5 -2.00098c0 -2.66699 0.166992 -5 0.5 -7s0.5 -4 0.5 -6c0 -7.33301 -0.5 -14.666 -1.5 -21.999s-2.5 -14.666 -4.5 -21.999l-8.5 -20.5c-3 -7 -6.16699 -13.833 -9.5 -20.5c-6 -10 -13.167 -19.333 -21.5 -28s-17.833 -16.667 -28.5 -24l-32.5 -21.5
c-11 -7 -23.167 -13.833 -36.5 -20.5c17.333 -6 33.5 -12.5 48.5 -19.5s28.833 -14.5 41.5 -22.5c13.333 -8 24.5 -17.167 33.5 -27.5s16.5 -22.166 22.5 -35.499c1.33301 -4.66699 2.83301 -9.5 4.5 -14.5s3.16699 -10.167 4.5 -15.5c0 -1.33301 0.166992 -3 0.5 -5
s0.5 -3.66699 0.5 -5c0.666992 -3.33301 1.16699 -6.66602 1.5 -9.99902s0.5 -6.66602 0.5 -9.99902s-0.166992 -6.83301 -0.5 -10.5s-0.833008 -7.5 -1.5 -11.5c0 -1.33301 -0.166992 -2.83301 -0.5 -4.5s-0.5 -3.5 -0.5 -5.5
c-0.666992 -4.66699 -1.83398 -9.5 -3.50098 -14.5s-3.16699 -9.83301 -4.5 -14.5c-10.667 -25.333 -26.334 -46.833 -47.001 -64.5s-46.334 -31.167 -77.001 -40.5s-62.667 -16.333 -96 -21s-68 -7 -104 -7h-357c-36.667 0 -71.834 2.33301 -105.501 7
s-65.834 11.667 -96.501 21s-56.167 22.833 -76.5 40.5s-35.833 39.167 -46.5 64.5c-2.66699 4.66699 -4.66699 9.5 -6 14.5s-2.33301 9.83301 -3 14.5c-0.666992 5.33301 -1.16699 10.666 -1.5 15.999s-0.5 10.666 -0.5 15.999s0.166992 10.5 0.5 15.5
s1.16602 9.83301 2.49902 14.5c1.33301 5.33301 2.83301 10.5 4.5 15.5s3.83398 9.83301 6.50098 14.5c5.33301 13.333 12.5 25.166 21.5 35.499s19.833 19.5 32.5 27.5c12 7.33301 25.5 14.5 40.5 21.5s31.5 13.833 49.5 20.5v1v0z" />
    <glyph glyph-name="nine" unicode="9" horiz-adv-x="1090" 
d="M399 303c-54.667 -0.666992 -104.829 2.83496 -150.496 10.502s-87.167 18.834 -124.5 33.501c-36.667 15.333 -63.167 37 -79.5 65s-22.833 63 -19.5 105c3.33301 36.667 16 68 38 94s54 46.333 96 61c41.333 15.333 84.5 27.333 129.5 36s92.167 14.334 141.5 17.001
c10 0.666992 19.833 1.16699 29.5 1.5s19.167 0.5 28.5 0.5s18.833 -0.166992 28.5 -0.5s19.5 -0.833008 29.5 -1.5c19.333 -0.666992 38 -1.66699 56 -3l52 -4c81.333 -8.66699 149 -24.667 203 -48s94.333 -54 121 -92c27.333 -38.667 46.166 -80 56.499 -124
s12.5 -90.667 6.5 -140c-6.66699 -58.667 -24.334 -108.334 -53.001 -149.001s-68 -72.667 -118 -96c-50.667 -22.667 -109.334 -39.834 -176.001 -51.501s-141.667 -17.5 -225 -17.5h-385v123h391c49.333 -0.666992 92.666 2.16602 129.999 8.49902s68 16.166 92 29.499
s43.167 31.833 57.5 55.5s23.833 52.167 28.5 85.5l-384 1v0v0zM412.005 425.002h370.997c0 0.666992 -0.166992 1.33398 -0.5 2.00098s-0.5 1.66699 -0.5 3c0 0.666992 -0.166992 1.5 -0.5 2.5s-0.5 1.83301 -0.5 2.5v3.5v2.5c-0.666992 1.33301 -1 2.5 -1 3.5v2.5
c-2.66699 13.333 -6.16699 26.333 -10.5 39s-9.83301 25 -16.5 37s-16.334 22.833 -29.001 32.5s-28.667 17.834 -48 24.501c-10.667 3.33301 -22.167 6.5 -34.5 9.5s-25.833 5.5 -40.5 7.5c-14 2 -28.333 3.5 -43 4.5s-29.667 1.83301 -45 2.5h-40
c-13.333 0 -26.666 -0.666992 -39.999 -2c-13.333 -0.666992 -25.666 -1.66699 -36.999 -3s-22 -3 -32 -5c-14 -2.66699 -26.333 -6.83398 -37 -12.501s-19.667 -12.5 -27 -20.5s-13.166 -16 -17.499 -24s-6.5 -16.667 -6.5 -26c0 -10.667 2.5 -21 7.5 -31
s12.833 -19.667 23.5 -29c10.667 -8.66699 24.834 -15.334 42.501 -20.001s38.5 -7 62.5 -7v1v0z" />
    <glyph glyph-name="colon" unicode=":" horiz-adv-x="318" 
d="M69 393h178v-125h-178v125v0v0zM69 125h178v-125h-178v125v0v0z" />
    <glyph glyph-name="semicolon" unicode=";" horiz-adv-x="318" 
d="M151 -93l0.000976562 93h-82v125h178v-11.5v-10.5c0 -2.66699 0.166992 -5.5 0.5 -8.5s0.833008 -6.16699 1.5 -9.5c0 -8.66699 -0.166992 -16.834 -0.5 -24.501s-0.833008 -15.167 -1.5 -22.5c0 -3.33301 -0.166992 -6.66602 -0.5 -9.99902s-0.5 -6.66602 -0.5 -9.99902
c-0.666992 -4.66699 -1.5 -9.16699 -2.5 -13.5s-2.5 -8.83301 -4.5 -13.5c-2 -4 -4.33301 -8.33301 -7 -13s-6 -9.33398 -10 -14.001s-8.33301 -9.16699 -13 -13.5s-10 -8.83301 -16 -13.5l-19 -14.5c-6.66699 -5 -14.334 -9.83301 -23.001 -14.5v-1v0zM69.001 393h178v-125
h-178v125v0v0z" />
    <glyph glyph-name="less" unicode="&#x3c;" horiz-adv-x="1249" 
d="M1056 583v-107l-654 -178l654 -178v-107l-863 237v97l863 236v0v0z" />
    <glyph glyph-name="equal" unicode="=" horiz-adv-x="1249" 
d="M186 452h877v-97h-877v97v0v0zM186 242h877v-97h-877v97v0v0z" />
    <glyph glyph-name="greater" unicode="&#x3e;" horiz-adv-x="1249" 
d="M193 583l863 -236v-97l-863 -237v107l656 178l-656 178v107v0v0z" />
    <glyph glyph-name="question" unicode="?" horiz-adv-x="1039" 
d="M306 195v-18.0049h-246c0 19.333 1.16699 38.666 3.5 57.999s6.16602 38.333 11.499 57c4.66699 18.667 15.167 35.834 31.5 51.501s37.833 29.834 64.5 42.501c18 8 36.833 14.5 56.5 19.5s39.834 8.83301 60.501 11.5c21.333 2.66699 42.666 4.66699 63.999 6
s43.333 2.33301 66 3h10h11c3.33301 -0.666992 6.66602 -1 9.99902 -1h10h20.5h21.5c4 0 7.83301 -0.166992 11.5 -0.5s7.5 -0.5 11.5 -0.5h11.5h11.5h12h12h11.5h11.5c22.667 0 43 1.83301 61 5.5s34 8.83398 48 15.501c13.333 6.66699 23.333 15.834 30 27.501
s9.33398 25.834 8.00098 42.501c-1.33301 18 -6.83301 32.5 -16.5 43.5s-23.167 18.5 -40.5 22.5s-36 7 -56 9s-41.333 3 -64 3l-527 1v124h576c0.666992 0 1.5 -0.166992 2.5 -0.5s2.16699 -0.5 3.5 -0.5h2.5h2.5h5h7h18h18h9.5h9.5
c3.33301 -0.666992 6.66602 -1 9.99902 -1h10c6 0 12.167 -0.166992 18.5 -0.5s12.833 -0.833008 19.5 -1.5l19.5 -2l18.5 -2c13.333 -2 26 -4.33301 38 -7s24 -6 36 -10c22.667 -8 41.834 -17.667 57.501 -29s28.834 -24.666 39.501 -39.999c10 -14.667 18 -29.667 24 -45
s9.66699 -31 11 -47v-1.5c0 -0.333008 0.333008 -0.833008 1 -1.5v-1.5v-1.5v-1.5v-0.5v-1.5v-1.5c2.66699 -36 -2.5 -67.833 -15.5 -95.5s-33.167 -51.167 -60.5 -70.5c-28 -20 -62.5 -34.833 -103.5 -44.5s-89.167 -14.5 -144.5 -14.5l-189 1
c-27.333 -0.666992 -51.833 -2.66699 -73.5 -6s-40.167 -8.66602 -55.5 -15.999c-15.333 -6.66699 -26.833 -16.834 -34.5 -30.501s-11.5 -30.5 -11.5 -50.5v1v0zM61 126.995h245v-127h-245v127v0v0z" />
    <glyph glyph-name="at" unicode="@" horiz-adv-x="1500" 
d="M891 342c-4 16.667 -10.8271 30.668 -20.4941 42.001s-22.834 20.333 -39.501 27s-33.834 10.5 -51.501 11.5s-36.167 -0.5 -55.5 -4.5c-15.333 -3.33301 -30.5 -8.5 -45.5 -15.5s-29.167 -16.167 -42.5 -27.5c-14.667 -10.667 -27.167 -23.5 -37.5 -38.5
s-18.833 -31.5 -25.5 -49.5c-13.333 -33.333 -19 -61.5 -17 -84.5s12 -40.833 30 -53.5c17.333 -12.667 36.166 -20.834 56.499 -24.501s42.5 -3.16699 66.5 1.5c15.333 3.33301 30.166 8 44.499 14s28.166 13.667 41.499 23s24.666 20 33.999 32s17 25.333 23 40l39 107v0
v0zM855.006 133.001c-12.667 -12.667 -26.5049 -23.8359 -41.5049 -33.5029s-31.167 -18.167 -48.5 -25.5c-17.333 -6.66699 -36.166 -12 -56.499 -16s-42.166 -6 -65.499 -6c-44 -0.666992 -82.167 3.33301 -114.5 12s-58.166 21.667 -77.499 39
c-20 17.333 -34.167 37.333 -42.5 60s-11.166 48.334 -8.49902 77.001c4 30 13.833 58.833 29.5 86.5s37.5 54.167 65.5 79.5c27.333 25.333 59.833 45.166 97.5 59.499s80.5 22.833 128.5 25.5c22.667 1.33301 44 1.33301 64 0s38.333 -4.66602 55 -9.99902
c16.667 -4.66699 32.334 -11.334 47.001 -20.001s28 -19.334 40 -32.001l39 49h130l-108 -292c-6 -14.667 -6.66699 -26.5 -2 -35.5s14.334 -14.833 29.001 -17.5c15.333 -2.66699 31.333 -3 48 -1s34.334 6.33301 53.001 13c5.33301 1.33301 10.166 2.83301 14.499 4.5
s8.83301 3.5 13.5 5.5c2.66699 1.33301 5.16699 2.5 7.5 3.5s4.5 2.16699 6.5 3.5s4.16699 2.5 6.5 3.5s4.5 2.16699 6.5 3.5c4.66699 2.66699 9.16699 5.5 13.5 8.5l12.5 8.5c16.667 12 31.167 25 43.5 39s22.833 29 31.5 45c9.33301 16 16.166 32 20.499 48
s6.5 32.333 6.5 49c0 5.33301 -0.166992 10.333 -0.5 15s-0.833008 9.66699 -1.5 15c-0.666992 4.66699 -1.66699 9.5 -3 14.5l-4 14.5c-2.66699 10 -6.66699 19.833 -12 29.5s-11 18.834 -17 27.501c-18 25.333 -40.5 47.333 -67.5 66s-58.5 34.334 -94.5 47.001
s-73 22.667 -111 30s-77 12 -117 14h-2h-2h-4h-4h-2.5c-1 0 -1.83301 0.333008 -2.5 1h-2.5h-2.5c-98.667 3.33301 -186.5 -3.83398 -263.5 -21.501s-143.167 -45.167 -198.5 -82.5c-55.333 -38 -98.666 -77.833 -129.999 -119.5s-50 -85.5 -56 -131.5
c-4 -26.667 -3.33301 -52.667 2 -78s14.666 -50.666 27.999 -75.999c13.333 -24.667 31.333 -47.334 54 -68.001s50 -39.667 82 -57c29.333 -14.667 60.5 -27.167 93.5 -37.5s67.5 -18.833 103.5 -25.5s72.333 -11.5 109 -14.5s73.667 -3.83301 111 -2.5
s74.166 4.33301 110.499 9s72.5 11 108.5 19s70.5 17.333 103.5 28s64.167 22.334 93.5 35.001l60 -55l-74 -31.5c-25.333 -10.333 -51.666 -19.833 -78.999 -28.5c-26.667 -9.33301 -54 -17.166 -82 -23.499s-56.667 -11.5 -86 -15.5c-6 -0.666992 -11.833 -1.5 -17.5 -2.5
s-11.5 -1.83301 -17.5 -2.5c-11.333 -1.33301 -22.833 -2.5 -34.5 -3.5s-23.5 -1.83301 -35.5 -2.5c-8.66699 -0.666992 -17.5 -1.16699 -26.5 -1.5s-17.833 -0.5 -26.5 -0.5h-27h-27c-46.667 0.666992 -92.667 3.83398 -138 9.50098s-90.333 14.167 -135 25.5
c-44 10.667 -85.167 24.167 -123.5 40.5s-73.5 35.5 -105.5 57.5c-29.333 18.667 -54.5 39 -75.5 61s-37.833 45.667 -50.5 71s-21.667 51.166 -27 77.499s-7.33301 52.833 -6 79.5c1.33301 24 5.5 48 12.5 72s17.167 47.667 30.5 71s29 45.666 47 66.999
s38.333 41.333 61 60c40 32 84.333 59.833 133 83.5s102 42.834 160 57.501c57.333 14.667 115.5 25 174.5 31s119.167 8 180.5 6c3.33301 0 6.5 -0.166992 9.5 -0.5s6.16699 -0.5 9.5 -0.5c3.33301 -0.666992 6.66602 -1 9.99902 -1h9c3.33301 0 6.5 -0.166992 9.5 -0.5
s6.16699 -0.5 9.5 -0.5c2.66699 -0.666992 5.66699 -1.16699 9 -1.5s6.33301 -0.5 9 -0.5c57.333 -5.33301 112.166 -15.5 164.499 -30.5s102.5 -34.5 150.5 -58.5c48 -24.667 86.333 -53.167 115 -85.5s48 -68.5 58 -108.5c0 -2.66699 0.166992 -5.16699 0.5 -7.5
s0.833008 -4.5 1.5 -6.5c0.666992 -2.66699 1.16699 -5.16699 1.5 -7.5s0.5 -4.83301 0.5 -7.5c0.666992 -2.66699 1.16699 -5.16699 1.5 -7.5s0.5 -4.5 0.5 -6.5c0.666992 -2.66699 1 -5.16699 1 -7.5v-7.5c0 -28 -4.66699 -55.5 -14 -82.5s-23.666 -53.5 -42.999 -79.5
s-42.833 -49.333 -70.5 -70s-60.167 -38.667 -97.5 -54c-10.667 -4.66699 -22.5 -9.16699 -35.5 -13.5s-26.5 -8.16602 -40.5 -11.499c-7.33301 -2 -14.666 -3.66699 -21.999 -5s-14.666 -2.33301 -21.999 -3c-8 -1.33301 -15.667 -2.33301 -23 -3l-22 -2
c-3.33301 0 -7 -0.166992 -11 -0.5s-7.66699 -0.833008 -11 -1.5h-22c-7.33301 0 -14.666 0.333008 -21.999 1c-10.667 1.33301 -21.167 3 -31.5 5s-20.166 4.33301 -29.499 7c-11.333 3.33301 -20.833 7.5 -28.5 12.5s-13.834 10.5 -18.501 16.5
s-8.33398 12.333 -11.001 19s-4.33398 14 -5.00098 22v1v0z" />
    <glyph glyph-name="A" unicode="A" horiz-adv-x="1083" 
d="M420 718h240l459 -718h-252l-99 171h-468l-96 -171h-238l454 718v0v0zM531 575l-158 -276h321l-163 276v0v0z" />
    <glyph glyph-name="B" unicode="B" horiz-adv-x="1132" 
d="M703 0l-591.999 0.000976562v718h553c4.66699 -0.666992 9.16699 -1 13.5 -1h13.5h6.5h7.5c2 -0.666992 4.16699 -1 6.5 -1h6.5c37.333 -0.666992 73.166 -3.5 107.499 -8.5s67.5 -11.5 99.5 -19.5c32.667 -8.66699 59.5 -22.167 80.5 -40.5s36.833 -41.5 47.5 -69.5
c8 -26 10.833 -49.833 8.5 -71.5s-10.166 -41.167 -23.499 -58.5s-31.333 -33.5 -54 -48.5s-50.334 -28.833 -83.001 -41.5c36 -11.333 66 -24.333 90 -39s42 -31 54 -49s18.833 -38.167 20.5 -60.5s-1.5 -46.833 -9.5 -73.5c-8.66699 -27.333 -23.5 -50 -44.5 -68
s-47.167 -31.667 -78.5 -41c-31.333 -8.66699 -64 -15.334 -98 -20.001s-69 -7 -105 -7h-5.5h-4.5h-2.5h-2.5h-2h-2h-4h-4v0v0zM672.001 127.001c21.333 -0.666992 41 0.333008 59 3s33.667 7 47 13s23.666 14.667 30.999 26s11 25 11 41s-3.66699 29.667 -11 41
s-17.666 20 -30.999 26s-29 10.5 -47 13.5s-37.667 4.5 -59 4.5l-335 1v-169h335v0v0zM337.001 589.001l0.000976562 -166h332c21.333 -0.666992 40.833 0.333008 58.5 3s33.5 7 47.5 13c13.333 6 23.666 14.5 30.999 25.5s11 24.5 11 40.5c0 15.333 -3.33301 28.5 -10 39.5
s-17.334 19.5 -32.001 25.5s-30.667 10.5 -48 13.5s-36.666 4.5 -57.999 4.5l-332 1v0v0z" />
    <glyph glyph-name="C" unicode="C" horiz-adv-x="982" 
d="M555 595c-54.667 -0.666992 -99.665 -7.00488 -134.998 -19.0049s-61 -29.667 -77 -53c-16.667 -24 -29.167 -49.667 -37.5 -77s-13.166 -56.666 -14.499 -87.999v-16.5v-16.5v-16.5c0 -5.66699 0.333008 -11.167 1 -16.5c1.33301 -12 3.66602 -23.667 6.99902 -35
s7.66602 -22.666 12.999 -33.999c4.66699 -10.667 11 -21 19 -31s18 -19.333 30 -28s24.833 -16 38.5 -22s28.5 -10 44.5 -12c15.333 -2 31.166 -3.5 47.499 -4.5s32.833 -1.5 49.5 -1.5h1h1h2h2h2h2h2h2l372 1v-125h-383c-30.667 0 -60.667 0.833008 -90 2.5
s-58.333 4.5 -87 8.5c-28.667 3.33301 -56 9.33301 -82 18s-51.667 19.667 -77 33c-30 16 -55.5 34 -76.5 54s-37.5 41.667 -49.5 65s-21.167 47.166 -27.5 71.499s-10.166 48.833 -11.499 73.5c0 2.66699 -0.166992 5.33398 -0.5 8.00098s-0.5 5.33398 -0.5 8.00098v7v8
c0 5.33301 0.333008 10.5 1 15.5l2 14.5c5.33301 56.667 19.5 105.834 42.5 147.501s54.833 75.834 95.5 102.501s91.667 46.667 153 60s132.666 20 213.999 20l377 1v-123h-372v0v0z" />
    <glyph glyph-name="D" unicode="D" horiz-adv-x="1156" 
d="M111 718l492.998 0.000976562c82 -0.666992 153.667 -7.66699 215 -21s112.333 -33.333 153 -60s72.334 -60.834 95.001 -102.501s37 -90.834 43 -147.501v-7.5c0 -2.33301 0.333008 -4.83301 1 -7.5v-7.5v-7.5v-8v-7v-8v-8
c-1.33301 -24.667 -5.16602 -49.167 -11.499 -73.5s-15.5 -48.166 -27.5 -71.499s-28.5 -45 -49.5 -65s-46.5 -38 -76.5 -54c-24.667 -13.333 -50.167 -24.333 -76.5 -33s-53.833 -14.667 -82.5 -18c-28.667 -4 -57.5 -6.83301 -86.5 -8.5s-59.167 -2.5 -90.5 -2.5h-499v718
v0v0zM599.998 593.001l-262.999 0.00195312v-468h263c0.666992 -0.666992 1.5 -1 2.5 -1h3.5h2h2h1h2c16.667 0 33 0.5 49 1.5s31.667 2.5 47 4.5c16 2 31 6 45 12s27 13.333 39 22c12 9.33301 22.167 19.166 30.5 29.499s14.833 21.5 19.5 33.5
c4.66699 11.333 8.66699 23 12 35s5.66602 24 6.99902 36c0 2.66699 0.166992 5.16699 0.5 7.5s0.5 4.83301 0.5 7.5s0.166992 5.16699 0.5 7.5s0.5 4.83301 0.5 7.5v15.5v14.5v15.5v15.5c0 4 -0.166992 7.66699 -0.5 11s-0.833008 7 -1.5 11
c0 2 -0.166992 3.83301 -0.5 5.5s-0.5 3.5 -0.5 5.5c-1.33301 11.333 -3.5 22.833 -6.5 34.5s-6.83301 23.167 -11.5 34.5s-11.167 22 -19.5 32s-18.5 19.333 -30.5 28c-12 9.33301 -25 16.666 -39 21.999s-29 9.33301 -45 12c-15.333 2 -31 3.66699 -47 5s-32.333 2 -49 2
h-2h-1h-2h-2h-3.5h-2.5v1v0z" />
    <glyph glyph-name="E" unicode="E" horiz-adv-x="1014" 
d="M555 593c-42 -0.666992 -78.499 -4.6709 -109.499 -12.0039s-56.5 -18.333 -76.5 -33c-20.667 -14.667 -36.834 -32.167 -48.501 -52.5s-18.5 -43.833 -20.5 -70.5l627 1v-125h-629c0 -12.667 0.833008 -25.167 2.5 -37.5s4.83398 -24.166 9.50098 -35.499
c4.66699 -12 11.334 -23.333 20.001 -34s19.667 -20.667 33 -30c11.333 -8.66699 23.666 -16 36.999 -22s28 -10 44 -12c15.333 -2 31.166 -3.5 47.499 -4.5s32.833 -1.5 49.5 -1.5h1h1h2h2h2h2h2h2l372 1v-125h-383c-30.667 0 -60.667 0.833008 -90 2.5
s-58.333 4.5 -87 8.5c-28.667 3.33301 -56 9.33301 -82 18s-51.667 19.667 -77 33c-30 16 -55.5 34 -76.5 54s-37.5 41.667 -49.5 65s-21.167 47.166 -27.5 71.499s-10.166 48.833 -11.499 73.5c0 2.66699 -0.166992 5.33398 -0.5 8.00098s-0.5 5.33398 -0.5 8.00098v7v8
c0 5.33301 0.333008 10.5 1 15.5l2 14.5c5.33301 56.667 19.5 105.834 42.5 147.501s54.833 75.834 95.5 102.501s91.667 46.667 153 60s132.666 20 213.999 20l377 1v-125h-372v0v0z" />
    <glyph glyph-name="F" unicode="F" horiz-adv-x="1017" 
d="M103 330c0 69.333 8.16797 128.669 24.501 178.002s40.833 89 73.5 119c33.333 30 86 52.5 158 67.5s163.333 22.5 274 22.5l345 1v-125h-365c-48 -0.666992 -89.333 -4.33398 -124 -11.001s-63.334 -16.667 -86.001 -30c-22.667 -12.667 -40 -30.334 -52 -53.001
s-19 -50 -21 -82l648 1v-124h-648v-294h-227v330v0v0z" />
    <glyph glyph-name="G" unicode="G" horiz-adv-x="1113" 
d="M502 299v126.995h536v-426h-488c-31.333 0 -62 0.833008 -92 2.5s-59.333 4.16699 -88 7.5s-56.5 9.33301 -83.5 18s-53.167 20 -78.5 34c-30 16 -55.5 34 -76.5 54s-37.5 41.667 -49.5 65s-21.167 47.166 -27.5 71.499s-10.166 48.833 -11.499 73.5
c0 2.66699 -0.166992 5.33398 -0.5 8.00098s-0.5 5.33398 -0.5 8.00098v7v8c0 5.33301 0.333008 10.5 1 15.5l2 14.5c5.33301 56.667 19.5 105.834 42.5 147.501s54.833 75.834 95.5 102.501s91.667 46.667 153 60s132.666 20 213.999 20l488 1v-124h-488
c-54 -0.666992 -98.333 -7.16699 -133 -19.5s-59.667 -31.166 -75 -56.499c-16 -24.667 -27.833 -50.667 -35.5 -78s-11.5 -55.666 -11.5 -84.999v-1.5v-0.5v0v0v-1v0c0 -30.667 3.83301 -59 11.5 -85s19.5 -50 35.5 -72c15.333 -22 40.333 -38.5 75 -49.5
s79 -16.5 133 -16.5l255 1v169h-303v0v0z" />
    <glyph glyph-name="H" unicode="H" horiz-adv-x="1090" 
d="M337 718v-291h416v291h226v-718h-226v300h-416v-300h-226v718h226v0v0z" />
    <glyph glyph-name="I" unicode="I" horiz-adv-x="462" 
d="M349 0h-237v718h237v-718v0v0z" />
    <glyph glyph-name="J" unicode="J" horiz-adv-x="837" 
d="M-4 119l264.994 0.00195312c56 -0.666992 101.333 3.5 136 12.5s58.334 22.5 71.001 40.5s22.334 39.5 29.001 64.5s10 53.833 10 86.5v395h235v-427v-6v-6c-0.666992 -2 -1 -3.83301 -1 -5.5v-5.5v-10.5v-10.5c-1.33301 -16 -4.16602 -31.5 -8.49902 -46.5
s-10.166 -30.167 -17.499 -45.5c-7.33301 -14.667 -16.666 -28.834 -27.999 -42.501s-25 -26.5 -41 -38.5c-22.667 -16.667 -47 -30.334 -73 -41.001s-54 -18 -84 -22s-60.167 -6.83301 -90.5 -8.5s-61.166 -2.5 -92.499 -2.5h-4.5h-4.5h-3.5h-2.5h-295v119v0v0z" />
    <glyph glyph-name="K" unicode="K" horiz-adv-x="1006" 
d="M111 718h226v-345l425 345h271l-432 -351l437 -367h-290l-411 357v-357h-226v718v0v0z" />
    <glyph glyph-name="L" unicode="L" horiz-adv-x="834" 
d="M538 0c-34.667 0 -67.832 0.832031 -99.499 2.49902s-62.5 4.16699 -92.5 7.5s-58.5 10.333 -85.5 21s-52.833 25 -77.5 43c-22 15.333 -39.667 31.333 -53 48s-22.666 34.334 -27.999 53.001c-6 18.667 -10.333 37.5 -13 56.5s-4 38.5 -4 58.5v428h227v-394
c-0.666992 -33.333 1.66602 -62.833 6.99902 -88.5s14 -47.167 26 -64.5c11.333 -18 34.666 -31.333 69.999 -40s83 -13 143 -13l267 1v-119h-287v0v0z" />
    <glyph glyph-name="M" unicode="M" horiz-adv-x="1435" 
d="M111 718h333l274 -551l275 551h331v-718h-222l18 559l-276 -559h-240l-285 565l23 -565h-231v718v0v0z" />
    <glyph glyph-name="N" unicode="N" horiz-adv-x="1167" 
d="M111 718h286l441 -516l-10 516h231v-718h-263l-463 543l10 -543h-232v718v0v0z" />
    <glyph glyph-name="O" unicode="O" horiz-adv-x="1159" 
d="M306 467c-2 -4.66699 -3.83301 -9.33594 -5.5 -14.0029s-2.83398 -9 -3.50098 -13c-1.33301 -4.66699 -2.5 -9.33398 -3.5 -14.001s-1.83301 -9.33398 -2.5 -14.001c-1.33301 -8.66699 -2.5 -17.5 -3.5 -26.5s-1.5 -18.167 -1.5 -27.5s0.5 -18.666 1.5 -27.999
s2.16699 -18.666 3.5 -27.999c1.33301 -8.66699 3.5 -17.5 6.5 -26.5l8.5 -26.5c5.33301 -15.333 12.5 -29.666 21.5 -42.999s19.833 -25.666 32.5 -36.999s28 -21.166 46 -29.499s38.667 -15.166 62 -20.499c8 -2 16.5 -3.66699 25.5 -5s18.5 -2.66602 28.5 -3.99902l28 -2
c9.33301 -0.666992 19 -1 29 -1c9.33301 0 18.666 0.333008 27.999 1l29 2l27.5 4c9 1.33301 17.833 3 26.5 5c22.667 5.33301 43 12.166 61 20.499s33.667 18.166 47 29.499c12.667 11.333 23.5 23.666 32.5 36.999s16.167 27.666 21.5 42.999
c3.33301 8.66699 6 17.5 8 26.5s3.66699 17.833 5 26.5l4 28c1.33301 9.33301 2 18.666 2 27.999s-0.666992 18.5 -2 27.5l-4 26.5c-1.33301 9.33301 -3 18.5 -5 27.5s-4.66699 17.833 -8 26.5c-5.33301 15.333 -12.5 29.666 -21.5 42.999s-19.833 25.666 -32.5 36.999
c-13.333 11.333 -29 21.333 -47 30s-38.333 15.334 -61 20.001c-8.66699 2 -17.5 3.83301 -26.5 5.5s-18.167 2.83398 -27.5 3.50098c-10 1.33301 -19.667 2.16602 -29 2.49902s-18.666 0.5 -27.999 0.5c-10 0 -19.667 -0.166992 -29 -0.5
s-18.666 -1.16602 -27.999 -2.49902c-10 -0.666992 -19.5 -1.83398 -28.5 -3.50098s-17.5 -3.5 -25.5 -5.5c-23.333 -5.33301 -44 -12.166 -62 -20.499s-33 -18.166 -45 -29.499c-12.667 -11.333 -23.5 -23.666 -32.5 -36.999s-16.5 -27.666 -22.5 -42.999v1v0zM72 517.998
c12.667 26 28.5049 49.667 47.5049 71s41.167 40.333 66.5 57s54.666 31 87.999 43s70.333 21.333 111 28l45.5 6c15 2 30.833 3.66699 47.5 5c5.33301 0.666992 10.666 1 15.999 1s10.666 0.333008 15.999 1c10.667 0.666992 21.334 1.16699 32.001 1.5
s21.334 0.5 32.001 0.5c16.667 0 33.667 -0.166992 51 -0.5s35 -1.16602 53 -2.49902c17.333 -1.33301 34.166 -3 50.499 -5s32.833 -4.66699 49.5 -8c40 -6.66699 76.5 -15.834 109.5 -27.501s62.167 -25.834 87.5 -42.501s47.333 -35.834 66 -57.501s34 -45.5 46 -71.5
c4.66699 -12 9 -24.333 13 -37s7.33301 -25.667 10 -39c3.33301 -13.333 5.66602 -26.666 6.99902 -39.999s2 -26.666 2 -39.999c0 -14.667 -0.666992 -29 -2 -43s-3.33301 -27.667 -6 -41c-2.66699 -14 -6 -27.5 -10 -40.5s-8.66699 -25.5 -14 -37.5
c-12 -26.667 -27.667 -51 -47 -73s-41.666 -41.333 -66.999 -58c-26 -16.667 -55.833 -30.667 -89.5 -42s-70.834 -20 -111.501 -26l-49.5 -6c-16.333 -2 -32.833 -3.33301 -49.5 -4c-8.66699 -0.666992 -17.334 -1.16699 -26.001 -1.5s-17 -0.833008 -25 -1.5
c-8.66699 0 -17.334 -0.166992 -26.001 -0.5s-17.334 -0.5 -26.001 -0.5c-16 0 -31.667 0.333008 -47 1s-30.666 1.66699 -45.999 3c-16 1.33301 -31.5 3 -46.5 5s-30.167 3.66699 -45.5 5c-40.667 6 -77.667 14.667 -111 26s-62.666 25.333 -87.999 42
c-26.667 16.667 -49.334 36 -68.001 58s-34 46.333 -46 73c-5.33301 11.333 -9.83301 23.333 -13.5 36s-7.16699 26 -10.5 40c-2.66699 13.333 -4.66699 27 -6 41s-2 28 -2 42c0 7.33301 0.166992 14.333 0.5 21s0.833008 13.667 1.5 21c0.666992 6.66699 1.5 13.5 2.5 20.5
s2.16699 13.833 3.5 20.5c2 14 5 27.333 9 40s9 24.667 15 36v1v0z" />
    <glyph glyph-name="P" unicode="P" horiz-adv-x="1113" 
d="M600 590h-262.997v-212h276c27.333 0 52.833 1.83301 76.5 5.5s45.834 8.83398 66.501 15.501c19.333 7.33301 34.166 18 44.499 32s15.5 31.333 15.5 52c0.666992 23.333 -4.33301 42.166 -15 56.499s-27.334 24.5 -50.001 30.5s-46.334 10.667 -71.001 14
s-51.334 5 -80.001 5v1v0zM111.003 718l491.996 0.00292969c0 -0.666992 0.333008 -1 1 -1h2h0.5h1.5h1.5h0.5h18.5h19.5h9.5h9.5c6 0 12.167 -0.166992 18.5 -0.5s12.833 -0.5 19.5 -0.5c3.33301 0 6.5 -0.166992 9.5 -0.5s6.16699 -0.5 9.5 -0.5l25 -2l26 -2
c8 -0.666992 16.333 -1.5 25 -2.5s17 -2.16699 25 -3.5c16.667 -2.66699 32.834 -6 48.501 -10s30.834 -8.66699 45.501 -14c26.667 -10.667 49.334 -23 68.001 -37s33.667 -30 45 -48s20 -36.5 26 -55.5s9.33301 -38.167 10 -57.5c0 -18 -2.33301 -35.667 -7 -53
s-12 -34.333 -22 -51c-9.33301 -16.667 -22 -31.834 -38 -45.501s-35.333 -26.167 -58 -37.5c-19.333 -8.66699 -39.166 -16 -59.499 -22s-41.833 -10.667 -64.5 -14c-22.667 -2.66699 -45.167 -4.83398 -67.5 -6.50098s-44.833 -2.83398 -67.5 -3.50098h-18h-18h-18h-18
l-275 1v-251h-226v718v0v0z" />
    <glyph glyph-name="Q" unicode="Q" horiz-adv-x="1159" 
d="M792 164c13.333 9.33301 25.002 20.833 35.002 34.5s18.333 29.5 25 47.5c6 18 10.667 36.333 14 55s5 37.667 5 57s-1.66699 38.166 -5 56.499s-8.66602 36.5 -15.999 54.5c-6.66699 18 -14.834 34 -24.501 48s-20.834 26 -33.501 36
c-12.667 9.33301 -26.834 17.5 -42.501 24.5s-33.167 12.833 -52.5 17.5s-38.833 8.16699 -58.5 10.5s-39.167 3.5 -58.5 3.5c-20.667 0 -40.834 -1.16699 -60.501 -3.5s-38.834 -5.83301 -57.501 -10.5c-19.333 -4.66699 -37 -10.5 -53 -17.5s-30 -15.167 -42 -24.5
c-13.333 -10 -24.833 -22 -34.5 -36s-18.167 -30 -25.5 -48c-6.66699 -18 -11.5 -36.167 -14.5 -54.5s-4.5 -37.166 -4.5 -56.499s1.5 -38.333 4.5 -57s7.83301 -37 14.5 -55c6 -18 14.167 -33.833 24.5 -47.5s22.166 -25.5 35.499 -35.5c12 -9.33301 26 -17.5 42 -24.5
s33.667 -13.167 53 -18.5c18.667 -4.66699 37.834 -8.16699 57.501 -10.5s39.834 -3.5 60.501 -3.5c19.333 0 38.833 1.16699 58.5 3.5s39.167 5.83301 58.5 10.5c19.333 5.33301 36.833 11.5 52.5 18.5s29.834 15.167 42.501 24.5v1v0zM879.002 25
c-12.667 -4 -24.9971 -7.50391 -36.9971 -10.5039s-23.667 -5.5 -35 -7.5c-11.333 -2.66699 -22.5 -4.66699 -33.5 -6l-32.5 -4c-10 -1.33301 -20.167 -2.5 -30.5 -3.5s-20.833 -2.16699 -31.5 -3.5c-5.33301 0 -10.5 -0.333008 -15.5 -1s-10.167 -1 -15.5 -1
c-16 -0.666992 -32.667 -1 -50 -1s-35.666 0.333008 -54.999 1h-8.5h-8.5c-2.66699 0.666992 -5.33398 1 -8.00098 1h-8c-6 0.666992 -11.667 1.16699 -17 1.5s-10.666 0.5 -15.999 0.5c-32.667 2.66699 -64.334 6.33398 -95.001 11.001s-61 11 -91 19
s-57.5 18.667 -82.5 32s-47.167 29 -66.5 47c-16.667 16 -31.5 34.167 -44.5 54.5s-24.167 42.833 -33.5 67.5c-8.66699 24 -15.167 48.5 -19.5 73.5s-5.83301 50.5 -4.5 76.5c1.33301 33.333 6.66602 65.5 15.999 96.5s23 61.5 41 91.5c18 29.333 41.667 54.833 71 76.5
s63.333 38.834 102 51.501c21.333 7.33301 43.166 13.5 65.499 18.5s45.5 9.16699 69.5 12.5s48 6 72 8s48 3.33301 72 4h41c14 0 28.333 -0.333008 43 -1c6.66699 -0.666992 13.5 -1.16699 20.5 -1.5s13.833 -0.833008 20.5 -1.5s13.5 -1.16699 20.5 -1.5
s13.833 -0.833008 20.5 -1.5c43.333 -4.66699 83.166 -11.667 119.499 -21s69.5 -21 99.5 -35s56.667 -31.333 80 -52s42.666 -44.667 57.999 -72c7.33301 -12.667 13.833 -26.167 19.5 -40.5s10.167 -29.166 13.5 -44.499c2 -7.33301 3.83301 -14.833 5.5 -22.5
s2.83398 -15.167 3.50098 -22.5c1.33301 -8 2.33301 -15.833 3 -23.5l2 -22.5c0 -14.667 -0.666992 -29.5 -2 -44.5s-3.33301 -29.5 -6 -43.5c-2.66699 -14.667 -6 -28.667 -10 -42s-8.66699 -26.333 -14 -39c-3.33301 -8.66699 -7.33301 -17 -12 -25
s-9.66699 -15.667 -15 -23l-18 -22c-6 -7.33301 -12.333 -14.666 -19 -21.999l163 -107h-271l-36 25v0v0z" />
    <glyph glyph-name="R" unicode="R" horiz-adv-x="1125" 
d="M111 718l557.999 -0.00195312c2.66699 0 5.33398 -0.166992 8.00098 -0.5s5.33398 -0.5 8.00098 -0.5h7h8h5.5h5.5h2.5h2.5c2.66699 -0.666992 5.5 -1 8.5 -1h8.5c20.667 -0.666992 41 -2.16699 61 -4.5s39.667 -5.16602 59 -8.49902c19.333 -4 38 -9.33301 56 -16
s34.333 -15 49 -25c13.333 -8.66699 25 -18.167 35 -28.5s18.333 -21.166 25 -32.499c7.33301 -12 13.166 -24 17.499 -36s7.16602 -24 8.49902 -36v-7.5v-6.5v-4c0 -1.33301 0.333008 -2.33301 1 -3v-3.5v-3.5c0 -24.667 -4.16699 -48 -12.5 -70s-21.5 -42 -39.5 -60
s-40.667 -33 -68 -45s-59.666 -21 -96.999 -27l268 -299h-255l-237 282h-267v-282h-226v718v0v0zM614.999 589.998l-278.001 -0.00195312v-181h278c0.666992 -0.666992 1.5 -1 2.5 -1h3.5h2.5h3.5c24 0 46.833 1.16699 68.5 3.5s42.167 5.83301 61.5 10.5
c19.333 5.33301 34 14.333 44 27s15 29.334 15 50.001c0 21.333 -5.16699 38.333 -15.5 51s-26.166 21.334 -47.499 26.001c-20.667 4 -42.5 7.16699 -65.5 9.5s-47.167 3.5 -72.5 3.5v1v0z" />
    <glyph glyph-name="S" unicode="S" horiz-adv-x="1132" 
d="M1021 590l-559.003 -0.00195312c-24.667 -0.666992 -47.5 -2.66699 -68.5 -6s-39.833 -8.33301 -56.5 -15s-29 -16.167 -37 -28.5s-12 -27.5 -12 -45.5c0 -14 3.33301 -26 10 -36s17.334 -18 32.001 -24c14 -6 29.333 -10.5 46 -13.5s34.667 -4.5 54 -4.5l300 1
c5.33301 -0.666992 11 -1 17 -1h18h9.5h8.5c3.33301 -0.666992 6.5 -1 9.5 -1h8.5l26 -2l26 -2l25 -4l26 -4c16.667 -2.66699 32.5 -7 47.5 -13s29.167 -13 42.5 -21c12 -7.33301 22.5 -15.5 31.5 -24.5s16.5 -18.5 22.5 -28.5c6 -10.667 11 -21.167 15 -31.5
s6.66699 -21.166 8 -32.499v-5.5c0 -1.66699 0.333008 -3.16699 1 -4.5v-5.5v-4.5c0 -1.33301 0.166992 -2.83301 0.5 -4.5s0.5 -3.16699 0.5 -4.5c0 -2 0.166992 -3.83301 0.5 -5.5s0.5 -3.16699 0.5 -4.5c-1.33301 -42 -10.666 -77 -27.999 -105
s-42.666 -49.667 -75.999 -65c-33.333 -14.667 -72.833 -25.667 -118.5 -33s-97.167 -11 -154.5 -11h-603v128h567c25.333 -0.666992 48.666 0.333008 69.999 3s41 7 59 13c18 5.33301 30.833 14.5 38.5 27.5s9.83398 29.5 6.50098 49.5
c-2.66699 15.333 -8.16699 27.833 -16.5 37.5s-20.166 16.5 -35.499 20.5c-14.667 3.33301 -31 6 -49 8s-37.333 3.33301 -58 4l-267 1c-55.333 -0.666992 -105 2.83301 -149 10.5s-82.333 18.834 -115 33.501c-32 15.333 -55.833 36.666 -71.5 63.999s-23.167 61 -22.5 101
c0.666992 41.333 9.66699 76.333 27 105s42.666 50.334 75.999 65.001c34 15.333 73.833 26.833 119.5 34.5s97.5 11.5 155.5 11.5l592 1v-128v0v0z" />
    <glyph glyph-name="T" unicode="T" horiz-adv-x="928" 
d="M346 592h-346v125h930v-125h-350v-592h-234v592v0v0z" />
    <glyph glyph-name="U" unicode="U" horiz-adv-x="1152" 
d="M333 718v-430.001c0 -30.667 3.83301 -57.167 11.5 -79.5s19.834 -41.166 36.501 -56.499c15.333 -14.667 39.333 -25.834 72 -33.501s73.667 -11.5 123 -11.5c48.667 0 89.167 3.83301 121.5 11.5s56.166 18.834 71.499 33.501c16 15.333 28 34.166 36 56.499
s12 48.5 12 78.5v431h227v-434v-13.5v-12.5c0 -2 -0.166992 -4.16699 -0.5 -6.5s-0.5 -4.5 -0.5 -6.5s-0.166992 -4 -0.5 -6s-0.5 -4 -0.5 -6c-0.666992 -12.667 -2.16699 -25.334 -4.5 -38.001s-5.83301 -25 -10.5 -37s-10.667 -23.667 -18 -35
s-16.666 -22.333 -27.999 -33c-16.667 -14.667 -35.334 -27.334 -56.001 -38.001s-43.667 -19.667 -69 -27c-25.333 -6.66699 -50.833 -12.334 -76.5 -17.001s-52.167 -7.66699 -79.5 -9c-10.667 -1.33301 -21.167 -2.16602 -31.5 -2.49902s-20.833 -0.833008 -31.5 -1.5
h-16c-5.33301 0 -10.333 -0.333008 -15 -1h-15.5h-14.5h-10h-10h-4.5h-5.5c-4.66699 0.666992 -9.5 1 -14.5 1h-15.5c-5.33301 0 -10.5 0.166992 -15.5 0.5s-10.167 0.833008 -15.5 1.5c-5.33301 0 -10.5 0.166992 -15.5 0.5s-10.167 0.833008 -15.5 1.5
c-27.333 0.666992 -54.333 3.33398 -81 8.00098s-52.667 10.334 -78 17.001c-25.333 7.33301 -48.5 16.5 -69.5 27.5s-39.833 23.833 -56.5 38.5c-12 10.667 -21.833 21.667 -29.5 33s-13.167 23 -16.5 35c-4.66699 12 -8.16699 24.333 -10.5 37s-3.5 25.334 -3.5 38.001
c-0.666992 4 -1 8 -1 12v13v6v7v6v6v435h225v0v0z" />
    <glyph glyph-name="V" unicode="V" horiz-adv-x="1051" 
d="M421 0l-467 718h254l324 -535l332 535h241l-450 -718h-234v0v0z" />
    <glyph glyph-name="W" unicode="W" horiz-adv-x="1659" 
d="M-9 718h241l249 -552l210 552h267l242 -552l232 552h233l-333 -718h-278l-229 536l-201 -536h-276l-357 718v0v0z" />
    <glyph glyph-name="X" unicode="X" horiz-adv-x="969" 
d="M354 359l-363 359h264l222 -227l220 227h261l-346 -349l372 -369h-272l-226 250l-240 -250h-267l375 359v0v0z" />
    <glyph glyph-name="Y" unicode="Y" horiz-adv-x="930" 
d="M-60 718h253l266 -274l270 274h262l-415 -401v-317h-227v317l-409 401v0v0z" />
    <glyph glyph-name="Z" unicode="Z" horiz-adv-x="1101" 
d="M994 590l-606 -463h606v-127h-909v127l615 463h-615v128h909v-128v0v0z" />
    <glyph glyph-name="bracketleft" unicode="[" horiz-adv-x="520" 
d="M115 718h368v-112h-186v-621h186v-112h-368v845v0v0z" />
    <glyph glyph-name="backslash" unicode="\" horiz-adv-x="628" 
d="M-6 727h112l530 -818h-111l-531 818v0v0z" />
    <glyph glyph-name="bracketright" unicode="]" horiz-adv-x="520" 
d="M405 718v-845h-368v112h188v621h-188v112h368v0v0z" />
    <glyph glyph-name="asciicircum" unicode="^" horiz-adv-x="1500" 
d="M657 713h184l353 -274h-173l-271 181l-273 -181h-173l353 274v0v0z" />
    <glyph glyph-name="underscore" unicode="_" horiz-adv-x="750" 
d="M0 -135h750v-100h-750v100v0v0z" />
    <glyph glyph-name="grave" unicode="`" horiz-adv-x="297" 
d="M58 718h178.997v-125h-83v-94c-7.33301 3.33301 -14 6.83301 -20 10.5s-11.333 7.5 -16 11.5c-2.66699 2 -5.16699 4 -7.5 6s-4.5 4 -6.5 6c-2 1.33301 -4 3 -6 5s-3.66699 4 -5 6c-10 10 -17.667 20.167 -23 30.5s-8.66602 20.833 -9.99902 31.5
s-2.16602 22.167 -2.49902 34.5s-0.166016 25.5 0.500977 39.5v9.5v8.5v9.5v9.5v1v0z" />
    <glyph glyph-name="a" unicode="a" horiz-adv-x="952" 
d="M106 527l428.001 0.000976562c22.667 -0.666992 45.167 -1.83398 67.5 -3.50098s43.833 -4.16699 64.5 -7.5c21.333 -2.66699 41.666 -7.66699 60.999 -15s37.333 -16.666 54 -27.999c14.667 -9.33301 26.834 -19.5 36.501 -30.5s17.5 -22.833 23.5 -35.5
s10.5 -25.5 13.5 -38.5s4.5 -26.167 4.5 -39.5v-329h-561c-40.667 0 -76.5 3.66699 -107.5 11s-57.167 18.333 -78.5 33c-21.333 15.333 -37 33.166 -47 53.499s-13.667 43.833 -11 70.5c3.33301 31.333 13.333 57.333 30 78s40 35.667 70 45s62.833 16.333 98.5 21
s74.5 7 116.5 7l274 1c1.33301 21.333 -2.33398 38.833 -11.001 52.5s-22 23.167 -40 28.5s-38.5 9.33301 -61.5 12s-48.5 4 -76.5 4l-348 1v109v0v0zM384.001 106.001l261 0.00195312v109h-246c-1.33301 -0.666992 -2.5 -1 -3.5 -1h-2.5h-3.5h-2.5
c-14.667 -0.666992 -28.334 -1.83398 -41.001 -3.50098s-25 -4.16699 -37 -7.5c-12 -2.66699 -21.333 -7.83398 -28 -15.501s-10 -17.167 -10 -28.5c-1.33301 -12.667 0.666992 -23 6 -31s14 -13 26 -15c12 -2.66699 24.833 -4.66699 38.5 -6s27.834 -2 42.501 -2v1v0z" />
    <glyph glyph-name="b" unicode="b" horiz-adv-x="916" 
d="M427 413h-127.003v-300c4.66699 -0.666992 9.5 -1.16699 14.5 -1.5s10.167 -0.5 15.5 -0.5h8h8h7h8c34.667 -0.666992 68.167 -0.166992 100.5 1.5s63.5 4.83398 93.5 9.50098c30 4 53.333 14.667 70 32s27.334 41 32.001 71v6c0 2 0.333008 4 1 6v6v6
c0 2 0.166992 4 0.5 6s0.5 4.33301 0.5 7c0 2 0.166992 4 0.5 6s0.5 4 0.5 6l-2 10.5l-2 11.5l-2 10.5c-0.666992 3.66699 -1.66699 7.16699 -3 10.5c-2.66699 7.33301 -6 14.166 -10 20.499s-8.66699 12.5 -14 18.5c-11.333 13.333 -24.166 24 -38.499 32
s-30.166 13.333 -47.499 16c-16.667 2.66699 -34.5 4.66699 -53.5 6s-39.167 2 -60.5 2v1v0zM299.997 718v-191.002h180c30 -0.666992 59.5 -2.16699 88.5 -4.5s56.833 -6.16602 83.5 -11.499c27.333 -4.66699 52.666 -12.5 75.999 -23.5s45 -25.167 65 -42.5
c16.667 -14 30.667 -28.667 42 -44s20.333 -31.666 27 -48.999c6 -16.667 10.333 -33.667 13 -51s3.33398 -34.666 2.00098 -51.999c-2.66699 -38.667 -13 -73.334 -31 -104.001s-43.667 -57 -77 -79c-32.667 -22 -72.167 -38.5 -118.5 -49.5s-98.833 -16.5 -157.5 -16.5
h-402v718h209v0v0z" />
    <glyph glyph-name="c" unicode="c" horiz-adv-x="790" 
d="M520 113l221.999 -0.000976562v-113h-283c-26.667 0 -53.5 0.833008 -80.5 2.5s-53.167 4.5 -78.5 8.5s-49.666 10.333 -72.999 19s-45 19.334 -65 32.001c-17.333 11.333 -32.666 23.333 -45.999 36s-24.666 26.334 -33.999 41.001c-9.33301 15.333 -17 30.5 -23 45.5
s-10.333 30.5 -13 46.5v3.5v3.5c-0.666992 0.666992 -1 1.66699 -1 3v4v7.5v7.5v9.5v8.5c0 3.33301 0.333008 6.5 1 9.5s1.33398 5.83301 2.00098 8.5c1.33301 15.333 5 30.5 11 45.5s13.667 29.833 23 44.5s20.666 28.5 33.999 41.5s28.666 24.833 45.999 35.5
c20 13.333 41.667 24.166 65 32.499s47.666 14.5 72.999 18.5s51.5 7 78.5 9s53.833 3 80.5 3l283 1v-114h-222c-0.666992 0 -1.5 -0.166992 -2.5 -0.5s-1.83301 -0.5 -2.5 -0.5h-2.5h-2.5h-4.5h-4.5h-8.5h-9.5h-8h-7c-10.667 0 -20.834 -0.166992 -30.501 -0.5
s-19.167 -1.16602 -28.5 -2.49902c-9.33301 -0.666992 -18.5 -2.16699 -27.5 -4.5s-17.833 -5.16602 -26.5 -8.49902c-18.667 -7.33301 -34.334 -16 -47.001 -26s-22 -21 -28 -33c-6 -12.667 -10.5 -25.334 -13.5 -38.001s-4.5 -25.667 -4.5 -39
c0 -12.667 1.83301 -25.334 5.5 -38.001s8.83398 -25 15.501 -37c6 -12 15 -22.5 27 -31.5s27 -17.167 45 -24.5c8.66699 -3.33301 17.5 -6 26.5 -8s18.167 -3.66699 27.5 -5c9.33301 -0.666992 18.833 -1.5 28.5 -2.5s19.834 -1.5 30.501 -1.5h9.5h8.5h4.5h5.5h4.5h4.5h2h2
h2h2h2h2h1h2v1v0z" />
    <glyph glyph-name="d" unicode="d" horiz-adv-x="913" 
d="M822 0l-401.005 0.00195312c-58.667 0 -111.167 5.5 -157.5 16.5s-86.166 27.5 -119.499 49.5c-32.667 22 -58 48.333 -76 79s-28.667 65.334 -32 104.001c-1.33301 17.333 -0.666016 34.666 2.00098 51.999s7.33398 34.333 14.001 51
c6 17.333 14.833 33.666 26.5 48.999s25.834 30 42.501 44c20.667 17.333 42.667 31.5 66 42.5s48.333 18.833 75 23.5c27.333 5.33301 55.333 9.16602 84 11.499s58.334 3.5 89.001 3.5l178 1v191h209v-718v0v0zM612.995 113.002l0.000976562 299.999
c-2.66699 0 -5.33398 -0.166992 -8.00098 -0.5s-5.33398 -0.5 -8.00098 -0.5h-4h-4h-12h-10h-15.5h-14.5h-15.5h-14.5h-13.5h-13.5c-4.66699 -0.666992 -9.16699 -1 -13.5 -1h-13.5h-13.5c-4.33301 0 -8.5 -0.333008 -12.5 -1c-4.66699 0 -9.16699 -0.166992 -13.5 -0.5
s-8.83301 -0.5 -13.5 -0.5c-8 -0.666992 -15.833 -1.66699 -23.5 -3s-15.167 -3.33301 -22.5 -6s-14.166 -5.66699 -20.499 -9l-18.5 -10c-10.667 -6.66699 -19.667 -14.167 -27 -22.5s-13.333 -17.166 -18 -26.499l-6 -14c-2 -4.66699 -3.33301 -9 -4 -13
c-1.33301 -4.66699 -2.5 -9.33398 -3.5 -14.001s-1.5 -9.33398 -1.5 -14.001v-8v-7v-7.5v-6.5c1.33301 -35.333 9.5 -63.166 24.5 -83.499s36.833 -33.166 65.5 -38.499s60.167 -9.33301 94.5 -12s71.833 -3.66699 112.5 -3h7c2.66699 0 5 0.333008 7 1h8h8h8h8h7h8v1v0z
" />
    <glyph glyph-name="e" unicode="e" horiz-adv-x="790" 
d="M442 0c-28.667 0 -56.5 1.00098 -83.5 3.00098s-53.5 5.33301 -79.5 10c-26.667 4.66699 -51.5 11.667 -74.5 21s-44.167 21.333 -63.5 36c-16.667 11.333 -30.834 23.833 -42.501 37.5s-21.167 27.834 -28.5 42.501c-7.33301 15.333 -13 30.5 -17 45.5
s-6.66699 30.5 -8 46.5v4.5v5.5v4.5v5.5v3.5v3.5v3v3v6.5c0 2.33301 0.333008 4.83301 1 7.5c1.33301 15.333 4.16602 30.166 8.49902 44.499s10.166 28.833 17.499 43.5s16.666 28.5 27.999 41.5s25 25.167 41 36.5c19.333 14.667 40.5 26.667 63.5 36
s47.833 16.333 74.5 21c26 4.66699 52.5 8.16699 79.5 10.5s54.833 3.5 83.5 3.5l305 1v-110h-276c-29.333 -0.666992 -55.666 -2.5 -78.999 -5.5s-43.666 -7.16699 -60.999 -12.5c-18 -5.33301 -31.5 -14.833 -40.5 -28.5s-13.833 -31.5 -14.5 -53.5l471 1v-110h-471
c0.666992 -22.667 5.33398 -41 14.001 -55s21.334 -23.667 38.001 -29c16.667 -4.66699 36.667 -8.33398 60 -11.001s50.333 -4 81 -4l278 1v-110h-305v0v0z" />
    <glyph glyph-name="f" unicode="f" horiz-adv-x="588" 
d="M162 422l-150.001 -0.000976562v105h150v4v4v4v5c0 28.667 2 53.667 6 75s10.333 39.333 19 54c9.33301 14 29.833 24.667 61.5 32s74.834 11.333 129.501 12l198 1v-102c-0.666992 0 -1.5 -0.166992 -2.5 -0.5s-1.83301 -0.5 -2.5 -0.5h-4.5h-5.5h-4.5
c-1.66699 0 -3.5 0.333008 -5.5 1h-5.5h-4.5h-6h-6h-6.5h-6.5h-6.5c-2.33301 0 -4.5 0.333008 -6.5 1h-7h-6c-8.66699 0 -17.5 -0.166992 -26.5 -0.5s-17.167 -1.16602 -24.5 -2.49902c-8 -0.666992 -15 -1.83398 -21 -3.50098s-11 -3.5 -15 -5.5
c-6 -2.66699 -10.833 -5.83398 -14.5 -9.50098s-6.16699 -7.5 -7.5 -11.5c-1.33301 -4.66699 -2.5 -9.16699 -3.5 -13.5s-1.5 -8.5 -1.5 -12.5v-5v-4c0 -1.33301 0.166992 -2.66602 0.5 -3.99902s0.833008 -2.66602 1.5 -3.99902v-4v-4v-3.5v-3.5l198 1v-105h-198v-422h-216
v422v0v0z" />
    <glyph glyph-name="g" unicode="g" horiz-adv-x="915" 
d="M831 19c0 -33.333 -5.83398 -62.9932 -17.501 -88.9932s-28.834 -48 -51.501 -66c-23.333 -17.333 -54.166 -30.5 -92.499 -39.5s-84.166 -13.5 -137.499 -13.5l-409 -1v107h373c21.333 1.33301 39.833 3.66602 55.5 6.99902s28.834 8.66602 39.501 15.999
c10.667 6.66699 18.5 15.167 23.5 25.5s7.16699 21.833 6.5 34.5h-170c-28.667 0 -56.334 0.5 -83.001 1.5s-52 2.83301 -76 5.5c-24 2 -47.5 7.16699 -70.5 15.5s-45.5 19.833 -67.5 34.5c-18 11.333 -33.667 23.666 -47 36.999s-24.666 27.666 -33.999 42.999
c-8.66699 15.333 -16 30.833 -22 46.5s-10 31.5 -12 47.5c0 1.33301 -0.166992 2.66602 -0.5 3.99902s-0.5 2.66602 -0.5 3.99902c0 0.666992 -0.166992 1.66699 -0.5 3s-0.5 2.66602 -0.5 3.99902v7.5v7.5v9.5v8.5c0 2 0.166992 4 0.5 6s0.833008 4 1.5 6
c0 1.33301 0.166992 2.5 0.5 3.5s0.5 1.83301 0.5 2.5c2.66699 15.333 7 30.5 13 45.5s13.333 29.833 22 44.5c9.33301 14.667 20.666 28.5 33.999 41.5s28.333 24.833 45 35.5c20.667 13.333 42.5 24 65.5 32s47.167 14 72.5 18s51.333 7 78 9s53.667 3 81 3l380 1v-508v0
v0zM512.999 109.007l108.006 0.00292969v305c-4.66699 -0.666992 -9.16699 -1 -13.5 -1h-13.5h-13.5c-4.33301 0 -8.83301 0.333008 -13.5 1h-11h-10h-8.5h-9.5c-32.667 0 -64.167 -1.5 -94.5 -4.5s-59.5 -7.5 -87.5 -13.5c-27.333 -6.66699 -48.5 -18.834 -63.5 -36.501
s-23.833 -41.167 -26.5 -70.5v-2.5v-3.5c-0.666992 -0.666992 -1 -1.5 -1 -2.5v-3.5v-6v-6c-0.666992 -12.667 0.166016 -25.334 2.49902 -38.001s5.83301 -25 10.5 -37c5.33301 -12 13.666 -23 24.999 -33s25.666 -19 42.999 -27
c9.33301 -4.66699 18.666 -8.33398 27.999 -11.001s19.333 -4.66699 30 -6c7.33301 -0.666992 14.666 -1.5 21.999 -2.5s14.666 -1.5 21.999 -1.5c3.33301 -0.666992 7 -1 11 -1h11h4.5h5.5h5.5h4.5h4.5h5.5h4.5h4.5h2h2h2h2h2.5h3.5v1v0z" />
    <glyph glyph-name="h" unicode="h" horiz-adv-x="903" 
d="M90 718l206.999 -0.000976562v-191h186c51.333 -0.666992 96.833 -4.5 136.5 -11.5s74.167 -17.167 103.5 -30.5s51.5 -32.666 66.5 -57.999s22.833 -56.666 23.5 -93.999v-333h-210v318c0 16.667 -2.66699 31 -8 43s-12.666 21.333 -21.999 28
c-10.667 7.33301 -25 12.666 -43 15.999s-40.333 5 -67 5l-166 1v-411h-207v718v0v0z" />
    <glyph glyph-name="i" unicode="i" horiz-adv-x="399" 
d="M309 0h-219v527h219v-527v0v0zM309 587h-219v131h219v-131v0v0z" />
    <glyph glyph-name="j" unicode="j" horiz-adv-x="399" 
d="M309 587h-219v131h219v-131v0v0zM-12 -79c21.333 1.33301 38.832 4.49902 52.499 9.49902s23.5 12.167 29.5 21.5c6 10 10.667 20 14 30s5.33301 20.333 6 31v4v4v4.5v4.5v497h219v-501c0 -2 -0.166992 -4 -0.5 -6s-0.5 -3.66699 -0.5 -5
c0 -2 -0.166992 -3.83301 -0.5 -5.5s-0.5 -3.16699 -0.5 -4.5v-8.5v-10.5c-1.33301 -11.333 -3.83301 -22.833 -7.5 -34.5s-8.16699 -23.167 -13.5 -34.5c-6 -11.333 -13.667 -22.166 -23 -32.499s-20.666 -19.833 -33.999 -28.5c-15.333 -10 -31.833 -18.167 -49.5 -24.5
s-36.167 -10.833 -55.5 -13.5s-39 -4.66699 -59 -6s-40.333 -2 -61 -2h-11h-14h-7h-8h-7h-7c-2 0 -4.16699 0.166992 -6.5 0.5s-4.5 0.5 -6.5 0.5h-6h-6h-6.5h-6.5h-6.5h-6.5l-2 110h91v0v0z" />
    <glyph glyph-name="k" unicode="k" horiz-adv-x="903" 
d="M96 718h208v-444l336 253h264l-366 -258l366 -269h-280l-320 256v-256h-208v718v0v0z" />
    <glyph glyph-name="l" unicode="l" horiz-adv-x="393" 
d="M304 0h-217v718h217v-718v0v0z" />
    <glyph glyph-name="m" unicode="m" horiz-adv-x="1315" 
d="M90 527l800.999 -0.00195312c51.333 -0.666992 96.833 -4.5 136.5 -11.5s74.167 -17.167 103.5 -30.5c28.667 -13.333 50.334 -32.666 65.001 -57.999s22.334 -56.666 23.001 -93.999v-333h-210v316c0 24.667 -4 44 -12 58s-20 23 -36 27
c-15.333 4 -34.833 6.83301 -58.5 8.5s-51.167 2.16699 -82.5 1.5c-2.66699 0 -5.33398 -0.166992 -8.00098 -0.5s-5 -0.5 -7 -0.5h-8h-8h-8h-8h-8h-8v-410h-213v411h-244v-411h-210v527v0v0z" />
    <glyph glyph-name="n" unicode="n" horiz-adv-x="900" 
d="M90 527l392.999 0.000976562c51.333 -0.666992 97.333 -4.33398 138 -11.001s75.667 -16.667 105 -30c28.667 -13.333 50.334 -32.833 65.001 -58.5s22 -57.167 22 -94.5v-333h-209v317c0 18 -2.16699 33.167 -6.5 45.5s-11.166 21.833 -20.499 28.5
c-8.66699 6 -22.334 10.667 -41.001 14s-42 5 -70 5l-168 1v-411h-208v527v0v0z" />
    <glyph glyph-name="o" unicode="o" horiz-adv-x="913" 
d="M759 63c-19.333 -12.667 -40.3311 -23.667 -62.998 -33s-47.667 -17 -75 -23c-26.667 -5.33301 -53.667 -9.5 -81 -12.5s-55.333 -4.5 -84 -4.5s-56.834 1.5 -84.501 4.5s-54.5 7.16699 -80.5 12.5c-26.667 6 -51.334 13.5 -74.001 22.5s-43.667 19.833 -63 32.5
s-36.5 26.5 -51.5 41.5s-27.167 31.5 -36.5 49.5c-10 17.333 -17.333 35.166 -22 53.499s-7 36.833 -7 55.5s2.33301 37 7 55s12 36 22 54c9.33301 17.333 21.5 33.666 36.5 48.999s32.167 29.333 51.5 42c19.333 12 40.333 22.667 63 32s47.334 17 74.001 23
c27.333 6 54.666 10.667 81.999 14s55.333 5 84 5c28 0 55.667 -1.66699 83 -5s54.333 -8 81 -14c27.333 -6 52.333 -13.667 75 -23s43.667 -20 63 -32c19.333 -12.667 36.166 -26.667 50.499 -42s26.5 -31.666 36.5 -48.999c9.33301 -18 16.666 -36 21.999 -54
s8 -36.333 8 -55s-2.66699 -37.167 -8 -55.5s-12.666 -36.166 -21.999 -53.499c-10 -18 -22.167 -34.5 -36.5 -49.5s-31.166 -28.833 -50.499 -41.5v1v0zM385.002 112c1.33301 -0.666992 2.83105 -1.16895 4.49805 -1.50195s3.5 -0.833008 5.5 -1.5
s3.83301 -1.16699 5.5 -1.5s3.16699 -0.5 4.5 -0.5c1.33301 -0.666992 2.83301 -1.16699 4.5 -1.5s3.5 -0.5 5.5 -0.5c1.33301 -0.666992 2.83301 -1 4.5 -1h4.5c24 -2.66699 47.333 -2.5 70 0.5s44.334 8.83301 65.001 17.5c21.333 8 38.833 18.167 52.5 30.5
s24.167 26.5 31.5 42.5c2.66699 5.33301 4.83398 11 6.50098 17s3.16699 12.333 4.5 19s2.33301 13.334 3 20.001s1 13.334 1 20.001c-1.33301 14.667 -4.5 29 -9.5 43s-12.167 27.333 -21.5 40c-10 13.333 -22.5 24.833 -37.5 34.5s-33.167 17.5 -54.5 23.5
c-2 0.666992 -4.16699 1.16699 -6.5 1.5s-4.83301 0.833008 -7.5 1.5s-5.16699 1.16699 -7.5 1.5s-4.5 0.833008 -6.5 1.5c-5.33301 0.666992 -10.333 1.16699 -15 1.5s-9.33398 0.833008 -14.001 1.5c-22.667 1.33301 -45 0.166016 -67 -3.50098s-42.667 -9.5 -62 -17.5
c-20 -8.66699 -36.667 -18.667 -50 -30s-23.666 -24.666 -30.999 -39.999c-2.66699 -6 -5 -12 -7 -18s-3.66699 -12 -5 -18s-2 -12 -2 -18s0.333008 -12 1 -18c0 -16 2.5 -31.333 7.5 -46s12.833 -29 23.5 -43s24.167 -25.833 40.5 -35.5s35.833 -17.167 58.5 -22.5v1v0z
" />
    <glyph glyph-name="p" unicode="p" horiz-adv-x="916" 
d="M91 527l402 0.000976562c58.667 -0.666992 111.167 -6.66699 157.5 -18s85.833 -28 118.5 -50c33.333 -22.667 59 -49.167 77 -79.5s28.333 -64.833 31 -103.5c1.33301 -18 0.666016 -35.5 -2.00098 -52.5s-7 -34.167 -13 -51.5
c-6.66699 -16.667 -15.667 -32.834 -27 -48.501s-25.333 -30.167 -42 -43.5c-20 -17.333 -41.667 -31.5 -65 -42.5s-48.666 -18.833 -75.999 -23.5c-26.667 -4.66699 -54.5 -8.16699 -83.5 -10.5s-58.5 -3.5 -88.5 -3.5h-180v-190h-209v717v0v0zM300 413.001v-299.998
c1.33301 0 2.83301 -0.166992 4.5 -0.5s3.5 -0.5 5.5 -0.5h4.5h4.5h6.5h7.5h3.5h3.5c48 -0.666992 91.5 0.666016 130.5 3.99902s73.5 8.33301 103.5 15c30 7.33301 52.167 23 66.5 47s20.833 57 19.5 99c-1.33301 35.333 -9.5 63 -24.5 83s-36.833 32.667 -65.5 38
s-60.167 9.16602 -94.5 11.499s-71.5 3.5 -111.5 3.5c-4 0 -7.83301 -0.166992 -11.5 -0.5s-7.16699 -0.5 -10.5 -0.5h-5.5h-5.5h-8h-7h-8h-8v1v0z" />
    <glyph glyph-name="q" unicode="q" horiz-adv-x="915" 
d="M615 -190v189.999h-179c-30.667 0 -60.167 1.16699 -88.5 3.5s-56.166 5.83301 -83.499 10.5c-26.667 4.66699 -52 12.5 -76 23.5s-46.333 25.167 -67 42.5c-16.667 13.333 -30.834 27.833 -42.501 43.5s-20.5 31.834 -26.5 48.501
c-6.66699 17.333 -11.167 34.5 -13.5 51.5s-2.83301 34.5 -1.5 52.5c3.33301 38.667 14 73.167 32 103.5s43.333 56.833 76 79.5c33.333 22 73 38.667 119 50s98.333 17 157 17l402 1v-717h-208v0v0zM487 112.999h128.002v300c-2.66699 0 -5.33398 -0.166992 -8.00098 -0.5
s-5.33398 -0.5 -8.00098 -0.5h-8h-8h-5h-5h-3c-0.666992 0 -1.33398 0.333008 -2.00098 1h-8h-7h-0.5h-0.5h-1.5h-0.5h-0.5h-0.5h-1.5h-0.5c-34.667 0.666992 -67.667 0 -99 -2s-61.666 -5.33301 -90.999 -10s-52.333 -15.334 -69 -32.001s-26.667 -39.667 -30 -69
c-0.666992 -2 -1.16699 -4 -1.5 -6s-0.5 -3.66699 -0.5 -5c-0.666992 -2 -1 -4 -1 -6v-6v-11.5v-10.5c0 -8 0.833008 -15.667 2.5 -23s3.83398 -14.666 6.50098 -21.999c2 -7.33301 5 -14.5 9 -21.5s9 -13.833 15 -20.5c11.333 -13.333 24.166 -24 38.499 -32
s29.833 -13.333 46.5 -16s34.667 -4.66699 54 -6s39.333 -2 60 -2v1v0z" />
    <glyph glyph-name="r" unicode="r" horiz-adv-x="705" 
d="M90 527l351 -0.000976562c56 -0.666992 100.5 -5.16699 133.5 -13.5s53.833 -21.166 62.5 -38.499c9.33301 -16.667 16 -36.5 20 -59.5s6 -48.833 6 -77.5v-8v-8v-4v-4v-5v-4l-200 1v5v6v3v3v2.5v2.5c0 24 -1.5 43.167 -4.5 57.5s-7.5 23.5 -13.5 27.5s-19.167 7 -39.5 9
s-48.5 3 -84.5 3h-7h-5h-2.5h-2.5h-3.5h-2.5v-425h-208v527v0v0z" />
    <glyph glyph-name="s" unicode="s" horiz-adv-x="891" 
d="M78 110l439 -0.00292969c0.666992 0 1 -0.166992 1 -0.5s0.333008 -0.5 1 -0.5h2h2h1h1h2h2c12 0 23.833 1 35.5 3s22.834 4.66699 33.501 8s18.667 8.33301 24 15s8 15.334 8 26.001c0 9.33301 -2.66699 17.333 -8 24s-12.666 11.667 -21.999 15
c-10.667 3.33301 -21.334 6 -32.001 8s-21.667 3.33301 -33 4h-4.5h-4.5h-4.5h-4.5l-180 1c-42 -0.666992 -79.667 1 -113 5s-62 10 -86 18s-42.333 22.167 -55 42.5s-19 46.833 -19 79.5c-0.666992 30.667 5.33301 56.834 18 78.501s31.667 38.834 57 51.501
s55 22.167 89 28.5s72.333 9.5 115 9.5l449 1v-110h-369c-1.33301 -0.666992 -2.83301 -1 -4.5 -1h-4.5h-2h-2h-2h-2h-3.5h-3.5h-7.5h-6.5h-9.5h-11.5c-8.66699 -0.666992 -17.5 -1.66699 -26.5 -3s-17.5 -3 -25.5 -5c-8.66699 -2.66699 -15.5 -6.16699 -20.5 -10.5
s-8.83301 -9.5 -11.5 -15.5c-4.66699 -12 -5 -22 -1 -30s11.333 -14 22 -18c10.667 -4.66699 22.5 -8 35.5 -10s26.833 -3 41.5 -3l189 1c36.667 -0.666992 70.5 -3.83398 101.5 -9.50098s59.167 -14.167 84.5 -25.5c24.667 -10.667 43.667 -25.667 57 -45
s20.666 -42.666 21.999 -69.999v-1.5v-0.5v0v0v-1v0c0 -21.333 -4.5 -41.833 -13.5 -61.5s-22.833 -38.167 -41.5 -55.5s-41.5 -30.333 -68.5 -39s-57.833 -13 -92.5 -13h-538v110v0v0z" />
    <glyph glyph-name="t" unicode="t" horiz-adv-x="621" 
d="M12 527h147v191h208v-191h221v-105h-221v-213c-0.666992 -26.667 3.5 -47.667 12.5 -63s22.833 -25 41.5 -29c18 -4.66699 39.833 -8 65.5 -10s54.834 -3 87.501 -3h1h1h2h2h2h2h2h2v-104h-191c-39.333 0 -74 3.66699 -104 11s-54.667 18.333 -74 33
c-20.667 14.667 -35.834 32 -45.501 52s-14.5 42.667 -14.5 68v258h-147v105v0v0z" />
    <glyph glyph-name="u" unicode="u" horiz-adv-x="903" 
d="M805 0l-393.001 0.00195312c-50.667 0 -96 3.33301 -136 10s-74.667 16.667 -104 30c-30 13.333 -52.167 32.666 -66.5 57.999s-21.5 56.666 -21.5 93.999v335h208v-323c0 -18 2.33301 -32.833 7 -44.5s12.334 -20.5 23.001 -26.5c10 -6 24 -10.5 42 -13.5
s39.667 -4.5 65 -4.5l168 1v411h208v-527v0v0z" />
    <glyph glyph-name="v" unicode="v" horiz-adv-x="915" 
d="M1 527h234l219 -374l233 374h225l-351 -527h-225l-335 527v0v0z" />
    <glyph glyph-name="w" unicode="w" horiz-adv-x="1309" 
d="M649 360l-165 -360h-231l-274 527h217l174 -369l173 369h222l175 -369l174 369h215l-267 -527h-240l-173 360v0v0z" />
    <glyph glyph-name="x" unicode="x" horiz-adv-x="829" 
d="M295 263l-294 264h243l170 -159l174 159h240l-293 -267l288 -260h-243l-166 153l-168 -153h-242l291 263v0v0z" />
    <glyph glyph-name="y" unicode="y" horiz-adv-x="903" 
d="M429 116l167.998 0.00390625v411h208v-513c0 -32.667 -5.83301 -61.834 -17.5 -87.501s-29.167 -46.834 -52.5 -63.501c-24 -17.333 -54.833 -30.333 -92.5 -39s-82.5 -13 -134.5 -13l-409 -1v107h373c21.333 1.33301 39.833 3.66602 55.5 6.99902
s28.834 8.33301 39.501 15s18.334 15.167 23.001 25.5s7 22.166 7 35.499h-185c-54 0 -101.333 3.5 -142 10.5s-74.667 17.833 -102 32.5c-28.667 14 -49.834 34.167 -63.501 60.5s-20.5 58.833 -20.5 97.5v326h207v-314c0 -19.333 2 -35.5 6 -48.5s10.333 -22.833 19 -29.5
c9.33301 -6.66699 23.333 -11.667 42 -15s42.334 -5 71.001 -5v1v0z" />
    <glyph glyph-name="z" unicode="z" horiz-adv-x="876" 
d="M67 113l468 300h-468v114h741v-114l-468 -300h468v-113h-741v113v0v0z" />
    <glyph glyph-name="braceleft" unicode="{" horiz-adv-x="750" 
d="M646 721v-102.001c-30.667 0 -56.5 -1.33301 -77.5 -4s-37.167 -6.66699 -48.5 -12c-12 -4.66699 -20.667 -14 -26 -28s-8 -32 -8 -54v-116c0 -22 -2.16699 -41 -6.5 -57s-11.166 -29.667 -20.499 -41c-8.66699 -10.667 -23.5 -20.167 -44.5 -28.5
s-47.833 -15.166 -80.5 -20.499c32.667 -5.33301 59.5 -12 80.5 -20s35.833 -17.667 44.5 -29c9.33301 -10.667 16.166 -24 20.499 -40s6.5 -34.667 6.5 -56v-116c0 -21.333 2.66699 -39 8 -53s14 -23.333 26 -28c11.333 -5.33301 27.5 -9 48.5 -11s46.833 -3 77.5 -3v-103
c-0.666992 0.666992 -1.66699 1 -3 1h-3h-3.5h-3.5h-8h-6h-8.5c-3 0 -6.16699 -0.333008 -9.5 -1h-8.5h-9.5h-9h-9h-9.5h-9.5c-14.667 0.666992 -29 1.5 -43 2.5s-27.667 2.16699 -41 3.5s-26.5 3.5 -39.5 6.5s-25.5 6.83301 -37.5 11.5
c-14.667 6 -27.167 12.833 -37.5 20.5s-17.833 16.167 -22.5 25.5c-4.66699 10 -8.33398 20 -11.001 30s-4.33398 20.333 -5.00098 31v8v8v8v8v1.5v0.5v0v0v1v0v121c0 24.667 -3.66699 45.167 -11 61.5s-18.333 28.5 -33 36.5s-34.5 13.833 -59.5 17.5
s-55.167 5.5 -90.5 5.5v103c35.333 -0.666992 65.5 0.833008 90.5 4.5s44.833 9.5 59.5 17.5s25.667 20.5 33 37.5s11 37.833 11 62.5v123v0v0v0.5v1.5v8v8v4v5v4v4c0.666992 10 2.33398 20 5.00098 30s6.33398 20 11.001 30s12.167 18.833 22.5 26.5s22.833 14.5 37.5 20.5
c12 4.66699 24.5 8.5 37.5 11.5s26.167 5.16699 39.5 6.5s27 2.5 41 3.5s28.333 1.5 43 1.5h8h8h7h8h10h10h5h5h4.5h5.5h5.5h4.5h4.5h5.5h4.5h4.5v1v0z" />
    <glyph glyph-name="bar" unicode="|" horiz-adv-x="750" 
d="M300 764h151v-999h-151v999v0v0z" />
    <glyph glyph-name="braceright" unicode="}" horiz-adv-x="750" 
d="M105 721c2 -0.666992 4.5 -1.00098 7.5 -1.00098h8.5h4h5h4h4h16h17h16.5h17.5c6.66699 0 13.5 -0.166992 20.5 -0.5s14.167 -0.833008 21.5 -1.5l20.5 -2l20.5 -2c13.333 -1.33301 26.666 -3.5 39.999 -6.5s26 -6.83301 38 -11.5c15.333 -6 27.666 -12.833 36.999 -20.5
s16.333 -16.167 21 -25.5c4.66699 -10 8.5 -20 11.5 -30s5.16699 -20.333 6.5 -31v-8v-8v-8v-8v-1.5v-0.5v0v0v-1v0v-122c0 -24.667 3.66699 -45.5 11 -62.5s18.333 -29.5 33 -37.5c15.333 -8 35.333 -14 60 -18s54.667 -5.66699 90 -5v-101
c-35.333 0 -65.333 -2.16699 -90 -6.5s-44.667 -10.5 -60 -18.5c-14.667 -8 -25.667 -20.167 -33 -36.5s-11 -36.833 -11 -61.5v-121v1v-1v0v0v-0.5v-1.5v-8v-8v-8v-8c-1.33301 -10.667 -3.5 -21 -6.5 -31s-6.83301 -20 -11.5 -30
c-4.66699 -9.33301 -11.667 -17.833 -21 -25.5s-21.666 -14.5 -36.999 -20.5c-12 -4.66699 -24.667 -8.5 -38 -11.5s-26.666 -5.16699 -39.999 -6.5l-20.5 -2l-20.5 -2c-7.33301 -0.666992 -14.5 -1.16699 -21.5 -1.5s-13.833 -0.5 -20.5 -0.5h-19h-18h-8.5h-9.5
c-2.66699 0.666992 -5.5 1 -8.5 1h-9.5h-3.5h-3.5h-3.5h-3.5h-3h-3h-3.5h-3.5v101c30.667 0.666992 56.5 2 77.5 4s37.167 5.66699 48.5 11c10.667 4.66699 18.834 13.834 24.501 27.501s8.83398 31.834 9.50098 54.501v115c0 21.333 2.33301 40 7 56
s11.334 29.333 20.001 40c9.33301 11.333 24.333 21 45 29s47.334 14.667 80.001 20c-32.667 5.33301 -59.334 12.166 -80.001 20.499s-35.667 17.833 -45 28.5c-8.66699 11.333 -15.334 25 -20.001 41s-7 34.667 -7 56v119c-0.666992 21.333 -3.83398 38.833 -9.50098 52.5
s-13.834 22.834 -24.501 27.501c-11.333 5.33301 -27.5 9.16602 -48.5 11.499s-46.833 3.5 -77.5 3.5v103v0v0z" />
    <glyph glyph-name="asciitilde" unicode="~" horiz-adv-x="1249" 
d="M1120 392l0.00195312 -108.001c-22.667 -10 -43.834 -18.667 -63.501 -26s-38.5 -13.666 -56.5 -18.999s-35.5 -9.66602 -52.5 -12.999s-33.833 -5.66602 -50.5 -6.99902c-20.667 -2 -41.334 -2.66699 -62.001 -2s-41.667 2.33398 -63 5.00098
c-21.333 3.33301 -44.5 7.33301 -69.5 12s-51.167 10.334 -78.5 17.001c-30.667 7.33301 -59.167 13.166 -85.5 17.499s-50.833 7.5 -73.5 9.5c-22.667 1.33301 -44.834 1.66602 -66.501 0.999023s-42.5 -2.66699 -62.5 -6c-5.33301 -0.666992 -10.666 -1.66699 -15.999 -3
l-16 -4c-10.667 -2.66699 -21.167 -5.5 -31.5 -8.5s-21.166 -6.5 -32.499 -10.5l-53 -19.5c-18.667 -7 -37.667 -15.167 -57 -24.5v109c18 7.33301 35.833 14.166 53.5 20.499s34.834 11.833 51.501 16.5c16.667 5.33301 33.167 10 49.5 14s32.833 7.33301 49.5 10
c22.667 3.33301 45.334 5.33301 68.001 6s46 0.333984 70 -0.999023c23.333 -2 48.166 -5 74.499 -9s54.166 -9.66699 83.499 -17c29.333 -6.66699 56.5 -12.5 81.5 -17.5s47.833 -9.16699 68.5 -12.5c21.333 -2.66699 41.666 -4.33398 60.999 -5.00098s38.333 0 57 2
c16.667 2 33.334 4.83301 50.001 8.5s33.667 8.5 51 14.5c17.333 5.33301 36.166 12.166 56.499 20.499s41.833 17.833 64.5 28.5v1v0z" />
    <glyph glyph-name="exclamdown" unicode="&#xa1;" horiz-adv-x="469" 
d="M120 533h226v-533h-226v533v0v0zM121 718h227v-129h-227v129v0v0z" />
    <glyph glyph-name="cent" unicode="&#xa2;" horiz-adv-x="615" 
d="M430 149l0.00195312 -64.001h-85v64c-22 0 -43.167 1 -63.5 3s-40.166 4.33301 -59.499 7c-19.333 3.33301 -38 8.33301 -56 15s-35 15 -51 25c-13.333 8.66699 -25.333 18 -36 28s-19.667 20.667 -27 32s-13.5 23 -18.5 35s-8.16699 24.333 -9.5 37l-2 8
c-0.666992 2.66699 -1 5.33398 -1 8.00098v4v5v4v4v6.5v7.5v3.5c0 1 0.333008 2.16699 1 3.5v3v4c1.33301 12.667 4.66602 25.167 9.99902 37.5s11.666 24.5 18.999 36.5s16.333 23.5 27 34.5s23 20.833 37 29.5c16 10 33 18.333 51 25s36.667 11.667 56 15
s39.166 6 59.499 8s41.5 3.33301 63.5 4v63h85v-62h159v-92h-159v-250h159v-92h-159v0v0zM345.002 490.999c-26.667 -3.33301 -49.5 -8.49902 -68.5 -15.499s-34.167 -15.833 -45.5 -26.5s-19.666 -23.167 -24.999 -37.5s-8 -30.166 -8 -47.499s2.66699 -33 8 -47
s13.666 -26.333 24.999 -37s26.5 -19.334 45.5 -26.001s41.833 -11.334 68.5 -14.001v251v0v0z" />
    <glyph glyph-name="sterling" unicode="&#xa3;" horiz-adv-x="1021" 
d="M235 123v186.996h-193v104h193v7v8v8.5v8.5c-0.666992 4.66699 -1 9.33398 -1 14.001v14v14c0 4.66699 0.333008 9.33398 1 14.001c0 14 1.16699 27.833 3.5 41.5s5.83301 27.167 10.5 40.5s11.5 26 20.5 38s20.167 23.333 33.5 34c16.667 13.333 35 24.333 55 33
s41.667 14.334 65 17.001c23.333 3.33301 46.833 5.83301 70.5 7.5s47.5 2.83398 71.5 3.50098h4.5h5.5h5.5h4.5h4.5h5.5h4.5h4.5h2h2h2h2h2h2h1h2l275 1v-124h-260c-46.667 0 -83 -3 -109 -9s-42.667 -15 -50 -27s-12.5 -26.667 -15.5 -44s-3.83301 -37 -2.5 -59
c0 -2 0.166992 -3.83301 0.5 -5.5s0.5 -3.16699 0.5 -4.5c0 -2 0.166992 -3.83301 0.5 -5.5s0.5 -3.5 0.5 -5.5v-10.5v-10.5l265 1v-104h-265v-187h525v-123h-942v123h193v0v0z" />
    <glyph glyph-name="currency" unicode="&#xa4;" horiz-adv-x="909" 
d="M126 702l149.999 -99c13.333 6 27.5 11.333 42.5 16s30.167 8.33398 45.5 11.001c5.33301 1.33301 10.666 2.33301 15.999 3l16 2c10.667 1.33301 21.334 2.33301 32.001 3s21.334 1 32.001 1c15.333 0 30.5 -0.833008 45.5 -2.5s29.833 -4.16699 44.5 -7.5
c15.333 -2.66699 30.166 -6.33398 44.499 -11.001s28.166 -10 41.499 -16l148 100l77 -52l-149 -100c9.33301 -9.33301 17.333 -18.833 24 -28.5s12.334 -19.5 17.001 -29.5c2 -4.66699 3.83301 -9.66699 5.5 -15l4.5 -15l2 -15.5c0.666992 -5 1 -10.167 1 -15.5
c0 -10.667 -1 -21 -3 -31s-5.33301 -20 -10 -30s-10.334 -19.667 -17.001 -29s-14.667 -18.666 -24 -27.999l149 -99l-77 -51l-148 99c-13.333 -6.66699 -27.166 -12.334 -41.499 -17.001s-29.166 -8.66699 -44.499 -12c-14.667 -2.66699 -29.5 -4.83398 -44.5 -6.50098
s-30.167 -2.5 -45.5 -2.5c-10.667 0 -21.334 0.166992 -32.001 0.5s-21.334 1.16602 -32.001 2.49902c-5.33301 0.666992 -10.666 1.5 -15.999 2.5s-10.666 1.83301 -15.999 2.5c-15.333 3.33301 -30.5 7.33301 -45.5 12s-29.167 10.334 -42.5 17.001l-150 -98l-77 51
l149 100c-8.66699 8.66699 -16.5 17.667 -23.5 27s-12.833 19 -17.5 29s-8 20 -10 30s-3 20.333 -3 31c0 5.33301 0.333008 10.5 1 15.5l2 15.5l4.5 15c1.66699 5.33301 3.5 10.333 5.5 15c4.66699 10 10.5 19.833 17.5 29.5s14.833 18.834 23.5 27.501l-149 101l77 52v0v0z
M455.999 567c-26.667 -0.666992 -52 -4.33105 -76 -10.998s-45.667 -16.667 -65 -30c-20.667 -13.333 -36.167 -28 -46.5 -44s-15.5 -33 -15.5 -51c0 -18.667 5 -35.834 15 -51.501s25 -30.167 45 -43.5c19.333 -12.667 41 -22.334 65 -29.001s50 -10 78 -10
c27.333 0 52.833 3.33301 76.5 10s45.5 16.667 65.5 30c19.333 13.333 34.166 27.833 44.499 43.5s15.5 32.5 15.5 50.5c-0.666992 18 -6.16699 35 -16.5 51s-25.166 30.667 -44.499 44s-40.833 23.333 -64.5 30s-49.167 10 -76.5 10v1v0z" />
    <glyph glyph-name="yen" unicode="&#xa5;" horiz-adv-x="930" 
d="M10 291v58h309l-66 66h-243v57h182l-252 246h253l266 -274l270 274h262l-252 -246h185v-57h-243l-71 -66h314v-58h-348v-291h-227v291h-339v0v0z" />
    <glyph glyph-name="brokenbar" unicode="&#xa6;" 
 />
    <glyph glyph-name="section" unicode="&#xa7;" horiz-adv-x="750" 
d="M73 24l285.003 -0.00585938c1.33301 -0.666992 2.66602 -1 3.99902 -1h4h2h2h1h2h2.5h2.5h4.5h5.5h9.5h8.5c10.667 0 21 0.666992 31 2s19.333 3.33301 28 6c9.33301 2 17.166 5.5 23.499 10.5s11.5 11.5 15.5 19.5c4.66699 12 5.66699 22.5 3 31.5
s-8.66699 16.833 -18 23.5c-10.667 6.66699 -22.5 11.667 -35.5 15s-27.833 5.33301 -44.5 6h-5h-5h-10h-10h-5h-5h-10h-10h-4.5h-4.5h-4h-3c-28.667 0 -56.5 0.833008 -83.5 2.5s-53.167 4.16699 -78.5 7.5s-48.5 10.666 -69.5 21.999s-39.5 26.333 -55.5 45
c-4.66699 5.33301 -8.66699 11 -12 17s-6.33301 12 -9 18c-2 6 -3.5 12.167 -4.5 18.5s-1.5 12.833 -1.5 19.5c0 5.33301 0.666992 10.5 2 15.5l4 14.5c0.666992 2.66699 1.5 5.16699 2.5 7.5s2.16699 4.83301 3.5 7.5c1.33301 2 2.66602 4.16699 3.99902 6.5
s2.66602 4.83301 3.99902 7.5c3.33301 6.66699 7.83301 12.667 13.5 18s12.167 10 19.5 14s15.166 7.83301 23.499 11.5s16.833 7.16699 25.5 10.5c-18.667 8 -34.5 17 -47.5 27s-23.167 21.333 -30.5 34c-7.33301 12 -12.666 24.833 -15.999 38.5
s-4.33301 27.834 -3 42.501c2 30 10.167 56.167 24.5 78.5s34.5 40.5 60.5 54.5c26.667 14 57.334 24.5 92.001 31.5s73.667 10.5 117 10.5l348 1v-118h-269c-0.666992 0 -1.33398 -0.166992 -2.00098 -0.5s-1.33398 -0.5 -2.00098 -0.5h-1h-1h-0.5h-1.5h-1.5h-0.5h-8h-7
h-3.5h-3.5h-3.5h-3.5c-12.667 -0.666992 -24.667 -1.66699 -36 -3s-22.333 -3.33301 -33 -6s-19.667 -6.66699 -27 -12s-12.666 -12.666 -15.999 -21.999c-5.33301 -10.667 -6.66602 -20.5 -3.99902 -29.5s9.33398 -16.5 20.001 -22.5
c10.667 -6.66699 22.667 -11.667 36 -15s27.333 -5 42 -5h13.5h13.5h7h8h7h7h13.5h13.5h13.5h13.5c25.333 -0.666992 50.166 -2.16699 74.499 -4.5s47.833 -5.83301 70.5 -10.5s43 -12.5 61 -23.5s33.333 -25.167 46 -42.5c0.666992 -1.33301 1.5 -2.66602 2.5 -3.99902
s1.83301 -2.66602 2.5 -3.99902s1.5 -2.66602 2.5 -3.99902s1.83301 -2.66602 2.5 -3.99902l2 -4l2 -4l2 -4l2 -4c4.66699 -14.667 6.33398 -28.667 5.00098 -42s-5.66602 -26.666 -12.999 -39.999c-7.33301 -12.667 -17.333 -24.5 -30 -35.5s-28.667 -20.833 -48 -29.5
c18 -8 33.333 -17.167 46 -27.5s22 -21.833 28 -34.5s10.5 -25.834 13.5 -39.501s4.5 -27.5 4.5 -41.5c-0.666992 -13.333 -3.33398 -26.333 -8.00098 -39s-10.667 -25 -18 -37c-7.33301 -11.333 -17 -22.166 -29 -32.499s-26.333 -19.833 -43 -28.5
c-14 -8 -28.833 -14.5 -44.5 -19.5s-31.834 -8.5 -48.501 -10.5s-33.5 -3.66699 -50.5 -5s-34.5 -2 -52.5 -2l-359 -1v118v0v0zM340.003 255.994l111.003 0.000976562l0.5 -0.5l0.5 -0.5h0.5h0.5v0l1 1h0.5h1.5c9.33301 4 18 8.33301 26 13s15.667 9.66699 23 15
s13 11.333 17 18s5.33301 14.334 4 23.001s-5.33301 16 -12 22s-16 10.333 -28 13c-12 3.33301 -24.667 5.66602 -38 6.99902s-26.666 2.33301 -39.999 3h-8.5h-8.5c-2.66699 -0.666992 -5.33398 -1 -8.00098 -1h-8h-8.5h-8.5c-2.66699 -0.666992 -5.33398 -1 -8.00098 -1
h-7h-6h-6c-2 -0.666992 -3.83301 -1 -5.5 -1h-4.5h-8.5h-8.5c-9.33301 -2.66699 -18.166 -5.83398 -26.499 -9.50098s-15.833 -8.16699 -22.5 -13.5l-9.5 -7.5c-3 -2.33301 -5.5 -4.5 -7.5 -6.5l-5.5 -7.5c-1.66699 -2.33301 -2.83398 -4.83301 -3.50098 -7.5
c-2.66699 -7.33301 -2.83398 -14.5 -0.500977 -21.5s7.5 -13.5 15.5 -19.5c7.33301 -6.66699 19.166 -11.5 35.499 -14.5s36.5 -4.5 60.5 -4.5v1v0z" />
    <glyph glyph-name="dieresis" unicode="&#xa8;" 
 />
    <glyph glyph-name="copyright" unicode="&#xa9;" 
 />
    <glyph glyph-name="ordfeminine" unicode="&#xaa;" horiz-adv-x="714" 
d="M79 717l320.997 -0.000976562c17.333 -0.666992 34.333 -1.66699 51 -3s33.334 -3 50.001 -5c15.333 -2 30.166 -5.5 44.499 -10.5s27.833 -11.5 40.5 -19.5c10.667 -6.66699 19.667 -13.667 27 -21s13.333 -15.666 18 -24.999
c4.66699 -8.66699 8.16699 -17.5 10.5 -26.5s3.5 -18.167 3.5 -27.5v-230h-422c-30.667 -0.666992 -57.667 1.5 -81 6.5s-42.666 12.833 -57.999 23.5c-16.667 10.667 -28.5 23.167 -35.5 37.5s-9.83301 30.833 -8.5 49.5c2.66699 22 10.167 40.167 22.5 54.5
s29.833 24.833 52.5 31.5s47.5 11.667 74.5 15s56.167 5 87.5 5l206 1c0.666992 15.333 -2.16602 27.5 -8.49902 36.5s-16.166 15.5 -29.499 19.5c-13.333 3.33301 -28.833 6 -46.5 8s-37.167 3 -58.5 3l-261 1v76v0v0zM287.997 422.999l196.002 0.000976562v76h-184
c-1.33301 -0.666992 -2.5 -1 -3.5 -1h-2.5h-3.5h-2.5c-10.667 -0.666992 -20.834 -1.66699 -30.501 -3s-18.5 -3 -26.5 -5c-8.66699 -2 -15.334 -5.5 -20.001 -10.5s-7 -11.5 -7 -19.5c-0.666992 -8.66699 1 -15.834 5 -21.501s10.333 -9.16699 19 -10.5
c9.33301 -2 18.833 -3.5 28.5 -4.5s20.167 -1.5 31.5 -1.5v1v0z" />
    <glyph glyph-name="guillemotleft" unicode="&#xab;" horiz-adv-x="945" 
d="M253 263l258 -173h-228l-244 173l256 175h224l-266 -175v0v0zM610 263l258 -173h-228l-244 173l256 175h224l-266 -175v0v0z" />
    <glyph glyph-name="logicalnot" unicode="&#xac;" 
 />
    <glyph glyph-name="sfthyphen" unicode="&#xad;" 
 />
    <glyph glyph-name="registered" unicode="&#xae;" 
 />
    <glyph glyph-name="overstore" unicode="&#xaf;" 
 />
    <glyph glyph-name="degree" unicode="&#xb0;" 
 />
    <glyph glyph-name="plusminus" unicode="&#xb1;" 
 />
    <glyph glyph-name="twosuperior" unicode="&#xb2;" 
 />
    <glyph glyph-name="threesuperior" unicode="&#xb3;" 
 />
    <glyph glyph-name="acute" unicode="&#xb4;" horiz-adv-x="750" 
d="M402 729h216l-257 -139h-105l146 139v0v0z" />
    <glyph glyph-name="mu" unicode="&#xb5;" 
 />
    <glyph glyph-name="paragraph" unicode="&#xb6;" horiz-adv-x="750" 
d="M720 722l0.00292969 -54h-83v-668h-111v668h-115v-668h-113v383c-15.333 0.666992 -30.5 1.66699 -45.5 3s-29.833 3.33301 -44.5 6c-14.667 2 -28.834 5.33301 -42.501 10s-26.834 10.334 -39.501 17.001c-16 8 -30 16.833 -42 26.5s-22 20.5 -30 32.5
c-8.66699 11.333 -14.834 23.166 -18.501 35.499s-5.5 24.833 -5.5 37.5c0 27.333 7 51.5 21 72.5s35.333 38.833 64 53.5s59.667 25.667 93 33s69.333 11 108 11l404 1v0v0z" />
    <glyph glyph-name="middot" unicode="&#xb7;" 
 />
    <glyph glyph-name="cedilla" unicode="&#xb8;" horiz-adv-x="750" 
d="M208 -136c3.33301 0 6.98926 -0.332031 10.9893 -0.999023s8.33301 -1.33398 13 -2.00098c4.66699 -1.33301 9.83398 -2.5 15.501 -3.5s11.5 -1.83301 17.5 -2.5l14 -2c4.66699 -0.666992 9.66699 -1.33398 15 -2.00098c2.66699 0 5.33398 -0.166992 8.00098 -0.5
s5.33398 -0.833008 8.00098 -1.5c2 0 4.33301 -0.166992 7 -0.5s5.33398 -0.5 8.00098 -0.5c13.333 -1.33301 26.666 -2.33301 39.999 -3s26 -0.666992 38 0s21.833 2.16699 29.5 4.5s13.834 6.16602 18.501 11.499c6 8 8.33301 14.5 7 19.5s-5.66602 9.16699 -12.999 12.5
c-7.33301 2.66699 -15.5 5 -24.5 7s-18.833 3.33301 -29.5 4h-5h-5h-10h-10h-12h-10h-2h-1h-0.5h-0.5h-0.5h-0.5v101h81v-45c3.33301 0.666992 6.5 1 9.5 1h8.5h9.5c3 0 5.83301 -0.333008 8.5 -1c12 0 23.833 -1 35.5 -3s22.834 -4.33301 33.501 -7
c10.667 -3.33301 20.5 -7.5 29.5 -12.5s16.833 -11.5 23.5 -19.5c0.666992 -1.33301 1.33398 -2.5 2.00098 -3.5s1.33398 -1.83301 2.00098 -2.5c1.33301 -2.66699 2.83301 -5.16699 4.5 -7.5s2.83398 -4.83301 3.50098 -7.5c1.33301 -3.33301 2.16602 -7 2.49902 -11
s0.5 -8 0.5 -12c0 -5.33301 -0.666992 -10.5 -2 -15.5s-3.66602 -9.83301 -6.99902 -14.5c-2.66699 -5.33301 -6 -10.166 -10 -14.499s-8.33301 -8.5 -13 -12.5c-12 -8.66699 -25 -15.667 -39 -21s-29.333 -9 -46 -11c-17.333 -2 -35 -3.16699 -53 -3.5
s-36 0.166992 -54 1.5l-20 2l-20 2c-3.33301 0.666992 -6.66602 1 -9.99902 1s-6.66602 0.333008 -9.99902 1l-27.5 4l-27.5 4c-4 0.666992 -7.66699 1.33398 -11 2.00098l-10 2c-4 0.666992 -7.5 1.16699 -10.5 1.5s-6.16699 0.833008 -9.5 1.5v60v0v0z" />
    <glyph glyph-name="onesuperior" unicode="&#xb9;" 
 />
    <glyph glyph-name="ordmasculine" unicode="&#xba;" horiz-adv-x="685" 
d="M570 393c-14.667 -8.66699 -30.835 -16.5 -48.502 -23.5s-36.5 -12.5 -56.5 -16.5l-20.5 -4c-7 -1.33301 -13.833 -2.33301 -20.5 -3c-13.333 -2 -26.833 -3.33301 -40.5 -4s-27.5 -1 -41.5 -1c-20.667 0 -41.5 1 -62.5 3s-41.167 5.33301 -60.5 10
c-20.667 4 -39.5 9.16699 -56.5 15.5s-32.833 13.833 -47.5 22.5c-14.667 9.33301 -27.5 19.166 -38.5 29.499s-20.167 21.833 -27.5 34.5c-7.33301 12 -12.666 24.5 -15.999 37.5s-5 26.167 -5 39.5s1.66699 26.166 5 38.499s8.66602 24.5 15.999 36.5s16.5 23.5 27.5 34.5
s23.833 20.833 38.5 29.5s30.5 16.167 47.5 22.5s35.833 11.833 56.5 16.5c19.333 4 39.5 7.16699 60.5 9.5s42.167 3.5 63.5 3.5s42.166 -1.16699 62.499 -3.5s40.5 -5.5 60.5 -9.5c19.333 -4.66699 37.833 -10.167 55.5 -16.5s33.834 -13.833 48.501 -22.5
c14 -8.66699 26.333 -18.5 37 -29.5s19.667 -22.5 27 -34.5s13 -24.167 17 -36.5s6 -25.166 6 -38.499s-1.66699 -26.5 -5 -39.5s-8.66602 -25.5 -15.999 -37.5c-7.33301 -12.667 -16.666 -24.167 -27.999 -34.5s-24 -20.166 -38 -29.499v1v0zM288.999 427
c0.666992 0 1.50195 -0.168945 2.50195 -0.501953s1.83301 -0.833008 2.5 -1.5c1.33301 -0.666992 2.83301 -1.16699 4.5 -1.5s3.5 -0.5 5.5 -0.5c0.666992 0 1.5 -0.166992 2.5 -0.5s1.83301 -0.5 2.5 -0.5c1.33301 0 2.83301 -0.166992 4.5 -0.5s3.5 -0.5 5.5 -0.5
c17.333 -2 34.333 -1.83301 51 0.5s32.667 6.5 48 12.5c16 6 29.333 13.333 40 22s19 18.334 25 29.001c1.33301 4 2.83301 8.16699 4.5 12.5s3.16699 8.83301 4.5 13.5c0.666992 4.66699 1 9.33398 1 14.001v14c-0.666992 10 -3 20 -7 30s-9.66699 19.333 -17 28
c-7.33301 9.33301 -16.5 17.333 -27.5 24s-24.167 12 -39.5 16c-2 0.666992 -4 1.16699 -6 1.5s-3.66699 0.5 -5 0.5c-2 0.666992 -4 1.16699 -6 1.5s-4 0.5 -6 0.5s-3.83301 0.166992 -5.5 0.5s-3.5 0.5 -5.5 0.5c-2 0.666992 -3.83301 1 -5.5 1h-5.5
c-16.667 1.33301 -32.834 0.666016 -48.501 -2.00098s-31.167 -7 -46.5 -13c-14.667 -6 -27.167 -13.167 -37.5 -21.5s-18.166 -17.5 -23.499 -27.5c-1.33301 -2 -2.5 -4 -3.5 -6s-1.83301 -4 -2.5 -6c-0.666992 -2.66699 -1.33398 -5 -2.00098 -7s-1 -4 -1 -6
c-0.666992 -4.66699 -1.16699 -9.16699 -1.5 -13.5s-0.5 -8.5 -0.5 -12.5c0 -10.667 2.16699 -21.167 6.5 -31.5s10.166 -20.166 17.499 -29.499c7.33301 -10 17.5 -18.333 30.5 -25s27.833 -12 44.5 -16v1v0z" />
    <glyph glyph-name="guillemotright" unicode="&#xbb;" horiz-adv-x="945" 
d="M661 264l-258 174h228l245 -174l-257 -174h-223l265 174v0v0zM304 264l-258 174h227l246 -174l-258 -174h-222l265 174v0v0z" />
    <glyph glyph-name="onequarter" unicode="&#xbc;" 
 />
    <glyph glyph-name="onehalf" unicode="&#xbd;" 
 />
    <glyph glyph-name="threequarters" unicode="&#xbe;" 
 />
    <glyph glyph-name="questiondown" unicode="&#xbf;" horiz-adv-x="1039" 
d="M979 591h-246v127h246v-127v0v0zM733 523l0.0078125 18.0049h246c0 -20.667 -1.33301 -40.834 -4 -60.501s-6.33398 -38.834 -11.001 -57.501s-15 -35.667 -31 -51s-37.667 -29.333 -65 -42c-18 -8 -36.833 -14.667 -56.5 -20s-40.167 -9.33301 -61.5 -12
c-14 -2 -28.167 -3.5 -42.5 -4.5s-28.833 -1.83301 -43.5 -2.5c-7.33301 -0.666992 -14.5 -1 -21.5 -1h-21.5h-21.5h-20.5h-21.5h-20.5h-12c-4 0 -8 0.333008 -12 1h-11.5h-11.5h-22.5h-22.5c-22.667 0 -43.167 -1.66699 -61.5 -5s-34.166 -8.33301 -47.499 -15
c-14.667 -6.66699 -25 -15.834 -31 -27.501s-8.33301 -25.834 -7 -42.501c1.33301 -18 6.66602 -32.5 15.999 -43.5s22.666 -18.5 39.999 -22.5s36.166 -7 56.499 -9s41.833 -3 64.5 -3l527 1v-124h-576h-4.5h-4.5h-2h-2h-2h-2h-10h-10h-10h-10h-10h-10h-11h-10
c-8.66699 0 -17.334 0.166992 -26.001 0.5s-17.334 1.16602 -26.001 2.49902c-4.66699 0 -9 0.333008 -13 1s-8.33301 1.33398 -13 2.00098c-12.667 1.33301 -25 3.5 -37 6.5s-23.667 6.5 -35 10.5c-22.667 8 -41.834 17.5 -57.501 28.5s-28.5 23.5 -38.5 37.5
c-10.667 14 -19 28.5 -25 43.5s-9.66699 30.5 -11 46.5v1.5v1.5c-0.666992 0.666992 -1 1.33398 -1 2.00098v2v4v4c-2.66699 36 2.5 67.833 15.5 95.5s33.167 51.5 60.5 71.5c27.333 19.333 61.666 34 102.999 44s89.666 15 144.999 15l189 1
c27.333 -0.666992 52 0.666016 74 3.99902s40.333 8.33301 55 15c15.333 7.33301 26.833 17.666 34.5 30.999s11.5 30.333 11.5 51v1v0z" />
    <glyph glyph-name="Agrave" unicode="&#xc0;" 
 />
    <glyph glyph-name="Aacute" unicode="&#xc1;" 
 />
    <glyph glyph-name="Acircumflex" unicode="&#xc2;" 
 />
    <glyph glyph-name="Atilde" unicode="&#xc3;" 
 />
    <glyph glyph-name="Adieresis" unicode="&#xc4;" 
 />
    <glyph glyph-name="Aring" unicode="&#xc5;" 
 />
    <glyph glyph-name="AE" unicode="&#xc6;" horiz-adv-x="1675" 
d="M534 575l-158 -276h341l-153 276h-30v0v0zM-31 0l454 717.998h246l96 -174c27.333 33.333 56.166 61.5 86.499 84.5s62.833 40.5 97.5 52.5s75.167 21 121.5 27s98.833 9 157.5 9l360 1v-125h-372c-42 -0.666992 -78.333 -4.66699 -109 -12s-56.334 -18.333 -77.001 -33
s-36.667 -32.167 -48 -52.5s-18.333 -43.833 -21 -70.5l627 1v-125h-628c0 -12.667 0.833008 -25.167 2.5 -37.5s4.83398 -24.166 9.50098 -35.499c4.66699 -12 11.167 -23.333 19.5 -34s18.833 -20.667 31.5 -30c12 -8.66699 24.833 -16 38.5 -22s28.167 -10 43.5 -12
c16 -2 32.167 -3.5 48.5 -4.5s32.833 -1.5 49.5 -1.5h2.5h3.5h2h2h1h2l372 1v-125h-366c-54 0 -101.5 1.66699 -142.5 5s-75.833 8.33301 -104.5 15c-28.667 7.33301 -56.167 18.833 -82.5 34.5s-51.5 35.834 -75.5 60.501l-8 8
c-2.66699 2.66699 -5.33398 5.66699 -8.00098 9c-1.33301 1.33301 -2.66602 2.83301 -3.99902 4.5s-2.66602 3.16699 -3.99902 4.5c-2.66699 3.33301 -5.33398 6.5 -8.00098 9.5s-5.33398 6.16699 -8.00098 9.5c-1.33301 2 -2.66602 3.83301 -3.99902 5.5
s-2.66602 3.16699 -3.99902 4.5l-466 1l-96 -171h-238v0v0z" />
    <glyph glyph-name="Ccedilla" unicode="&#xc7;" 
 />
    <glyph glyph-name="Egrave" unicode="&#xc8;" 
 />
    <glyph glyph-name="Eacute" unicode="&#xc9;" 
 />
    <glyph glyph-name="Ecircumflex" unicode="&#xca;" 
 />
    <glyph glyph-name="Edieresis" unicode="&#xcb;" 
 />
    <glyph glyph-name="Igrave" unicode="&#xcc;" 
 />
    <glyph glyph-name="Iacute" unicode="&#xcd;" 
 />
    <glyph glyph-name="Icircumflex" unicode="&#xce;" 
 />
    <glyph glyph-name="Idieresis" unicode="&#xcf;" 
 />
    <glyph glyph-name="Eth" unicode="&#xd0;" 
 />
    <glyph glyph-name="Ntilde" unicode="&#xd1;" 
 />
    <glyph glyph-name="Ograve" unicode="&#xd2;" 
 />
    <glyph glyph-name="Oacute" unicode="&#xd3;" 
 />
    <glyph glyph-name="Ocircumflex" unicode="&#xd4;" 
 />
    <glyph glyph-name="Otilde" unicode="&#xd5;" 
 />
    <glyph glyph-name="Odieresis" unicode="&#xd6;" 
 />
    <glyph glyph-name="multiply" unicode="&#xd7;" 
 />
    <glyph glyph-name="Oslash" unicode="&#xd8;" horiz-adv-x="1159" 
d="M34 -8l122.001 98.998c-19.333 15.333 -36.333 33 -51 53s-26.667 42.333 -36 67c-10 24 -17.333 48.667 -22 74s-7 51.333 -7 78c0 28.667 3.33301 56.834 10 84.501s16.334 54.834 29.001 81.501c12 26.667 27.5 50.5 46.5 71.5s41.167 38.833 66.5 53.5
c21.333 12.667 45.5 23.667 72.5 33s56.833 17.333 89.5 24c33.333 6 67.333 10.833 102 14.5s70 5.83398 106 6.50098c31.333 0 62.166 -0.833008 92.499 -2.5s60.5 -4.5 90.5 -8.5s57.833 -9 83.5 -15s49.5 -13 71.5 -21l55 42h144l-111 -89
c22.667 -14.667 42.167 -32.334 58.5 -53.001s29.833 -44 40.5 -70s18.667 -52.667 24 -80s7.33301 -55 6 -83c-0.666992 -28.667 -4.33398 -56.834 -11.001 -84.501s-16 -54.5 -28 -80.5c-12.667 -26 -28 -49.167 -46 -69.5s-38.667 -37.833 -62 -52.5
c-21.333 -12.667 -44.5 -23.834 -69.5 -33.501s-51.833 -17.5 -80.5 -23.5c-28.667 -5.33301 -57.167 -9.66602 -85.5 -12.999s-57.166 -5.66602 -86.499 -6.99902c-16 -0.666992 -31.667 -1 -47 -1h-46c-14.667 0.666992 -29.5 1.16699 -44.5 1.5
s-29.167 1.16602 -42.5 2.49902c-20.667 1.33301 -40.834 3.33301 -60.501 6s-39.167 6 -58.5 10s-38 8.83301 -56 14.5s-35.667 11.834 -53 18.501l-60 -48h-146v0v0zM840.001 523.998l-462 -379.998c12 -8.66699 25.667 -16.334 41 -23.001s32 -12 50 -16
s36.667 -6.83301 56 -8.5s38.666 -2.16699 57.999 -1.5c8 0 16 0.166992 24 0.5s16 0.833008 24 1.5c7.33301 0.666992 15 1.66699 23 3l24 4c15.333 3.33301 29.833 7 43.5 11s26.5 8.33301 38.5 13c18 7.33301 33.667 16.166 47 26.499s24.333 21.833 33 34.5
c9.33301 12.667 17 25.5 23 38.5s10.667 26.5 14 40.5c0.666992 2 1.16699 4 1.5 6s0.833008 4 1.5 6c0 1.33301 0.166992 3 0.5 5s0.833008 4 1.5 6c0 2 0.166992 4 0.5 6s0.833008 4 1.5 6s1.16699 4 1.5 6s0.5 4 0.5 6c2.66699 18 3.66699 36 3 54s-2.66699 35.333 -6 52
c-3.33301 17.333 -8.66602 34.5 -15.999 51.5s-16.333 33.833 -27 50.5v1v0zM766.001 586c-1.33301 0 -2.6709 0.167969 -4.00391 0.500977s-2.66602 0.833008 -3.99902 1.5s-2.66602 1.16699 -3.99902 1.5s-2.66602 0.833008 -3.99902 1.5s-2.66602 1.16699 -3.99902 1.5
s-2.66602 0.833008 -3.99902 1.5c-2 0 -3.66699 0.166992 -5 0.5s-2.66602 0.833008 -3.99902 1.5c-6 2 -12 3.66699 -18 5s-12 3 -18 5c-6.66699 1.33301 -13 2.66602 -19 3.99902s-12 2.33301 -18 3c-12.667 2 -25.834 3.5 -39.501 4.5s-27.5 1.5 -41.5 1.5h-7h-5h-7h-5
c-18.667 -0.666992 -37.167 -2.33398 -55.5 -5.00098s-36.5 -6 -54.5 -10c-18 -4.66699 -34.5 -10.5 -49.5 -17.5s-28.833 -15.167 -41.5 -24.5c-16 -11.333 -29.5 -24.166 -40.5 -38.499s-19.5 -30.166 -25.5 -47.499c-6 -16.667 -10.5 -33.834 -13.5 -51.501
s-4.16699 -35.5 -3.5 -53.5c0 -14.667 0.833008 -29.334 2.5 -44.001s4.5 -29 8.5 -43c3.33301 -14 7.66602 -27.167 12.999 -39.5s11 -24.166 17 -35.499l454 377v0v0z" />
    <glyph glyph-name="Ugrave" unicode="&#xd9;" 
 />
    <glyph glyph-name="Uacute" unicode="&#xda;" 
 />
    <glyph glyph-name="Ucircumflex" unicode="&#xdb;" 
 />
    <glyph glyph-name="Udieresis" unicode="&#xdc;" 
 />
    <glyph glyph-name="Yacute" unicode="&#xdd;" 
 />
    <glyph glyph-name="Thorn" unicode="&#xde;" 
 />
    <glyph glyph-name="germandbls" unicode="&#xdf;" horiz-adv-x="1035" 
d="M796 461l-162.997 -64.9971c-5.33301 -2.66699 -9.83301 -4.83398 -13.5 -6.50098s-6.83398 -3.16699 -9.50098 -4.5c-2 -1.33301 -3.33301 -2.5 -4 -3.5s-0.333984 -2.16699 0.999023 -3.5c0 -0.666992 0.166992 -1.16699 0.5 -1.5s0.833008 -0.5 1.5 -0.5
c0.666992 -0.666992 1.66699 -1.16699 3 -1.5s2.66602 -0.833008 3.99902 -1.5c2.66699 -0.666992 5.5 -1.5 8.5 -2.5s6.83301 -2.16699 11.5 -3.5l147 -40c21.333 -6.66699 41.666 -14.334 60.999 -23.001s37.333 -18 54 -28c16.667 -10.667 29.667 -22.667 39 -36
s15.333 -28.666 18 -45.999c4 -26 2.16699 -50.333 -5.5 -73s-21.167 -43.667 -40.5 -63s-44.333 -33.833 -75 -43.5s-66.667 -14.5 -108 -14.5h-276v110h183c1.33301 -0.666992 3.16602 -1 5.49902 -1h7.5h3.5h3.5c1.33301 0 2.5 0.166992 3.5 0.5s2.16699 0.5 3.5 0.5
c10.667 0.666992 20.667 2 30 4s18.333 4.33301 27 7c9.33301 3.33301 16.666 7.5 21.999 12.5s9.33301 11.167 12 18.5c3.33301 9.33301 4.16602 18 2.49902 26s-5.83398 15.333 -12.501 22c-6.66699 6 -14.5 11.667 -23.5 17s-19.167 10.333 -30.5 15l-23.5 7
c-9 2.66699 -18.833 5.33398 -29.5 8.00098l-33.5 8.5c-11.667 3 -23.5 6.5 -35.5 10.5c-15.333 4 -30.333 8.5 -45 13.5s-28.667 10.5 -42 16.5c-13.333 5.33301 -24.5 11.333 -33.5 18s-15.167 13.667 -18.5 21c-6.66699 11.333 -10.334 22.5 -11.001 33.5
s2 21.833 8 32.5s14.333 20.334 25 29.001s23.334 16.334 38.001 23.001c3.33301 1.33301 6.5 2.66602 9.5 3.99902s6.16699 2.66602 9.5 3.99902c2.66699 1.33301 5.66699 2.66602 9 3.99902s6.33301 2.66602 9 3.99902c4 2 8.16699 3.83301 12.5 5.5
s8.83301 3.16699 13.5 4.5c2 1.33301 4.16699 2.5 6.5 3.5s4.5 1.83301 6.5 2.5h0.5h0.5h0.5h0.5v0l1 1v0v0c4 1.33301 8.16699 2.83301 12.5 4.5s8.5 3.5 12.5 5.5c4 1.33301 8.16699 2.83301 12.5 4.5s8.5 3.5 12.5 5.5s8 3.83301 12 5.5l13 5.5c4 1.33301 8 3 12 5l12 6
c1.33301 1.33301 2.83301 2.5 4.5 3.5s3.16699 2.5 4.5 4.5c0.666992 1.33301 1.33398 2.33301 2.00098 3s1.33398 1.66699 2.00098 3c0.666992 0.666992 1.16699 1.5 1.5 2.5s0.5 1.83301 0.5 2.5v3.5v2.5c0 0.666992 0.166992 1.16699 0.5 1.5s0.5 0.833008 0.5 1.5
s0.166992 1.16699 0.5 1.5s0.5 0.833008 0.5 1.5c0.666992 11.333 -1.16602 20.833 -5.49902 28.5s-11.166 13.167 -20.499 16.5c-8.66699 3.33301 -19 5.83301 -31 7.5s-25.667 2.83398 -41 3.50098h-4.5h-4.5h-5.5h-4.5h-4.5c-1.66699 0 -3.16699 0.333008 -4.5 1h-4.5
h-4.5h-6.5c-2.33301 0 -4.5 0.333008 -6.5 1h-5.5h-5.5h-6c-2 0 -3.66699 0.333008 -5 1h-5.5h-4.5c-16 0 -31 -0.666992 -45 -2s-27 -3.66602 -39 -6.99902c-12.667 -2.66699 -22.334 -7.33398 -29.001 -14.001s-10 -15.667 -10 -27v-568h-216v423h-150v104h150v4v4v4v5
c0 28.667 2 53.667 6 75s10.333 39.333 19 54c9.33301 14 29.833 24.667 61.5 32s74.834 11.333 129.501 12l216 1c3.33301 -0.666992 6.66602 -1.16699 9.99902 -1.5s7 -0.5 11 -0.5h10h11c21.333 -0.666992 42.666 -2.83398 63.999 -6.50098s42.333 -8.16699 63 -13.5
c20.667 -6 38.5 -14 53.5 -24s27.167 -22.333 36.5 -37c3.33301 -4.66699 6.33301 -9.83398 9 -15.501s4.66699 -11.167 6 -16.5c0.666992 -2.66699 1.33398 -5.5 2.00098 -8.5s1.33398 -5.83301 2.00098 -8.5c0.666992 -3.33301 1.16699 -6.33301 1.5 -9
s0.5 -5.66699 0.5 -9c0 -10.667 -1.5 -21.167 -4.5 -31.5s-7.5 -20.5 -13.5 -30.5s-14.167 -18.833 -24.5 -26.5s-22.166 -14.167 -35.499 -19.5v1v0z" />
    <glyph glyph-name="agrave" unicode="&#xe0;" 
 />
    <glyph glyph-name="aacute" unicode="&#xe1;" 
 />
    <glyph glyph-name="acircumflex" unicode="&#xe2;" 
 />
    <glyph glyph-name="atilde" unicode="&#xe3;" 
 />
    <glyph glyph-name="adieresis" unicode="&#xe4;" 
 />
    <glyph glyph-name="aring" unicode="&#xe5;" 
 />
    <glyph glyph-name="ae" unicode="&#xe6;" horiz-adv-x="1360" 
d="M105 527l408.992 0.00292969c23.333 -0.666992 45.166 -2 65.499 -4s39.5 -4.66699 57.5 -8c18 -4 35.833 -9.5 53.5 -16.5s34.834 -16.167 51.501 -27.5c0.666992 0 1 0.166992 1 0.5s0.333008 0.5 1 0.5s1.33398 0.333008 2.00098 1s1.33398 1 2.00098 1
s1 0.166992 1 0.5s0.333008 0.5 1 0.5c0.666992 0.666992 1.33398 1.16699 2.00098 1.5s1.33398 0.833008 2.00098 1.5c18 9.33301 36.5 17.166 55.5 23.499s38.167 11.166 57.5 14.499c18.667 3.33301 38.5 5.83301 59.5 7.5s43.5 2.5 67.5 2.5l324 1v-109h-288
c-28.667 -0.666992 -54.5 -2.5 -77.5 -5.5s-43.167 -7.16699 -60.5 -12.5c-18 -5.33301 -31.667 -14.833 -41 -28.5s-14.666 -31.167 -15.999 -52.5l483 1v-105h-486c2.66699 -24 8.5 -43.333 17.5 -58s20.833 -25 35.5 -31c15.333 -6 35 -10.5 59 -13.5
s52.333 -4.5 85 -4.5l289 1v-109h-351c-22.667 0 -44.667 0.833008 -66 2.5s-42.333 4.5 -63 8.5c-20.667 3.33301 -39.667 8.83301 -57 16.5s-33.666 17.5 -48.999 29.5v-57h-434c-40.667 0 -76.667 3.66699 -108 11s-57.666 18.333 -78.999 33
c-22 15.333 -37.667 33.166 -47 53.499s-12.666 43.833 -9.99902 70.5c3.33301 31.333 13.166 57.333 29.499 78s39.5 35.667 69.5 45s63 16.333 99 21s75 7 117 7l262 1c1.33301 21.333 -2 38.833 -10 52.5s-21 23.167 -39 28.5s-38.667 9.33301 -62 12
s-48.666 4 -75.999 4l-339 1v109v0v0zM381.992 109.003l251.001 -0.000976562v106h-234c-1.33301 -0.666992 -2.83301 -1 -4.5 -1h-4.5h-3.5h-2.5c-14.667 -0.666992 -28.334 -1.83398 -41.001 -3.50098s-25 -4.16699 -37 -7.5s-21 -8.66602 -27 -15.999
s-9 -16.666 -9 -27.999c-0.666992 -12.667 1.66602 -22.667 6.99902 -30s13.333 -12 24 -14c11.333 -2.66699 23.333 -4.5 36 -5.5s26.334 -1.5 41.001 -1.5v0h1v0v0h0.5h1.5h0.5h0.5v1v0z" />
    <glyph glyph-name="ccedilla" unicode="&#xe7;" 
 />
    <glyph glyph-name="egrave" unicode="&#xe8;" 
 />
    <glyph glyph-name="eacute" unicode="&#xe9;" 
 />
    <glyph glyph-name="ecircumflex" unicode="&#xea;" 
 />
    <glyph glyph-name="edieresis" unicode="&#xeb;" 
 />
    <glyph glyph-name="igrave" unicode="&#xec;" 
 />
    <glyph glyph-name="iacute" unicode="&#xed;" 
 />
    <glyph glyph-name="icircumflex" unicode="&#xee;" 
 />
    <glyph glyph-name="idieresis" unicode="&#xef;" 
 />
    <glyph glyph-name="eth" unicode="&#xf0;" 
 />
    <glyph glyph-name="ntilde" unicode="&#xf1;" 
 />
    <glyph glyph-name="ograve" unicode="&#xf2;" 
 />
    <glyph glyph-name="oacute" unicode="&#xf3;" 
 />
    <glyph glyph-name="ocircumflex" unicode="&#xf4;" 
 />
    <glyph glyph-name="otilde" unicode="&#xf5;" 
 />
    <glyph glyph-name="odieresis" unicode="&#xf6;" 
 />
    <glyph glyph-name="divide" unicode="&#xf7;" 
 />
    <glyph glyph-name="oslash" unicode="&#xf8;" horiz-adv-x="916" 
d="M151 66l-31.5039 27.4951c-10.333 9 -20.166 18.5 -29.499 28.5c-8.66699 10 -16.5 20.333 -23.5 31s-12.167 21.667 -15.5 33c-2.66699 6 -5 12.167 -7 18.5s-3.66699 12.833 -5 19.5s-2.16602 13.334 -2.49902 20.001s-0.166016 13.334 0.500977 20.001
c0 14 1.33301 27.833 4 41.5s7 27.167 13 40.5s13.167 26.333 21.5 39s18.166 25 29.499 37c17.333 18.667 37.666 34.834 60.999 48.501s49.333 24.834 78 33.501c29.333 9.33301 59.333 16.5 90 21.5s62.334 7.83301 95.001 8.5h45c14.667 0 29 -0.666992 43 -2l20.5 -2
l21.5 -2c6.66699 -1.33301 13.5 -2.5 20.5 -3.5s13.833 -2.16699 20.5 -3.5c3.33301 -0.666992 6.66602 -1.5 9.99902 -2.5s7 -1.83301 11 -2.5c3.33301 -1.33301 6.83301 -2.33301 10.5 -3s7.5 -1.66699 11.5 -3c4 -0.666992 7.83301 -1.66699 11.5 -3
s7.5 -2.33301 11.5 -3c3.33301 -1.33301 6.83301 -2.5 10.5 -3.5s7.5 -2.16699 11.5 -3.5l47 39h133l-99 -79c16.667 -14.667 31.667 -29.834 45 -45.501s24.333 -32.167 33 -49.5c9.33301 -16.667 16.5 -33.834 21.5 -51.501s7.83301 -35.167 8.5 -52.5
c0 -14 -1.33301 -27.667 -4 -41s-6.66699 -26.666 -12 -39.999c-6 -13.333 -13.333 -26.333 -22 -39s-19 -25 -31 -37c-18.667 -18.667 -39.667 -34.667 -63 -48s-48.666 -24 -75.999 -32c-28.667 -8.66699 -58 -15.167 -88 -19.5s-61.333 -7.16602 -94 -8.49902
c-16.667 -0.666992 -32.667 -1 -48 -1s-29.666 0.666992 -42.999 2c-14.667 0.666992 -28.834 1.83398 -42.501 3.50098s-27.167 3.5 -40.5 5.5l-10 2l-10 2c-3.33301 1.33301 -6.66602 2.5 -9.99902 3.5s-6.66602 1.83301 -9.99902 2.5l-21.5 6
c-7 2 -13.833 4.33301 -20.5 7l-47 -34h-132l99 74v0v0zM642.996 354.995l-298.001 -236.001c8 -4 16.5 -7.33301 25.5 -10s17.833 -5 26.5 -7c6 -1.33301 12.167 -2.5 18.5 -3.5s12.833 -1.5 19.5 -1.5c3.33301 -0.666992 6.5 -1 9.5 -1h9.5
c13.333 -0.666992 26.833 -0.166992 40.5 1.5s27.167 3.83398 40.5 6.50098c13.333 3.33301 25.5 7.5 36.5 12.5s21.833 10.833 32.5 17.5c12 8 22.167 16.833 30.5 26.5s14.833 20.167 19.5 31.5s8.33398 22.666 11.001 33.999s4 23 4 35c0 8 -0.666992 16 -2 24
s-3.33301 16 -6 24c-2 8 -4.5 15.833 -7.5 23.5s-6.5 14.834 -10.5 21.501v1v0zM575.995 407.994c-8.66699 3.33301 -17.5 5.99902 -26.5 7.99902l-27.5 6l-14.5 2l-14.5 2c-5.33301 0.666992 -10.333 1.16699 -15 1.5s-9.66699 0.5 -15 0.5
c-14 0.666992 -27.833 0.333984 -41.5 -0.999023s-27.167 -3.66602 -40.5 -6.99902c-13.333 -2.66699 -26 -6.5 -38 -11.5s-23.333 -11.167 -34 -18.5c-12 -8 -22.167 -16.5 -30.5 -25.5s-14.833 -19.167 -19.5 -30.5c-2.66699 -5.33301 -4.83398 -10.833 -6.50098 -16.5
s-3.16699 -11.167 -4.5 -16.5c-1.33301 -6 -2.33301 -11.833 -3 -17.5s-1 -11.167 -1 -16.5c0 -8.66699 0.833008 -17.334 2.5 -26.001s3.83398 -17.334 6.50098 -26.001c3.33301 -8.66699 7 -16.667 11 -24s8.33301 -14.666 13 -21.999l299 239v0v0z" />
    <glyph glyph-name="ugrave" unicode="&#xf9;" 
 />
    <glyph glyph-name="uacute" unicode="&#xfa;" 
 />
    <glyph glyph-name="ucircumflex" unicode="&#xfb;" 
 />
    <glyph glyph-name="udieresis" unicode="&#xfc;" 
 />
    <glyph glyph-name="yacute" unicode="&#xfd;" 
 />
    <glyph glyph-name="thorn" unicode="&#xfe;" 
 />
    <glyph glyph-name="ydieresis" unicode="&#xff;" 
 />
    <glyph glyph-name="Abreve" unicode="&#x102;" 
 />
    <glyph glyph-name="abreve" unicode="&#x103;" 
 />
    <glyph glyph-name="Aogonek" unicode="&#x104;" 
 />
    <glyph glyph-name="aogonek" unicode="&#x105;" 
 />
    <glyph glyph-name="Cacute" unicode="&#x106;" 
 />
    <glyph glyph-name="cacute" unicode="&#x107;" 
 />
    <glyph glyph-name="Ccaron" unicode="&#x10c;" 
 />
    <glyph glyph-name="ccaron" unicode="&#x10d;" 
 />
    <glyph glyph-name="Dcaron" unicode="&#x10e;" 
 />
    <glyph glyph-name="dcaron" unicode="&#x10f;" 
 />
    <glyph glyph-name="Dslash" unicode="&#x110;" 
 />
    <glyph glyph-name="dslash" unicode="&#x111;" 
 />
    <glyph glyph-name="Eogonek" unicode="&#x118;" 
 />
    <glyph glyph-name="eogonek" unicode="&#x119;" 
 />
    <glyph glyph-name="Ecaron" unicode="&#x11a;" 
 />
    <glyph glyph-name="ecaron" unicode="&#x11b;" 
 />
    <glyph glyph-name="Gbreve" unicode="&#x11e;" 
 />
    <glyph glyph-name="gbreve" unicode="&#x11f;" 
 />
    <glyph glyph-name="Idot" unicode="&#x130;" 
 />
    <glyph glyph-name="dotlessi" unicode="&#x131;" horiz-adv-x="399" 
d="M309 0h-219v527h219v-527v0v0z" />
    <glyph glyph-name="Lacute" unicode="&#x139;" 
 />
    <glyph glyph-name="lacute" unicode="&#x13a;" 
 />
    <glyph glyph-name="Lcaron" unicode="&#x13d;" 
 />
    <glyph glyph-name="lcaron" unicode="&#x13e;" 
 />
    <glyph glyph-name="Ldot" unicode="&#x13f;" 
 />
    <glyph glyph-name="ldot" unicode="&#x140;" 
 />
    <glyph glyph-name="Lslash" unicode="&#x141;" 
 />
    <glyph glyph-name="lslash" unicode="&#x142;" 
 />
    <glyph glyph-name="Nacute" unicode="&#x143;" 
 />
    <glyph glyph-name="nacute" unicode="&#x144;" 
 />
    <glyph glyph-name="Ncaron" unicode="&#x147;" 
 />
    <glyph glyph-name="ncaron" unicode="&#x148;" 
 />
    <glyph glyph-name="Odblacute" unicode="&#x150;" 
 />
    <glyph glyph-name="odblacute" unicode="&#x151;" 
 />
    <glyph glyph-name="OE" unicode="&#x152;" horiz-adv-x="1803" 
d="M1344 593c-42 -0.666992 -78.5029 -4.67285 -109.503 -12.0059s-56.5 -18.333 -76.5 -33c-20.667 -14.667 -36.834 -32.167 -48.501 -52.5s-18.5 -43.833 -20.5 -70.5l627 1v-125h-629c0 -12.667 0.833008 -25.167 2.5 -37.5s4.83398 -24.166 9.50098 -35.499
c4.66699 -12 11.334 -23.333 20.001 -34s19.667 -20.667 33 -30c11.333 -8.66699 23.666 -16 36.999 -22s28 -10 44 -12c15.333 -2 31.166 -3.5 47.499 -4.5s32.833 -1.5 49.5 -1.5h1h1h2h2h2h2h2h2l372 1v-125h-383c-34.667 0 -67.5 1.16699 -98.5 3.5
s-60.167 5.83301 -87.5 10.5s-54.5 12.167 -81.5 22.5s-53.833 23.5 -80.5 39.5l-8 -4l-8 -4c-5.33301 -2 -10.666 -4.16699 -15.999 -6.5s-10.666 -4.5 -15.999 -6.5c-2.66699 -1.33301 -5.33398 -2.5 -8.00098 -3.5s-5.33398 -2.16699 -8.00098 -3.5
c-5.33301 -2 -10.666 -3.83301 -15.999 -5.5s-10.666 -3.5 -15.999 -5.5c-24 -8.66699 -48.167 -16.167 -72.5 -22.5s-49.166 -11.166 -74.499 -14.499c-24.667 -4 -50.5 -7 -77.5 -9s-55.5 -3.33301 -85.5 -4c-94 0 -175 7.5 -243 22.5s-123.667 38.167 -167 69.5
c-42.667 31.333 -74.5 70.333 -95.5 117s-31.5 100.667 -31.5 162c0 62 10.5 116.167 31.5 162.5s52.833 84.833 95.5 115.5c43.333 31.333 99 54.833 167 70.5s149 23.834 243 24.501c28.667 0 55.834 -0.833008 81.501 -2.5s49.834 -4.16699 72.501 -7.5
s45.167 -7.66602 67.5 -12.999s43.833 -11.666 64.5 -18.999l15 -5.5l15 -5.5l14.5 -6l14.5 -6l29.5 -12.5c10.333 -4.33301 20.833 -9.16602 31.5 -14.499l4 2c1.33301 0.666992 3 1.66699 5 3l4 2l4 2l4 2c1.33301 0.666992 2.66602 1.66699 3.99902 3l4 2l4 2
c24 12 48.5 21.833 73.5 29.5s50.167 13.5 75.5 17.5s52.333 7 81 9s59 3.33301 91 4l377 1v-125h-372v0v0zM797.997 160.994c13.333 9.33301 24.9971 21 34.9971 35s18.333 30 25 48s11.834 36.5 15.501 55.5s5.5 38.5 5.5 58.5c0 19.333 -1.83301 38.5 -5.5 57.5
s-8.83398 37.5 -15.501 55.5s-15 34 -25 48s-21.667 26 -35 36c-13.333 9.33301 -28.166 17.666 -44.499 24.999s-34.166 13.333 -53.499 18s-39 8.16699 -59 10.5s-40.667 3.5 -62 3.5c-20.667 0 -41.334 -1.16699 -62.001 -3.5s-40.667 -5.83301 -60 -10.5
s-37.166 -10.667 -53.499 -18s-30.833 -15.666 -43.5 -24.999c-13.333 -10 -25.166 -22 -35.499 -36s-19.166 -30 -26.499 -48s-12.666 -36.5 -15.999 -55.5s-5 -38.167 -5 -57.5c0 -20 1.66699 -39.5 5 -58.5s8.66602 -37.5 15.999 -55.5s16.166 -34 26.499 -48
s22.166 -26 35.499 -36c12.667 -9.33301 27.167 -17.5 43.5 -24.5s34.166 -12.833 53.499 -17.5s39.333 -8.16699 60 -10.5s41.334 -3.5 62.001 -3.5c21.333 0 42 1.16699 62 3.5s39.667 5.83301 59 10.5s37.333 10.5 54 17.5s31.334 15.167 44.001 24.5v1v0z" />
    <glyph glyph-name="oe" unicode="&#x153;" horiz-adv-x="1378" 
d="M385 112c0.666992 0 1.49902 -0.166992 2.49902 -0.5s1.83301 -0.833008 2.5 -1.5c1.33301 -0.666992 2.83301 -1.16699 4.5 -1.5s3.5 -0.833008 5.5 -1.5c1.33301 0 2.66602 -0.166992 3.99902 -0.5s3 -0.5 5 -0.5c1.33301 -0.666992 2.66602 -1 3.99902 -1h4
c24 -2.66699 47.5 -2.83398 70.5 -0.500977s45.5 7.83301 67.5 16.5c21.333 8 39.5 18.167 54.5 30.5s26.833 26.833 35.5 43.5c2 5.33301 3.83301 11 5.5 17s3.16699 12.333 4.5 19s2.5 13.334 3.5 20.001s1.5 13.334 1.5 20.001c-1.33301 14.667 -4.66602 29 -9.99902 43
s-12.666 27.333 -21.999 40c-9.33301 13.333 -21.5 24.833 -36.5 34.5s-33.167 17.5 -54.5 23.5c-2 0.666992 -4.16699 1.16699 -6.5 1.5s-4.5 0.833008 -6.5 1.5c-2 0 -4.16699 0.166992 -6.5 0.5s-4.5 0.833008 -6.5 1.5s-4 1.16699 -6 1.5s-4 0.5 -6 0.5
c-2 0.666992 -4.16699 1.16699 -6.5 1.5s-4.5 0.5 -6.5 0.5c-24 1.33301 -47 0.333008 -69 -3s-43 -9 -63 -17c-20.667 -8.66699 -38 -18.834 -52 -30.501s-24.667 -25.167 -32 -40.5c-2.66699 -6 -5 -12 -7 -18s-3.66699 -12 -5 -18s-2.16602 -12 -2.49902 -18
s-0.5 -12 -0.5 -18c0 -16 2.5 -31.333 7.5 -46s12.833 -29 23.5 -43s24.167 -25.833 40.5 -35.5s35.833 -17.167 58.5 -22.5v1v0zM1032 0c-29.333 0 -56.332 0.833008 -80.999 2.5s-47.334 3.83398 -68.001 6.50098c-20 3.33301 -39.667 9 -59 17s-38 19 -56 33
c-1.33301 0.666992 -2.83301 1.5 -4.5 2.5s-3.16699 1.83301 -4.5 2.5l-3.5 3.5l-2.5 2.5c-2.66699 -0.666992 -5 -1.5 -7 -2.5s-3.66699 -2.16699 -5 -3.5c-2.66699 -0.666992 -5 -1.5 -7 -2.5s-3.66699 -2.16699 -5 -3.5c-20.667 -10.667 -41.5 -20 -62.5 -28
s-42.167 -14.667 -63.5 -20c-22 -5.33301 -45 -9.33301 -69 -12s-49.667 -4.33398 -77 -5.00098c-61.333 -1.33301 -117 3.83398 -167 15.501s-94.667 29.834 -134 54.501c-40 25.333 -69.833 54.666 -89.5 87.999s-29.5 70.333 -29.5 111
c0 41.333 9.83301 78.666 29.5 111.999s49.5 62.333 89.5 87c39.333 25.333 84 44 134 56s105.667 18 167 18c30 -0.666992 58.5 -2.66699 85.5 -6s52.167 -8.33301 75.5 -15c22.667 -6.66699 45.167 -15 67.5 -25s44.166 -21.667 65.499 -35
c18 15.333 37.5 27.833 58.5 37.5s43.167 16.834 66.5 21.501c22.667 4 47 7.16699 73 9.5s53.667 3.5 83 3.5l304 1v-110h-277c-29.333 -0.666992 -55.666 -2.5 -78.999 -5.5s-43.666 -7.16699 -60.999 -12.5c-18 -5.33301 -31.5 -14.833 -40.5 -28.5
s-13.833 -31.5 -14.5 -53.5l472 1v-110h-472c1.33301 -22.667 6.16602 -41 14.499 -55s20.833 -23.667 37.5 -29c16.667 -4.66699 36.667 -8.33398 60 -11.001s50.333 -4 81 -4l279 1v-110h-304v0v0z" />
    <glyph glyph-name="Racute" unicode="&#x154;" 
 />
    <glyph glyph-name="racute" unicode="&#x155;" 
 />
    <glyph glyph-name="Rcaron" unicode="&#x158;" 
 />
    <glyph glyph-name="rcaron" unicode="&#x159;" 
 />
    <glyph glyph-name="Sacute" unicode="&#x15a;" 
 />
    <glyph glyph-name="sacute" unicode="&#x15b;" 
 />
    <glyph glyph-name="Scedilla" unicode="&#x15e;" 
 />
    <glyph glyph-name="scedilla" unicode="&#x15f;" 
 />
    <glyph glyph-name="Scaron" unicode="&#x160;" 
 />
    <glyph glyph-name="scaron" unicode="&#x161;" 
 />
    <glyph glyph-name="Tcedilla" unicode="&#x162;" 
 />
    <glyph glyph-name="tcedilla" unicode="&#x163;" 
 />
    <glyph glyph-name="Tcaron" unicode="&#x164;" 
 />
    <glyph glyph-name="tcaron" unicode="&#x165;" 
 />
    <glyph glyph-name="Uring" unicode="&#x16e;" 
 />
    <glyph glyph-name="uring" unicode="&#x16f;" 
 />
    <glyph glyph-name="udblacute" unicode="&#x170;" 
 />
    <glyph glyph-name="Udblacute" unicode="&#x171;" 
 />
    <glyph glyph-name="Ydieresis" unicode="&#x178;" 
 />
    <glyph glyph-name="Zacute" unicode="&#x179;" 
 />
    <glyph glyph-name="zacute" unicode="&#x17a;" 
 />
    <glyph glyph-name="Zdot" unicode="&#x17b;" 
 />
    <glyph glyph-name="zdot" unicode="&#x17c;" 
 />
    <glyph glyph-name="Zcaron" unicode="&#x17d;" 
 />
    <glyph glyph-name="zcaron" unicode="&#x17e;" 
 />
    <glyph glyph-name="florin" unicode="&#x192;" horiz-adv-x="1159" 
d="M934 602c-2 -0.666992 -4.16504 -1.00098 -6.49805 -1.00098h-8.5h-4.5c-1.66699 0 -3.16699 0.333008 -4.5 1h-4.5h-4.5h-13.5h-13.5h-6.5c-2.33301 0 -4.5 0.333008 -6.5 1h-7.5h-6.5c-8.66699 -0.666992 -17.167 -1.16699 -25.5 -1.5s-16.166 -0.833008 -23.499 -1.5
c-8.66699 -0.666992 -16 -1.5 -22 -2.5s-10.667 -2.5 -14 -4.5c-4 -2 -7.5 -4 -10.5 -6s-5.16699 -4.33301 -6.5 -7l-4 -8c-1.33301 -2.66699 -2.33301 -5.33398 -3 -8.00098c0 -0.666992 -0.166992 -1.16699 -0.5 -1.5s-0.5 -0.833008 -0.5 -1.5
s-0.166992 -1.16699 -0.5 -1.5s-0.5 -0.833008 -0.5 -1.5v-1.5v-0.5c-0.666992 -0.666992 -1 -1.16699 -1 -1.5v-0.5l-38 -115h185v-116h-221l-85 -291c-0.666992 -1.33301 -1.33398 -2.5 -2.00098 -3.5s-1 -2.16699 -1 -3.5v-2.5v-3.5
c-1.33301 -4.66699 -2.83301 -9.16699 -4.5 -13.5s-3.16699 -8.83301 -4.5 -13.5c-0.666992 -2.66699 -1.33398 -5.16699 -2.00098 -7.5s-1.33398 -4.83301 -2.00098 -7.5l-2 -8l-2 -8c-1.33301 -4.66699 -3 -9.33398 -5 -14.001l-6 -14
c-2.66699 -4 -5.16699 -8.33301 -7.5 -13s-5.16602 -9.33398 -8.49902 -14.001c-6 -9.33301 -12.833 -17.666 -20.5 -24.999s-16.167 -14 -25.5 -20c-13.333 -7.33301 -27.333 -13.166 -42 -17.499s-30.334 -7.83301 -47.001 -10.5s-33.167 -4.66699 -49.5 -6
s-32.833 -2.33301 -49.5 -3h-12c-4 0 -7.66699 -0.333008 -11 -1h-11.5h-11.5h-11.5h-10.5c-4 0.666992 -7.83301 1 -11.5 1h-10.5h-8h-8h-4h-4h-8h-8h-4h-4v115l1 1h1h2h2h4.5h4.5c25.333 0 47.833 0.833008 67.5 2.5s36.834 4.16699 51.501 7.5
c13.333 2.66699 24.833 9.83398 34.5 21.501s17.5 26.834 23.5 45.501l93 306h-160v116h195l42 142c7.33301 26 16.666 47.833 27.999 65.5s24.333 31.5 39 41.5c15.333 9.33301 37 16.5 65 21.5s62.333 7.5 103 7.5l180 1v-116v0v0z" />
    <glyph glyph-name="hungarumlaut" unicode="&#x2ba;" horiz-adv-x="750" 
d="M294 729h183l-207 -139h-71l95 139v0v0zM538 729h192l-229 -139h-81l118 139v0v0z" />
    <glyph glyph-name="circumflex" unicode="&#x2c6;" horiz-adv-x="750" 
d="M139 596c9.33301 26.667 20.665 48.168 33.998 64.501s29 27.5 47 33.5c17.333 6 35 9.83301 53 11.5s36.333 1.5 55 -0.5c2 0 4.33301 -0.166992 7 -0.5s5.33398 -0.833008 8.00098 -1.5c2 0 4.33301 -0.166992 7 -0.5s5 -0.833008 7 -1.5s4.33301 -1.16699 7 -1.5
s5 -0.5 7 -0.5c2.66699 -0.666992 5.33398 -1.16699 8.00098 -1.5s5.33398 -0.833008 8.00098 -1.5c16.667 -2.66699 32.667 -5 48 -7s29.666 -3.33301 42.999 -4s25 2.16602 35 8.49902s18 15.833 24 28.5l73 1c-8.66699 -28 -19.834 -50.333 -33.501 -67
s-29.5 -28 -47.5 -34s-36.167 -10 -54.5 -12s-37.166 -2 -56.499 0l-14 2l-14 2c-2 0 -4.33301 0.166992 -7 0.5s-5 0.833008 -7 1.5c-2.66699 0.666992 -5.33398 1.16699 -8.00098 1.5s-5 0.833008 -7 1.5c-16.667 2.66699 -33 4.66699 -49 6s-30.667 2.33301 -44 3
s-24.666 -1.83301 -33.999 -7.5s-16.333 -14.167 -21 -25.5l-74 1v0v0z" />
    <glyph glyph-name="caron" unicode="&#x2c7;" horiz-adv-x="750" 
d="M247 729l128 -73l127 73h105l-145 -139h-174l-146 139h105v0v0z" />
    <glyph glyph-name="macron" unicode="&#x2c9;" horiz-adv-x="750" 
d="M156 699h438v-79h-438v79v0v0z" />
    <glyph glyph-name="breve" unicode="&#x2d8;" horiz-adv-x="750" 
d="M241 729c4 -12 9.99707 -22 17.9971 -30s18 -14 30 -18c12 -4.66699 25.167 -8 39.5 -10s29.833 -3 46.5 -3s32 1 46 3s27 5.33301 39 10c12 4 22.167 10 30.5 18s14.166 17.667 17.499 29l98 1c-6 -24 -14.667 -44.833 -26 -62.5s-25.333 -32.167 -42 -43.5
s-38.667 -19.833 -66 -25.5s-59.666 -8.5 -96.999 -8.5s-69.666 2.83301 -96.999 8.5s-49.666 14.167 -66.999 25.5c-16.667 11.333 -30.667 25.833 -42 43.5s-19.666 38.167 -24.999 61.5l97 1v0v0z" />
    <glyph glyph-name="dotaccent" unicode="&#x2d9;" horiz-adv-x="750" 
d="M283 726h183v-133h-183v133v0v0z" />
    <glyph glyph-name="ring" unicode="&#x2da;" horiz-adv-x="750" 
d="M256 776c6 4 12.499 7.6709 19.499 11.0039s14.167 6.33301 21.5 9c4 1.33301 7.66699 2.5 11 3.5s7 2.16699 11 3.5l10 2c3.33301 0.666992 7 1.33398 11 2.00098c28 4 54.333 3.33301 79 -2s48.334 -15.666 71.001 -30.999c22.667 -14.667 38.167 -30.334 46.5 -47.001
s9.83301 -34 4.5 -52c-1.33301 -4.66699 -3.5 -9.5 -6.5 -14.5l-9.5 -15.5c-4.66699 -4.66699 -9.66699 -9.33398 -15 -14.001s-11 -9 -17 -13c-6.66699 -4.66699 -13.5 -8.83398 -20.5 -12.501s-14.167 -6.83398 -21.5 -9.50098c-4 -1.33301 -7.66699 -2.5 -11 -3.5
s-6.66602 -1.83301 -9.99902 -2.5c-4 -0.666992 -7.66699 -1.33398 -11 -2.00098s-7 -1.33398 -11 -2.00098c-28.667 -4 -55.5 -3.16699 -80.5 2.5s-48.167 15.834 -69.5 30.501c-22.667 15.333 -37.834 31.166 -45.501 47.499s-8.5 33.833 -2.5 52.5
c0.666992 2.66699 1.5 5.16699 2.5 7.5s2.16699 4.83301 3.5 7.5c0.666992 2 1.83398 4.16699 3.50098 6.5l5.5 7.5c3.33301 4.66699 7.66602 9.16699 12.999 13.5s11.333 8.83301 18 13.5v1v0zM330.999 727.004c-2.66699 -2 -5.16895 -3.99902 -7.50195 -5.99902
s-4.16602 -4 -5.49902 -6l-4 -6c-1.33301 -2 -2 -4 -2 -6c-1.33301 -6.66699 -0.5 -13 2.5 -19s8.5 -11.667 16.5 -17c8.66699 -5.33301 17.667 -9 27 -11s19.333 -2.66699 30 -2c2.66699 0 5.5 0.5 8.5 1.5s5.83301 1.83301 8.5 2.5
c1.33301 0.666992 2.66602 1.16699 3.99902 1.5s2.66602 0.833008 3.99902 1.5s2.66602 1.5 3.99902 2.5s2.66602 1.83301 3.99902 2.5c2.66699 1.33301 5 2.83301 7 4.5s3.66699 3.5 5 5.5c0.666992 1.33301 1.33398 2.33301 2.00098 3s1.33398 1.66699 2.00098 3
c0.666992 0.666992 1.16699 1.5 1.5 2.5s0.5 1.83301 0.5 2.5c1.33301 7.33301 0.5 14 -2.5 20s-8.5 12 -16.5 18c-8.66699 5.33301 -17.667 9.16602 -27 11.499s-19.333 2.83301 -30 1.5c-1.33301 0 -2.66602 -0.166992 -3.99902 -0.5s-2.66602 -0.833008 -3.99902 -1.5
c-2 0 -3.66699 -0.166992 -5 -0.5s-2.66602 -0.833008 -3.99902 -1.5c-2 -0.666992 -3.83301 -1.5 -5.5 -2.5s-3.16699 -1.83301 -4.5 -2.5c-0.666992 -0.666992 -1.5 -1.16699 -2.5 -1.5s-1.83301 -0.833008 -2.5 -1.5v1v0z" />
    <glyph glyph-name="ogonek" unicode="&#x2db;" horiz-adv-x="750" 
d="M429 -118l73.002 -0.000976562v-86c-0.666992 0.666992 -1.66699 1 -3 1h-3h-3.5h-3.5h-3.5h-3.5h-3.5h-3.5h-5h-5h-10h-10h-6.5h-7.5h-7.5h-6.5c-20.667 0.666992 -40.167 2.16699 -58.5 4.5s-35.833 6.16602 -52.5 11.499c-17.333 4.66699 -30.833 12.5 -40.5 23.5
s-15.167 24.5 -16.5 40.5c-1.33301 14 0.666992 27 6 39s14.333 22.667 27 32c12 10 25 19 39 27s29.333 15.667 46 23c0.666992 0.666992 1.33398 1.16699 2.00098 1.5s1.33398 0.5 2.00098 0.5h2h2c1.33301 0.666992 2.83301 1.33398 4.5 2.00098
s3.16699 1.33398 4.5 2.00098l76 1l-2 -2c-0.666992 -0.666992 -1.33398 -1 -2.00098 -1l-1 -1h-1c-0.666992 0 -1.16699 -0.166992 -1.5 -0.5l-0.5 -0.5h-1.5h-0.5c-0.666992 -0 -1 -0.166992 -1 -0.5s-0.333008 -0.5 -1 -0.5
c-8.66699 -4.66699 -16.834 -9.5 -24.501 -14.5s-14.834 -10.5 -21.501 -16.5s-12 -12.333 -16 -19s-6.66699 -13.667 -8 -21c-1.33301 -6.66699 -1.33301 -12.667 0 -18s3.66602 -10 6.99902 -14c4 -4 9.66699 -7.16699 17 -9.5s16.333 -3.5 27 -3.5v-1v0z" />
    <glyph glyph-name="tilde" unicode="&#x2dc;" horiz-adv-x="750" 
d="M288 729h174l145 -139h-105l-127 73l-128 -73h-105l146 139v0v0z" />
    <glyph glyph-name="Gamma" unicode="&#x393;" 
 />
    <glyph glyph-name="Theta" unicode="&#x398;" 
 />
    <glyph glyph-name="summation" unicode="&#x3a3;" 
 />
    <glyph glyph-name="Phi" unicode="&#x3a6;" 
 />
    <glyph glyph-name="Omega" unicode="&#x3a9;" 
 />
    <glyph glyph-name="alpha" unicode="&#x3b1;" 
 />
    <glyph glyph-name="delta" unicode="&#x3b4;" 
 />
    <glyph glyph-name="epsilon" unicode="&#x3b5;" 
 />
    <glyph glyph-name="pi" unicode="&#x3c0;" 
 />
    <glyph glyph-name="sigma" unicode="&#x3c3;" 
 />
    <glyph glyph-name="tau" unicode="&#x3c4;" 
 />
    <glyph glyph-name="phi" unicode="&#x3c6;" 
 />
    <glyph glyph-name="endash" unicode="&#x2013;" horiz-adv-x="750" 
d="M0 333h750v-125h-750v125v0v0z" />
    <glyph glyph-name="emdash" unicode="&#x2014;" horiz-adv-x="1500" 
d="M0 333h1500v-125h-1500v125v0v0z" />
    <glyph glyph-name="underscoredbl" unicode="&#x2017;" 
 />
    <glyph glyph-name="quoteleft" unicode="&#x2018;" horiz-adv-x="258" 
d="M58 702h141v-273h-141v273v0v0z" />
    <glyph glyph-name="quoteright" unicode="&#x2019;" horiz-adv-x="750" 
d="M388 590l-256 139h216l145 -139h-105v0v0z" />
    <glyph glyph-name="quotesinglbase" unicode="&#x201a;" 
 />
    <glyph glyph-name="quotedblleft" unicode="&#x201c;" horiz-adv-x="552" 
d="M58 718h178.997v-125h-83v-94c-7.33301 3.33301 -14 6.83301 -20 10.5s-11.333 7.5 -16 11.5c-2.66699 2 -5.16699 4 -7.5 6s-4.5 4 -6.5 6c-2 1.33301 -4 3 -6 5s-3.66699 4 -5 6c-10 10 -17.667 20.167 -23 30.5s-8.66602 20.833 -9.99902 31.5
s-2.16602 22.167 -2.49902 34.5s-0.166016 25.5 0.500977 39.5v9.5v8.5v9.5v9.5v1v0zM312.997 718h178.997v-125h-83v-94c-7.33301 3.33301 -14 6.83301 -20 10.5s-11.333 7.5 -16 11.5c-2.66699 2 -5.16699 4 -7.5 6s-4.5 4 -6.5 6c-2 1.33301 -4 3 -6 5s-3.66699 4 -5 6
c-10 10 -17.667 20.167 -23 30.5s-8.66602 20.833 -9.99902 31.5s-2.16602 22.167 -2.49902 34.5s-0.166016 25.5 0.500977 39.5v9.5v8.5v9.5v9.5v1v0z" />
    <glyph glyph-name="quotedblright" unicode="&#x201d;" horiz-adv-x="552" 
d="M396 499l-0.00292969 94h-83v125h179v-10.5v-9.5v-8.5v-9.5c0 -14 -0.166992 -27.167 -0.5 -39.5s-1.16602 -23.833 -2.49902 -34.5s-4.66602 -21.167 -9.99902 -31.5s-12.666 -20.5 -21.999 -30.5l-6 -6c-2 -2 -4 -3.66699 -6 -5c-2 -2 -4.16699 -4 -6.5 -6
s-4.5 -4 -6.5 -6c-2.66699 -2 -5.5 -4 -8.5 -6s-5.83301 -3.66699 -8.5 -5c-3.33301 -2 -6.5 -4 -9.5 -6s-6.16699 -4 -9.5 -6v1v0zM140.997 499l-0.00292969 94h-83v125h179v-10.5v-9.5v-8.5v-9.5c0 -14 -0.166992 -27.167 -0.5 -39.5s-1.16602 -23.833 -2.49902 -34.5
s-4.66602 -21.167 -9.99902 -31.5s-12.666 -20.5 -21.999 -30.5l-6 -6c-2 -2 -4 -3.66699 -6 -5c-2 -2 -4.16699 -4 -6.5 -6s-4.5 -4 -6.5 -6c-2.66699 -2 -5.5 -4 -8.5 -6s-5.83301 -3.66699 -8.5 -5c-3.33301 -2 -6.5 -4 -9.5 -6s-6.16699 -4 -9.5 -6v1v0z" />
    <glyph glyph-name="quotedblbase" unicode="&#x201e;" horiz-adv-x="552" 
d="M396 -93v92.999h-83v125h179v-11v-10v-8.5v-8.5v-37.5c0 -11.667 -0.666992 -22.5 -2 -32.5s-4.33301 -19.667 -9 -29s-10.667 -18.666 -18 -27.999l-6 -6c-2 -2 -4 -4.33301 -6 -7c-2 -2 -4.33301 -4 -7 -6l-8 -6l-19 -13l-21 -14v-1v0zM141 -93.001v92.999h-83v125h179
v-11v-10v-8.5v-8.5v-37.5c0 -11.667 -0.666992 -22.5 -2 -32.5s-4.33301 -19.667 -9 -29s-10.667 -18.666 -18 -27.999l-6 -6c-2 -2 -4 -4.33301 -6 -7c-2 -2 -4.33301 -4 -7 -6l-8 -6l-19 -13l-21 -14v-1v0z" />
    <glyph glyph-name="dagger" unicode="&#x2020;" horiz-adv-x="750" 
d="M262 394h-217v123h217v201h225v-201h218v-123h-218v-488h-225v488v0v0z" />
    <glyph glyph-name="daggerdbl" unicode="&#x2021;" horiz-adv-x="750" 
d="M262 114h-217v122h217v170h-217v122h217v190h225v-190h218v-122h-218v-170h218v-122h-218v-208h-225v208v0v0z" />
    <glyph glyph-name="bullet" unicode="&#x2022;" horiz-adv-x="885" 
d="M241 425c9.33301 14.667 21.333 27.6631 36 38.9961s32.334 21 53.001 29c21.333 8 42.833 13.667 64.5 17s44.5 4.33301 68.5 3h7c2.66699 0 5.33398 -0.333008 8.00098 -1c2 0 4.33301 -0.166992 7 -0.5s5 -0.833008 7 -1.5c4.66699 -0.666992 9.5 -1.5 14.5 -2.5
s10.167 -2.16699 15.5 -3.5c22.667 -6 42.5 -14 59.5 -24s31.5 -21.667 43.5 -35c12 -14 20.667 -28.167 26 -42.5s7.33301 -29.166 6 -44.499c0 -1.33301 -0.166992 -2.66602 -0.5 -3.99902s-0.833008 -2.66602 -1.5 -3.99902c-0.666992 -2 -1.16699 -4.16699 -1.5 -6.5
s-1.16602 -4.83301 -2.49902 -7.5c-1.33301 -3.33301 -2.83301 -6.66602 -4.5 -9.99902s-3.16699 -6.66602 -4.5 -9.99902c-8.66699 -14.667 -20.5 -27.667 -35.5 -39s-32.833 -21 -53.5 -29s-41.667 -13.667 -63 -17s-43.333 -4.66602 -66 -3.99902h-8
c-2.66699 0 -5 0.333008 -7 1c-2.66699 0 -5.33398 0.166992 -8.00098 0.5s-5.33398 0.833008 -8.00098 1.5c-6 1.33301 -11.667 2.5 -17 3.5s-10.333 2.16699 -15 3.5c-22.667 6 -42.834 13.833 -60.501 23.5s-32.5 21.5 -44.5 35.5s-20.333 28.333 -25 43
s-5.66699 30 -3 46v4.5v5.5c0.666992 1.33301 1.16699 2.83301 1.5 4.5s0.833008 3.16699 1.5 4.5c1.33301 3.33301 2.83301 6.66602 4.5 9.99902s3.5 6.66602 5.5 9.99902v1v0z" />
    <glyph glyph-name="ellipsis" unicode="&#x2026;" horiz-adv-x="1500" 
d="M159 125h180v-125h-180v125v0v0zM658 125h180v-125h-180v125v0v0zM1158 125h180v-125h-180v125v0v0z" />
    <glyph glyph-name="perthousand" unicode="&#x2030;" horiz-adv-x="2028" 
d="M214 335c-20.667 3.33301 -40.0029 7.99902 -58.0029 13.999s-34 13.333 -48 22c-14.667 9.33301 -27.167 19.666 -37.5 30.999s-18.5 24 -24.5 38c-2.66699 6.66699 -5.16699 13.5 -7.5 20.5s-4.16602 14.167 -5.49902 21.5s-2.16602 14.666 -2.49902 21.999
s-0.5 14.666 -0.5 21.999v10c0 3.33301 0.333008 7 1 11c0 3.33301 0.333008 6.66602 1 9.99902l2 10c1.33301 6.66699 3 13.167 5 19.5s4.33301 12.833 7 19.5c6 14 14.167 26.833 24.5 38.5s22.833 21.834 37.5 30.501c14 9.33301 30 17 48 23s37.333 10.667 58 14
c2.66699 0.666992 5.5 1 8.5 1s5.83301 0.333008 8.5 1l16.5 2l17.5 2c8.66699 0.666992 17.5 1.16699 26.5 1.5s17.833 0.5 26.5 0.5c8 0 16.333 -0.166992 25 -0.5s17.334 -0.833008 26.001 -1.5l17.5 -2l16.5 -2c2.66699 -0.666992 5.5 -1 8.5 -1
s5.83301 -0.333008 8.5 -1c21.333 -3.33301 40.5 -8 57.5 -14s32.833 -13.667 47.5 -23c14 -8.66699 26.167 -18.834 36.5 -30.501s18.5 -24.5 24.5 -38.5c3.33301 -6.66699 6.16602 -13.167 8.49902 -19.5s4.16602 -12.833 5.49902 -19.5l2 -10
c0.666992 -3.33301 1 -6.66602 1 -9.99902c0.666992 -4 1 -7.66699 1 -11v-10c0 -7.33301 -0.333008 -14.666 -1 -21.999s-1.66699 -14.666 -3 -21.999s-3.16602 -14.5 -5.49902 -21.5s-5.16602 -13.833 -8.49902 -20.5c-6 -14 -14.167 -26.667 -24.5 -38
s-22.5 -21.666 -36.5 -30.999c-14.667 -8.66699 -30.5 -16.167 -47.5 -22.5s-36.167 -11.166 -57.5 -14.499c-4 -0.666992 -7.83301 -1.16699 -11.5 -1.5s-7.5 -0.833008 -11.5 -1.5s-8 -1.16699 -12 -1.5s-8 -0.5 -12 -0.5c-2.66699 0 -5.33398 -0.166992 -8.00098 -0.5
s-5.33398 -0.833008 -8.00098 -1.5c-5.33301 0 -10.666 -0.166992 -15.999 -0.5s-10.666 -0.5 -15.999 -0.5h-9.5h-9.5c-6.66699 0 -13.167 0.166992 -19.5 0.5s-12.5 0.833008 -18.5 1.5c-9.33301 0.666992 -18.5 1.5 -27.5 2.5s-17.833 2.16699 -26.5 3.5v1v0z
M411.997 436.999c6 4 11.333 8.99902 16 14.999s8.33398 13 11.001 21c3.33301 8 5.66602 16.333 6.99902 25s2 17.334 2 26.001s-0.666992 17.167 -2 25.5s-3.66602 16.5 -6.99902 24.5c-2.66699 8 -6.33398 15 -11.001 21s-10 11.333 -16 16c-6 4 -12.333 7.66699 -19 11
s-14.334 6 -23.001 8s-17.5 3.5 -26.5 4.5s-18.167 1.5 -27.5 1.5c-6 0 -11.833 -0.166992 -17.5 -0.5s-11.167 -1.16602 -16.5 -2.49902c-2.66699 0 -5.5 -0.333008 -8.5 -1s-5.83301 -1.33398 -8.5 -2.00098c-8.66699 -2 -16.5 -4.66699 -23.5 -8s-13.167 -7 -18.5 -11
c-6 -4.66699 -11.167 -10.167 -15.5 -16.5s-8.16602 -13.5 -11.499 -21.5c-2.66699 -8 -4.83398 -16 -6.50098 -24s-2.5 -16.333 -2.5 -25s0.833008 -17.167 2.5 -25.5s3.83398 -16.5 6.50098 -24.5c3.33301 -8 7.16602 -15.167 11.499 -21.5s9.5 -11.833 15.5 -16.5
c5.33301 -4.66699 11.5 -8.66699 18.5 -12s14.833 -6 23.5 -8s17.5 -3.5 26.5 -4.5s17.833 -1.5 26.5 -1.5c4.66699 0 9.16699 0.166992 13.5 0.5s8.5 0.833008 12.5 1.5c4 0 8.16699 0.5 12.5 1.5s8.83301 1.83301 13.5 2.5c8.66699 2 16.334 4.66699 23.001 8
s13 7.33301 19 12v1v0zM416.997 -0.00195312l418 717h117l-418 -717h-117v0v0zM962.997 -0.00195312c-20.667 3.33301 -39.998 8.00098 -57.998 14.001s-33.667 13.333 -47 22c-14.667 8.66699 -27.167 18.667 -37.5 30s-18.5 24 -24.5 38
c-2.66699 6.66699 -5.16699 13.5 -7.5 20.5s-4.16602 13.833 -5.49902 20.5c-1.33301 7.33301 -2.5 14.5 -3.5 21.5s-1.5 14.167 -1.5 21.5s0.5 14.5 1.5 21.5s2.16699 13.833 3.5 20.5c1.33301 7.33301 3.16602 14.333 5.49902 21s4.83301 13.334 7.5 20.001
c9.33301 22 23.333 40.5 42 55.5s41.667 26.833 69 35.5s55.666 15 84.999 19s59.666 5.33301 90.999 4c4 0 7.66699 -0.166992 11 -0.5s7 -0.5 11 -0.5c3.33301 -0.666992 6.66602 -1.16699 9.99902 -1.5s7 -0.5 11 -0.5c2.66699 0 5 -0.166992 7 -0.5
s4.33301 -0.833008 7 -1.5h3h4c3.33301 -0.666992 6.66602 -1.16699 9.99902 -1.5s7 -0.833008 11 -1.5c21.333 -3.33301 40.666 -8 57.999 -14s33 -13.667 47 -23c14.667 -8.66699 27.167 -18.834 37.5 -30.501s18.833 -24.5 25.5 -38.5
c3.33301 -6.66699 5.83301 -13.334 7.5 -20.001s3.16699 -13.667 4.5 -21c1.33301 -6.66699 2.5 -13.5 3.5 -20.5s1.5 -14.167 1.5 -21.5s-0.5 -14.5 -1.5 -21.5s-2.16699 -14.167 -3.5 -21.5c-1.33301 -6.66699 -2.83301 -13.5 -4.5 -20.5s-4.16699 -13.833 -7.5 -20.5
c-6.66699 -14 -15.167 -26.5 -25.5 -37.5s-22.833 -21.167 -37.5 -30.5c-14 -8.66699 -29.667 -16 -47 -22s-36.666 -10.667 -57.999 -14l-26.5 -2l-27.5 -2c-3.33301 0 -6.5 -0.166992 -9.5 -0.5s-6.16699 -0.5 -9.5 -0.5c-6.66699 0 -13.167 -0.166992 -19.5 -0.5
s-12.5 -0.5 -18.5 -0.5h-8h-8c-5.33301 0.666992 -10.666 1 -15.999 1s-10.666 0.333008 -15.999 1c-4 0.666992 -8 1.16699 -12 1.5s-7.66699 0.5 -11 0.5c-4 0.666992 -7.83301 1.16699 -11.5 1.5s-7.5 0.5 -11.5 0.5v0v0zM1162 101.999c6 4 11.167 8.99902 15.5 14.999
s7.83301 13 10.5 21c3.33301 8 5.66602 16.333 6.99902 25s2 17.334 2 26.001s-0.666992 17.167 -2 25.5s-3.66602 16.5 -6.99902 24.5c-2.66699 8 -6.16699 15 -10.5 21s-9.5 11.333 -15.5 16c-6 4 -12.333 7.5 -19 10.5s-14.334 5.5 -23.001 7.5
c-6 1.33301 -11.833 2.5 -17.5 3.5s-11.167 1.83301 -16.5 2.5c-2.66699 0.666992 -5.5 1 -8.5 1h-8.5c-9.33301 0 -18.5 -0.5 -27.5 -1.5s-17.833 -2.5 -26.5 -4.5s-16.5 -4.66699 -23.5 -8s-13.167 -7 -18.5 -11c-6 -4.66699 -11.167 -10.167 -15.5 -16.5
s-8.16602 -13.5 -11.499 -21.5c-2.66699 -8 -4.83398 -16 -6.50098 -24s-2.5 -16.333 -2.5 -25s0.833008 -17.167 2.5 -25.5s3.83398 -16.5 6.50098 -24.5c3.33301 -8 7.16602 -15.167 11.499 -21.5s9.5 -11.833 15.5 -16.5c5.33301 -4.66699 11.5 -8.66699 18.5 -12
s14.833 -6 23.5 -8s17.5 -3.5 26.5 -4.5s17.833 -1.5 26.5 -1.5c4.66699 0 9.16699 0.166992 13.5 0.5s8.5 0.833008 12.5 1.5c4 0 8.16699 0.5 12.5 1.5s8.83301 1.83301 13.5 2.5c8.66699 2 16.334 4.66699 23.001 8s13 7.33301 19 12v1v0zM1609 -0.00195312
c-20.667 3.33301 -39.999 8 -57.999 14s-34 13.333 -48 22c-14.667 8.66699 -27.167 18.667 -37.5 30s-18.5 24 -24.5 38c-2.66699 6.66699 -5.16699 13.5 -7.5 20.5s-4.16602 13.833 -5.49902 20.5c-1.33301 7.33301 -2.16602 14.5 -2.49902 21.5s-0.5 14.167 -0.5 21.5
s0.166992 14.5 0.5 21.5s1.16602 13.833 2.49902 20.5c1.33301 7.33301 3.16602 14.333 5.49902 21s4.83301 13.334 7.5 20.001c10 22 24.333 40.667 43 56s42 27.333 70 36c27.333 8 55.5 14 84.5 18s59.167 5.33301 90.5 4c7.33301 -0.666992 14.5 -1.16699 21.5 -1.5
s13.833 -0.833008 20.5 -1.5c2.66699 0 5 -0.166992 7 -0.5s4.33301 -0.833008 7 -1.5h3h4c3.33301 -0.666992 6.66602 -1.16699 9.99902 -1.5s7 -0.833008 11 -1.5c21.333 -3.33301 40.833 -8 58.5 -14s33.834 -13.667 48.501 -23
c13.333 -8.66699 25.166 -18.834 35.499 -30.501s18.833 -24.5 25.5 -38.5c3.33301 -6.66699 6.16602 -13.334 8.49902 -20.001s4.16602 -13.667 5.49902 -21c1.33301 -6.66699 2.33301 -13.5 3 -20.5s1 -14.167 1 -21.5s-0.333008 -14.5 -1 -21.5
s-1.66699 -14.167 -3 -21.5c-1.33301 -6.66699 -3.16602 -13.5 -5.49902 -20.5s-5.16602 -13.833 -8.49902 -20.5c-6.66699 -14 -15.167 -26.5 -25.5 -37.5s-22.166 -21.167 -35.499 -30.5c-14.667 -8.66699 -30.834 -16 -48.501 -22s-37.167 -10.667 -58.5 -14
c-4 0 -8 -0.166992 -12 -0.5s-8.33301 -0.833008 -13 -1.5c-4 0 -8.16699 -0.166992 -12.5 -0.5s-8.83301 -0.833008 -13.5 -1.5c-6 -0.666992 -11.833 -1 -17.5 -1s-11.167 -0.333008 -16.5 -1h-8.5h-8.5h-13.5c-4.33301 0 -8.5 0.333008 -12.5 1
c-4 0 -8.16699 0.166992 -12.5 0.5s-8.83301 0.5 -13.5 0.5l-26 2c-8.66699 0.666992 -16.667 1.33398 -24 2.00098v0v0zM1807 101.998c6 4 11.333 8.99902 16 14.999s8.33398 13 11.001 21c3.33301 8 5.66602 16.333 6.99902 25s2 17.334 2 26.001
s-0.666992 17.167 -2 25.5s-3.66602 16.5 -6.99902 24.5c-2.66699 8 -6.33398 15 -11.001 21s-10 11.333 -16 16c-6 4 -12.333 7.66699 -19 11s-14.334 6 -23.001 8s-17.5 3.5 -26.5 4.5s-18.167 1.5 -27.5 1.5c-6 0 -11.833 -0.166992 -17.5 -0.5
s-11.167 -1.16602 -16.5 -2.49902c-2.66699 0 -5.5 -0.333008 -8.5 -1s-5.83301 -1.33398 -8.5 -2.00098c-8.66699 -2 -16.5 -4.66699 -23.5 -8s-13.167 -7 -18.5 -11c-6 -4.66699 -11.167 -10.167 -15.5 -16.5s-8.16602 -13.5 -11.499 -21.5c-2.66699 -8 -4.5 -16 -5.5 -24
s-1.5 -16.333 -1.5 -25s0.5 -17.167 1.5 -25.5s2.83301 -16.5 5.5 -24.5c3.33301 -8 7.16602 -15.167 11.499 -21.5s9.5 -11.833 15.5 -16.5c5.33301 -4.66699 11.5 -8.66699 18.5 -12s14.833 -6 23.5 -8s17.5 -3.5 26.5 -4.5s17.833 -1.5 26.5 -1.5
c4.66699 0 9.16699 0.166992 13.5 0.5s8.5 0.833008 12.5 1.5c4 0 8.16699 0.5 12.5 1.5s8.83301 1.83301 13.5 2.5c8.66699 2 16.334 4.66699 23.001 8s13 7.33301 19 12v1v0z" />
    <glyph glyph-name="guilsinglleft" unicode="&#x2039;" horiz-adv-x="597" 
d="M253 263l258 -173h-228l-244 173l256 175h224l-266 -175v0v0z" />
    <glyph glyph-name="guilsinglright" unicode="&#x203a;" horiz-adv-x="597" 
d="M303 264l-258 174h228l246 -174l-258 -174h-224l266 174v0v0z" />
    <glyph glyph-name="exclamdbl" unicode="&#x203c;" 
 />
    <glyph glyph-name="nsuperior" unicode="&#x207f;" 
 />
    <glyph glyph-name="franc" unicode="&#x20a3;" 
 />
    <glyph glyph-name="peseta" unicode="&#x20a7;" 
 />
    <glyph glyph-name="trademark" unicode="&#x2122;" 
 />
    <glyph glyph-name="arrowleft" unicode="&#x2190;" 
 />
    <glyph glyph-name="arrowup" unicode="&#x2191;" 
 />
    <glyph glyph-name="arrowright" unicode="&#x2192;" 
 />
    <glyph glyph-name="arrowdown" unicode="&#x2193;" 
 />
    <glyph glyph-name="arrowboth" unicode="&#x2194;" 
 />
    <glyph glyph-name="arrowupdn" unicode="&#x2195;" 
 />
    <glyph glyph-name="arrowupdnbase" unicode="&#x21a8;" 
 />
    <glyph glyph-name="partialdiff" unicode="&#x2202;" 
 />
    <glyph glyph-name="Delta" unicode="&#x2206;" 
 />
    <glyph glyph-name="product" unicode="&#x220f;" 
 />
    <glyph glyph-name="minus" unicode="&#x2212;" 
 />
    <glyph glyph-name="fraction" unicode="&#x2215;" 
 />
    <glyph glyph-name="periodcentered" unicode="&#x2219;" horiz-adv-x="297" 
d="M58 125h180v-125h-180v125v0v0z" />
    <glyph glyph-name="radical" unicode="&#x221a;" 
 />
    <glyph glyph-name="infinity" unicode="&#x221e;" 
 />
    <glyph glyph-name="orthogonal" unicode="&#x221f;" 
 />
    <glyph glyph-name="intersection" unicode="&#x2229;" 
 />
    <glyph glyph-name="integral" unicode="&#x222b;" 
 />
    <glyph glyph-name="approxequal" unicode="&#x2248;" 
 />
    <glyph glyph-name="notequal" unicode="&#x2260;" 
 />
    <glyph glyph-name="equivalence" unicode="&#x2261;" 
 />
    <glyph glyph-name="lessequal" unicode="&#x2264;" 
 />
    <glyph glyph-name="greaterequal" unicode="&#x2265;" 
 />
    <glyph glyph-name="house" unicode="&#x2302;" 
 />
    <glyph glyph-name="revlogicalnot" unicode="&#x2310;" 
 />
    <glyph glyph-name="integraltp" unicode="&#x2320;" 
 />
    <glyph glyph-name="integralbt" unicode="&#x2321;" 
 />
    <glyph glyph-name="2500" unicode="&#x2500;" 
 />
    <glyph glyph-name="2502" unicode="&#x2502;" 
 />
    <glyph glyph-name="250c" unicode="&#x250c;" 
 />
    <glyph glyph-name="2510" unicode="&#x2510;" 
 />
    <glyph glyph-name="2514" unicode="&#x2514;" 
 />
    <glyph glyph-name="2518" unicode="&#x2518;" 
 />
    <glyph glyph-name="251c" unicode="&#x251c;" 
 />
    <glyph glyph-name="2524" unicode="&#x2524;" 
 />
    <glyph glyph-name="252c" unicode="&#x252c;" 
 />
    <glyph glyph-name="2534" unicode="&#x2534;" 
 />
    <glyph glyph-name="253c" unicode="&#x253c;" 
 />
    <glyph glyph-name="2550" unicode="&#x2550;" 
 />
    <glyph glyph-name="2551" unicode="&#x2551;" 
 />
    <glyph glyph-name="2552" unicode="&#x2552;" 
 />
    <glyph glyph-name="2553" unicode="&#x2553;" 
 />
    <glyph glyph-name="2554" unicode="&#x2554;" 
 />
    <glyph glyph-name="2555" unicode="&#x2555;" 
 />
    <glyph glyph-name="2556" unicode="&#x2556;" 
 />
    <glyph glyph-name="2557" unicode="&#x2557;" 
 />
    <glyph glyph-name="2558" unicode="&#x2558;" 
 />
    <glyph glyph-name="2559" unicode="&#x2559;" 
 />
    <glyph glyph-name="255a" unicode="&#x255a;" 
 />
    <glyph glyph-name="255b" unicode="&#x255b;" 
 />
    <glyph glyph-name="255c" unicode="&#x255c;" 
 />
    <glyph glyph-name="255d" unicode="&#x255d;" 
 />
    <glyph glyph-name="255e" unicode="&#x255e;" 
 />
    <glyph glyph-name="255f" unicode="&#x255f;" 
 />
    <glyph glyph-name="2560" unicode="&#x2560;" 
 />
    <glyph glyph-name="2561" unicode="&#x2561;" 
 />
    <glyph glyph-name="2562" unicode="&#x2562;" 
 />
    <glyph glyph-name="2563" unicode="&#x2563;" 
 />
    <glyph glyph-name="2564" unicode="&#x2564;" 
 />
    <glyph glyph-name="2565" unicode="&#x2565;" 
 />
    <glyph glyph-name="2566" unicode="&#x2566;" 
 />
    <glyph glyph-name="2567" unicode="&#x2567;" 
 />
    <glyph glyph-name="2568" unicode="&#x2568;" 
 />
    <glyph glyph-name="2569" unicode="&#x2569;" 
 />
    <glyph glyph-name="256a" unicode="&#x256a;" 
 />
    <glyph glyph-name="256b" unicode="&#x256b;" 
 />
    <glyph glyph-name="256c" unicode="&#x256c;" 
 />
    <glyph glyph-name="upblock" unicode="&#x2580;" 
 />
    <glyph glyph-name="dnblock" unicode="&#x2584;" 
 />
    <glyph glyph-name="block" unicode="&#x2588;" 
 />
    <glyph glyph-name="lfblock" unicode="&#x258c;" 
 />
    <glyph glyph-name="rtblock" unicode="&#x2590;" 
 />
    <glyph glyph-name="ltshade" unicode="&#x2591;" 
 />
    <glyph glyph-name="shade" unicode="&#x2592;" 
 />
    <glyph glyph-name="dkshade" unicode="&#x2593;" 
 />
    <glyph glyph-name="filledbox" unicode="&#x25a0;" 
 />
    <glyph glyph-name="filledrect" unicode="&#x25ac;" 
 />
    <glyph glyph-name="triagup" unicode="&#x25b2;" 
 />
    <glyph glyph-name="triagrt" unicode="&#x25ba;" 
 />
    <glyph glyph-name="triagdn" unicode="&#x25bc;" 
 />
    <glyph glyph-name="triaglf" unicode="&#x25c4;" 
 />
    <glyph glyph-name="lozenge" unicode="&#x25ca;" 
 />
    <glyph glyph-name="circle" unicode="&#x25cb;" 
 />
    <glyph glyph-name="invbullet" unicode="&#x25d8;" 
 />
    <glyph glyph-name="invcircle" unicode="&#x25d9;" 
 />
    <glyph glyph-name="smileface" unicode="&#x263a;" 
 />
    <glyph glyph-name="invsmileface" unicode="&#x263b;" 
 />
    <glyph glyph-name="sun" unicode="&#x263c;" 
 />
    <glyph glyph-name="female" unicode="&#x2640;" 
 />
    <glyph glyph-name="male" unicode="&#x2642;" 
 />
    <glyph glyph-name="spade" unicode="&#x2660;" 
 />
    <glyph glyph-name="club" unicode="&#x2663;" 
 />
    <glyph glyph-name="heart" unicode="&#x2665;" 
 />
    <glyph glyph-name="diamond" unicode="&#x2666;" 
 />
    <glyph glyph-name="musicalnote" unicode="&#x266a;" 
 />
    <glyph glyph-name="musicalnotedbl" unicode="&#x266b;" 
 />
    <glyph glyph-name="apple" unicode="&#xf000;" 
 />
    <glyph glyph-name="fi" unicode="&#xf001;" 
 />
    <glyph glyph-name="fl" unicode="&#xf002;" 
 />
    <glyph glyph-name="glyph1" horiz-adv-x="0" 
 />
    <glyph glyph-name="glyph2" horiz-adv-x="387" 
 />
    <glyph glyph-name="degree" horiz-adv-x="750" 
d="M256 776c6 4 12.499 7.6709 19.499 11.0039s14.167 6.33301 21.5 9c4 1.33301 7.66699 2.5 11 3.5s7 2.16699 11 3.5l10 2c3.33301 0.666992 7 1.33398 11 2.00098c28 4 54.333 3.33301 79 -2s48.334 -15.666 71.001 -30.999c22.667 -14.667 38.167 -30.334 46.5 -47.001
s9.83301 -34 4.5 -52c-1.33301 -4.66699 -3.5 -9.5 -6.5 -14.5l-9.5 -15.5c-4.66699 -4.66699 -9.66699 -9.33398 -15 -14.001s-11 -9 -17 -13c-6.66699 -4.66699 -13.5 -8.83398 -20.5 -12.501s-14.167 -6.83398 -21.5 -9.50098c-4 -1.33301 -7.66699 -2.5 -11 -3.5
s-6.66602 -1.83301 -9.99902 -2.5c-4 -0.666992 -7.66699 -1.33398 -11 -2.00098s-7 -1.33398 -11 -2.00098c-28.667 -4 -55.5 -3.16699 -80.5 2.5s-48.167 15.834 -69.5 30.501c-22.667 15.333 -37.834 31.166 -45.501 47.499s-8.5 33.833 -2.5 52.5
c0.666992 2.66699 1.5 5.16699 2.5 7.5s2.16699 4.83301 3.5 7.5c0.666992 2 1.83398 4.16699 3.50098 6.5l5.5 7.5c3.33301 4.66699 7.66602 9.16699 12.999 13.5s11.333 8.83301 18 13.5v1v0zM330.999 727.004c-2.66699 -2 -5.16895 -3.99902 -7.50195 -5.99902
s-4.16602 -4 -5.49902 -6l-4 -6c-1.33301 -2 -2 -4 -2 -6c-1.33301 -6.66699 -0.5 -13 2.5 -19s8.5 -11.667 16.5 -17c8.66699 -5.33301 17.667 -9 27 -11s19.333 -2.66699 30 -2c2.66699 0 5.5 0.5 8.5 1.5s5.83301 1.83301 8.5 2.5
c1.33301 0.666992 2.66602 1.16699 3.99902 1.5s2.66602 0.833008 3.99902 1.5s2.66602 1.5 3.99902 2.5s2.66602 1.83301 3.99902 2.5c2.66699 1.33301 5 2.83301 7 4.5s3.66699 3.5 5 5.5c0.666992 1.33301 1.33398 2.33301 2.00098 3s1.33398 1.66699 2.00098 3
c0.666992 0.666992 1.16699 1.5 1.5 2.5s0.5 1.83301 0.5 2.5c1.33301 7.33301 0.5 14 -2.5 20s-8.5 12 -16.5 18c-8.66699 5.33301 -17.667 9.16602 -27 11.499s-19.333 2.83301 -30 1.5c-1.33301 0 -2.66602 -0.166992 -3.99902 -0.5s-2.66602 -0.833008 -3.99902 -1.5
c-2 0 -3.66699 -0.166992 -5 -0.5s-2.66602 -0.833008 -3.99902 -1.5c-2 -0.666992 -3.83301 -1.5 -5.5 -2.5s-3.16699 -1.83301 -4.5 -2.5c-0.666992 -0.666992 -1.5 -1.16699 -2.5 -1.5s-1.83301 -0.833008 -2.5 -1.5v1v0z" />
    <glyph glyph-name="bullet" horiz-adv-x="885" 
d="M241 425c9.33301 14.667 21.333 27.6631 36 38.9961s32.334 21 53.001 29c21.333 8 42.833 13.667 64.5 17s44.5 4.33301 68.5 3h7c2.66699 0 5.33398 -0.333008 8.00098 -1c2 0 4.33301 -0.166992 7 -0.5s5 -0.833008 7 -1.5c4.66699 -0.666992 9.5 -1.5 14.5 -2.5
s10.167 -2.16699 15.5 -3.5c22.667 -6 42.5 -14 59.5 -24s31.5 -21.667 43.5 -35c12 -14 20.667 -28.167 26 -42.5s7.33301 -29.166 6 -44.499c0 -1.33301 -0.166992 -2.66602 -0.5 -3.99902s-0.833008 -2.66602 -1.5 -3.99902c-0.666992 -2 -1.16699 -4.16699 -1.5 -6.5
s-1.16602 -4.83301 -2.49902 -7.5c-1.33301 -3.33301 -2.83301 -6.66602 -4.5 -9.99902s-3.16699 -6.66602 -4.5 -9.99902c-8.66699 -14.667 -20.5 -27.667 -35.5 -39s-32.833 -21 -53.5 -29s-41.667 -13.667 -63 -17s-43.333 -4.66602 -66 -3.99902h-8
c-2.66699 0 -5 0.333008 -7 1c-2.66699 0 -5.33398 0.166992 -8.00098 0.5s-5.33398 0.833008 -8.00098 1.5c-6 1.33301 -11.667 2.5 -17 3.5s-10.333 2.16699 -15 3.5c-22.667 6 -42.834 13.833 -60.501 23.5s-32.5 21.5 -44.5 35.5s-20.333 28.333 -25 43
s-5.66699 30 -3 46v4.5v5.5c0.666992 1.33301 1.16699 2.83301 1.5 4.5s0.833008 3.16699 1.5 4.5c1.33301 3.33301 2.83301 6.66602 4.5 9.99902s3.5 6.66602 5.5 9.99902v1v0z" />
    <glyph glyph-name="endash" horiz-adv-x="750" 
d="M0 333h750v-125h-750v125v0v0z" />
  </font>
</defs>
</svg>
